<svg width="230" height="187" viewBox="0 0 230 187" fill="none" xmlns="http://www.w3.org/2000/svg">
<g clip-path="url(#clip0_501_9468)">
<path d="M22.2964 186.696C22.2964 186.696 -1.81468 132.96 13.9075 114.443C29.7194 91.3826 53.9859 86.4232 56.2568 65.9842C57.9834 39.363 99.755 30.1727 118.796 45.7204C137.837 61.2681 156.005 81.707 175.22 74.7194C194.437 67.7318 213.848 103.589 219.121 120.536C223.88 135.833 227.278 181.455 196.532 186.696H22.2964Z" fill="#E6F0FE"/>
<path d="M93.6983 160.718C93.6983 160.718 45.6479 135.091 37.3062 104.393C37.3062 104.393 82.3401 103.921 108.301 136.271L93.6983 160.718Z" fill="#A4D267"/>
<path d="M37.2288 103.895L36.8142 104.473L102.846 151.889L103.26 151.311L37.2288 103.895Z" fill="white"/>
<path d="M105.807 152.511C98.3744 143.349 52.9509 111.234 59.2801 71.9189C59.2801 71.9189 109.431 88.1395 122.282 141.395L105.807 152.511Z" fill="#A4D267"/>
<path d="M90.8387 164.268L90.6144 164.148C90.4938 164.084 78.4313 157.613 65.5072 147.472C57.9131 141.513 51.5097 135.471 46.4742 129.512C40.1699 122.051 36.0033 114.698 34.0905 107.659L34 107.325L34.3449 107.322C34.4577 107.32 45.8067 107.248 60.1793 111.139C68.622 113.424 76.4444 116.609 83.4294 120.606C92.1653 125.605 99.6073 131.894 105.55 139.299L105.666 139.443L90.8387 164.268ZM34.699 107.857C39.1096 123.509 54.0376 137.794 65.8299 147.048C77.7513 156.403 88.9364 162.626 90.642 163.558L105.019 139.489C91.6616 122.933 73.1965 115.215 60.0403 111.654C47.1418 108.162 36.7056 107.878 34.699 107.857Z" fill="black"/>
<path d="M102.796 156.065L102.642 155.875C101.297 154.217 98.6698 151.775 95.3432 148.685C87.9359 141.801 76.7417 131.399 68.1488 118.787C63.4248 111.854 59.9782 104.948 57.9047 98.2613C55.468 90.4028 54.847 82.6014 56.0588 75.0735L56.108 74.7666L56.4037 74.8623C56.5296 74.903 69.1462 79.0545 83.164 89.671C91.3969 95.9065 98.4993 103.121 104.274 111.113C111.492 121.105 116.643 132.348 119.583 144.529L119.626 144.709L102.796 156.065ZM56.5369 75.4702C51.6207 107.329 80.2847 133.963 95.7065 148.294C98.9255 151.286 101.493 153.671 102.901 155.351L119.022 144.475C112.374 117.154 95.6953 99.8331 82.8598 90.1078C70.1003 80.4408 58.5152 76.1594 56.5369 75.4702Z" fill="black"/>
<path d="M114.367 147.945L114.157 147.658L59.0969 72.3953L59.6707 71.9756L114.941 147.525L114.367 147.945Z" fill="white"/>
<path d="M148.414 57.103L91.5341 57C88.8376 56.9941 86.6494 59.1751 86.6435 61.8715L86.4573 166.16C86.4514 168.856 88.6324 171.047 91.3288 171.05L148.209 171.153C150.905 171.157 153.093 168.976 153.1 166.28L153.286 61.9915C153.292 59.2971 151.111 57.1076 148.414 57.103Z" fill="white"/>
<path d="M150.53 163.941C150.525 167.014 148.029 169.501 144.955 169.495L94.5885 169.403C91.5177 169.398 89.0304 166.903 89.0357 163.83L89.2147 64.2126C89.2199 61.1397 91.7157 58.6525 94.7879 58.6577L145.154 58.7502C148.227 58.7554 150.714 61.2512 150.707 64.3234L150.53 163.941ZM148.414 57.103L91.5341 57C88.8376 56.9941 86.6494 59.1751 86.6435 61.8715L86.4573 166.16C86.4514 168.856 88.6324 171.047 91.3288 171.05L148.209 171.153C150.905 171.157 153.093 168.976 153.1 166.28L153.286 61.9915C153.292 59.2971 151.111 57.1076 148.414 57.103Z" fill="#171313"/>
<path d="M120.778 63.8506H118.964C117.613 63.8506 116.518 62.7555 116.518 61.4046V58.8571C116.518 58.1069 117.126 57.499 117.876 57.499H121.867C122.617 57.499 123.225 58.1069 123.225 58.8571V61.4046C123.224 62.7555 122.129 63.8506 120.778 63.8506Z" fill="#171313"/>
<path d="M120.795 61.5998C121.306 61.089 121.306 60.2607 120.795 59.7498C120.284 59.2389 119.456 59.2389 118.945 59.7498C118.434 60.2607 118.434 61.089 118.945 61.5998C119.456 62.1107 120.284 62.1107 120.795 61.5998Z" fill="white"/>
<path d="M136.432 132.226H103.313C101.032 132.226 99.1826 130.377 99.1826 128.095C99.1826 125.814 101.032 123.965 103.313 123.965H136.432C138.714 123.965 140.563 125.814 140.563 128.095C140.563 130.377 138.714 132.226 136.432 132.226Z" fill="#EF3821"/>
<path d="M119.873 116.152C128.292 116.152 135.117 109.327 135.117 100.908C135.117 92.4898 128.292 85.665 119.873 85.665C111.454 85.665 104.63 92.4898 104.63 100.908C104.63 109.327 111.454 116.152 119.873 116.152Z" fill="#EF3821"/>
<path d="M130.622 90.1602L109.125 111.657" stroke="#171313" stroke-width="6.03383" stroke-miterlimit="10"/>
<path d="M109.125 90.1602L130.622 111.657" stroke="#171313" stroke-width="6.03383" stroke-miterlimit="10"/>
<path d="M219.739 51.7207L225.391 60.9588" stroke="black" stroke-width="1.89636" stroke-miterlimit="10"/>
<path d="M229.74 96.6152L225.392 100.373" stroke="black" stroke-width="1.89636" stroke-miterlimit="10"/>
<path d="M29.7202 40.957L33.6337 45.3689" stroke="black" stroke-width="1.89636" stroke-miterlimit="10"/>
<path d="M5.83398 110.25V117.72" stroke="black" stroke-width="1.89636" stroke-miterlimit="10"/>
<path d="M41.46 76.7891C42.2774 76.7891 42.94 76.1265 42.94 75.3091C42.94 74.4917 42.2774 73.8291 41.46 73.8291C40.6426 73.8291 39.98 74.4917 39.98 75.3091C39.98 76.1265 40.6426 76.7891 41.46 76.7891Z" stroke="black" stroke-width="1.89636" stroke-miterlimit="10"/>
<path d="M141.528 42.3896C143.2 41.6969 143.994 39.7797 143.301 38.1074C142.609 36.435 140.692 35.6409 139.019 36.3336C137.347 37.0263 136.553 38.9436 137.245 40.6159C137.938 42.2882 139.855 43.0823 141.528 42.3896Z" stroke="black" stroke-width="1.89636" stroke-miterlimit="10"/>
<path d="M9.67651 165.53C11.7992 163.407 11.7992 159.966 9.6765 157.843C7.55384 155.72 4.11232 155.72 1.98966 157.843C-0.133001 159.966 -0.133006 163.407 1.98966 165.53C4.11232 167.653 7.55385 167.653 9.67651 165.53Z" stroke="black" stroke-width="1.89636" stroke-miterlimit="10"/>
<path d="M212.129 156.729C213.39 156.729 214.411 155.707 214.411 154.447C214.411 153.186 213.39 152.164 212.129 152.164C210.868 152.164 209.846 153.186 209.846 154.447C209.846 155.707 210.868 156.729 212.129 156.729Z" stroke="black" stroke-width="1.89636" stroke-miterlimit="10"/>
<path d="M159.931 186.696C159.931 186.262 157.394 173.746 157.394 173.746" stroke="black" stroke-width="1.89636" stroke-miterlimit="10"/>
<path d="M221.719 0.136719L217.098 4.13086" stroke="#F9DA93" stroke-width="0.86197" stroke-miterlimit="10"/>
<path d="M146.863 134.094L145.383 130.423" stroke="black" stroke-width="1.89636" stroke-miterlimit="10"/>
</g>
<defs>
<clipPath id="clip0_501_9468">
<rect width="230" height="186.697" fill="white"/>
</clipPath>
</defs>
</svg>
