<svg width="13" height="13" viewBox="0 0 13 13" fill="none" xmlns="http://www.w3.org/2000/svg">
<path d="M3.3477 12.323C3.29353 12.323 3.23395 12.3175 3.1852 12.3121L2.00978 12.1496C1.44645 12.0738 0.93728 11.57 0.850613 10.9959L0.688113 9.80962C0.633946 9.43046 0.796446 8.93754 1.06728 8.66129L3.4452 6.28337C3.06061 4.74504 3.50478 3.12004 4.63686 1.99879C6.39186 0.249206 9.24645 0.24379 11.0069 1.99879C11.8573 2.84921 12.3231 3.98129 12.3231 5.18379C12.3231 6.38629 11.8573 7.51837 11.0069 8.36879C9.86936 9.49546 8.24978 9.93962 6.72228 9.54962L4.33895 11.9275C4.11145 12.1659 3.7052 12.323 3.3477 12.323ZM7.81645 1.49504C6.86853 1.49504 5.92603 1.85254 5.20561 2.57296C4.23061 3.54254 3.87853 4.96171 4.28478 6.28337C4.32811 6.42962 4.2902 6.58129 4.18186 6.68962L1.63603 9.23546C1.54395 9.32754 1.46811 9.56587 1.48436 9.69046L1.64686 10.8767C1.67936 11.0825 1.90145 11.3155 2.10728 11.3425L3.28811 11.505C3.41811 11.5267 3.65645 11.4509 3.74853 11.3588L6.3052 8.80754C6.41353 8.69921 6.57061 8.66671 6.71145 8.71004C8.01686 9.12171 9.44145 8.76962 10.4164 7.79462C11.1098 7.10129 11.4944 6.16962 11.4944 5.18379C11.4944 4.19254 11.1098 3.26629 10.4164 2.57296C9.71228 1.85796 8.76436 1.49504 7.81645 1.49504Z" fill="#0055D2"/>
<path d="M4.97788 11.1258C4.87496 11.1258 4.77204 11.0879 4.69079 11.0067L3.44496 9.76083C3.28788 9.60374 3.28788 9.34374 3.44496 9.18666C3.60204 9.02958 3.86204 9.02958 4.01913 9.18666L5.26496 10.4325C5.42204 10.5896 5.42204 10.8496 5.26496 11.0067C5.18371 11.0879 5.08079 11.1258 4.97788 11.1258Z" fill="#0055D2"/>
<path d="M7.854 6.3645C7.18234 6.3645 6.63525 5.81742 6.63525 5.14575C6.63525 4.47409 7.18234 3.927 7.854 3.927C8.52567 3.927 9.07275 4.47409 9.07275 5.14575C9.07275 5.81742 8.52567 6.3645 7.854 6.3645ZM7.854 4.7395C7.63192 4.7395 7.44775 4.92367 7.44775 5.14575C7.44775 5.36784 7.63192 5.552 7.854 5.552C8.07609 5.552 8.26025 5.36784 8.26025 5.14575C8.26025 4.92367 8.07609 4.7395 7.854 4.7395Z" fill="#0055D2"/>
</svg>
