<svg width="256" height="202" viewBox="0 0 256 202" fill="none" xmlns="http://www.w3.org/2000/svg">
<g clip-path="url(#clip0_756_6890)">
<path d="M124.307 201.956C156.091 201.956 181.858 176.189 181.858 144.405C181.858 112.62 156.091 86.8538 124.307 86.8538C92.5223 86.8538 66.7559 112.62 66.7559 144.405C66.7559 176.189 92.5223 201.956 124.307 201.956Z" fill="#1CC523"/>
<path d="M152.665 120.136C153.412 120.729 142.64 135.194 128.659 152.428C125.67 156.055 122.812 159.529 120.174 162.716L119.009 164.123L117.756 162.848C106.83 151.593 99.3563 143.217 99.8839 142.69C100.412 142.162 108.765 149.614 120.042 160.562L117.646 160.694C120.24 157.462 123.032 153.945 125.977 150.296C139.98 133.017 151.917 119.542 152.665 120.136Z" fill="white"/>
<path d="M206.061 121.235C204.346 115.19 196.498 115.783 196.498 115.783L196.718 119.982C201.269 119.19 204.082 124.532 204.082 124.532L206.061 121.235Z" fill="#D31B1B"/>
<path d="M39.3655 133.897C37.6508 127.852 29.803 128.445 29.803 128.445L30.0228 132.644C34.5732 131.853 37.387 137.172 37.387 137.172L39.3655 133.897Z" fill="#CE4B4B"/>
<path d="M131.187 50.2746C140.31 53.0444 145.982 42.5146 145.982 42.5146L140.442 39.3491C137.738 45.7901 128.637 45.0427 128.637 45.0427L131.187 50.2746Z" fill="#CE4B4B"/>
<path d="M80.6052 61.5957C76.3625 62.0354 75.8569 67.3772 75.8569 67.3772L78.6927 67.7069C78.6927 64.5854 82.5837 63.2884 82.5837 63.2884L80.6052 61.5957Z" fill="#1CC523"/>
<path d="M255.456 100.527C256.071 96.3065 251.037 94.5039 251.037 94.5039L250.004 97.1638C253.038 97.9332 253.302 102.022 253.302 102.022L255.456 100.527Z" fill="#D20000"/>
<path d="M105.358 6.02328C105.973 1.80259 100.939 0 100.939 0L99.906 2.65991C102.94 3.42931 103.225 7.5181 103.225 7.5181L105.358 6.02328Z" fill="#1CC523"/>
<path d="M0.543906 74.1258C-0.225491 80.7426 8.54563 82.3473 8.54563 82.3473L10.1284 78.0167C4.87451 77.5331 4.10511 71.356 4.10511 71.356L0.543906 74.1258Z" fill="#1CC523"/>
<path d="M195.663 50.1428C199.928 50.3846 201.29 45.2186 201.29 45.2186L198.543 44.4272C198.037 47.5268 193.992 48.1423 193.992 48.1423L195.663 50.1428Z" fill="#1CC523"/>
<path d="M218.943 67.509C218.943 67.7068 217.36 67.8607 215.425 67.8607C213.491 67.8607 211.908 67.7068 211.908 67.509C211.908 67.3111 213.491 67.1572 215.425 67.1572C217.36 67.1572 218.943 67.3111 218.943 67.509Z" fill="#D31B1B"/>
<path d="M222.658 57.9246C222.856 57.9246 223.01 59.5293 223.01 61.4858C223.01 63.4642 222.856 65.047 222.658 65.047C222.46 65.047 222.306 63.4422 222.306 61.4858C222.328 59.5293 222.482 57.9246 222.658 57.9246Z" fill="#D31B1B"/>
<path d="M226.637 67.2673C226.637 67.0694 228.219 66.9155 230.154 66.9155C232.088 66.9155 233.671 67.0694 233.671 67.2673C233.671 67.4651 232.088 67.619 230.154 67.619C228.219 67.619 226.637 67.4651 226.637 67.2673Z" fill="#D31B1B"/>
<path d="M222.9 76.8297C222.702 76.8297 222.548 75.225 222.548 73.2685C222.548 71.29 222.702 69.7073 222.9 69.7073C223.097 69.7073 223.251 71.312 223.251 73.2685C223.251 75.2469 223.097 76.8297 222.9 76.8297Z" fill="#D31B1B"/>
<path d="M228.593 72.741C228.439 72.8729 227.78 72.3013 227.076 71.466C226.395 70.6307 225.955 69.8613 226.087 69.7513C226.241 69.6195 226.9 70.191 227.604 71.0264C228.307 71.8397 228.747 72.6091 228.593 72.741Z" fill="#D31B1B"/>
<path d="M228.263 61.8815C228.395 62.0134 227.934 62.7169 227.208 63.4423C226.483 64.1678 225.801 64.6514 225.669 64.5195C225.538 64.3876 225.999 63.6841 226.725 62.9587C227.45 62.2333 228.131 61.7496 228.263 61.8815Z" fill="#D31B1B"/>
<path d="M220.196 64.6512C220.064 64.805 219.426 64.4533 218.745 63.8818C218.063 63.3102 217.602 62.7387 217.734 62.5848C217.866 62.4309 218.503 62.7826 219.185 63.3542C219.866 63.9257 220.328 64.4973 220.196 64.6512Z" fill="#D31B1B"/>
<path d="M219.888 69.4214C220.02 69.5533 219.624 70.2348 218.965 70.9382C218.305 71.6417 217.668 72.1253 217.536 71.9934C217.404 71.8615 217.8 71.1801 218.459 70.4766C219.097 69.7732 219.756 69.3115 219.888 69.4214Z" fill="#D31B1B"/>
<path d="M27.4288 47.9003C27.4288 48.0982 25.846 48.252 23.9115 48.252C21.977 48.252 20.3943 48.0982 20.3943 47.9003C20.3943 47.7025 21.977 47.5486 23.9115 47.5486C25.846 47.5706 27.4288 47.7244 27.4288 47.9003Z" fill="#C5261C"/>
<path d="M31.1659 38.3379C31.3638 38.3379 31.5177 39.9426 31.5177 41.8991C31.5177 43.8775 31.3638 45.4603 31.1659 45.4603C30.9681 45.4603 30.8142 43.8556 30.8142 41.8991C30.8142 39.9426 30.9681 38.3379 31.1659 38.3379Z" fill="#C5261C"/>
<path d="M35.1448 47.6806C35.1448 47.4827 36.7275 47.3289 38.662 47.3289C40.5965 47.3289 42.1793 47.4827 42.1793 47.6806C42.1793 47.8784 40.5965 48.0323 38.662 48.0323C36.7056 48.0103 35.1448 47.8564 35.1448 47.6806Z" fill="#C5261C"/>
<path d="M31.4076 57.243C31.2098 57.243 31.0559 55.6383 31.0559 53.6818C31.0559 51.7034 31.2098 50.1206 31.4076 50.1206C31.6055 50.1206 31.7594 51.7253 31.7594 53.6818C31.7594 55.6383 31.6055 57.243 31.4076 57.243Z" fill="#C5261C"/>
<path d="M37.0792 53.1324C36.9253 53.2643 36.2658 52.6927 35.5624 51.8574C34.8809 51.022 34.4413 50.2526 34.5732 50.1427C34.727 50.0108 35.3865 50.5824 36.09 51.4177C36.7934 52.2531 37.2331 53.0224 37.0792 53.1324Z" fill="#C5261C"/>
<path d="M36.7715 42.2949C36.9033 42.4268 36.4417 43.1302 35.7163 43.8557C34.9909 44.5811 34.3094 45.0647 34.1775 44.9328C34.0456 44.8009 34.5072 44.0975 35.2327 43.372C35.9361 42.6246 36.6176 42.163 36.7715 42.2949Z" fill="#C5261C"/>
<path d="M28.7038 45.0645C28.5719 45.2184 27.9344 44.8667 27.253 44.2951C26.5715 43.7235 26.1099 43.152 26.2418 42.9981C26.3737 42.8442 27.0112 43.196 27.6926 43.7675C28.3741 44.3391 28.8137 44.9106 28.7038 45.0645Z" fill="#C5261C"/>
<path d="M28.374 49.8349C28.5059 49.9668 28.1102 50.6483 27.4507 51.3518C26.7913 52.0552 26.1538 52.5388 26.0219 52.4069C25.89 52.275 26.2856 51.5936 26.9451 50.8901C27.6046 50.1867 28.2421 49.703 28.374 49.8349Z" fill="#C5261C"/>
</g>
<defs>
<clipPath id="clip0_756_6890">
<rect width="255" height="201.978" fill="white" transform="translate(0.5)"/>
</clipPath>
</defs>
</svg>
