<svg width="19" height="19" viewBox="0 0 19 19" fill="none" xmlns="http://www.w3.org/2000/svg">
    <path fill-rule="evenodd" clip-rule="evenodd"
        d="M10.5209 1.99962L15.9438 5.80753C16.7892 6.40167 17.2916 7.37091 17.2897 8.4042V14.0488C17.2876 14.9453 16.9294 15.8043 16.294 16.4368C15.6585 17.0693 14.7979 17.4234 13.9013 17.4213H4.97135C4.0748 17.4234 3.21415 17.0693 2.57871 16.4368C1.94327 15.8043 1.58511 14.9453 1.58301 14.0488V8.4042C1.58111 7.37091 2.08345 6.40167 2.92885 5.80753L8.35176 1.99962C8.96863 1.44544 9.90406 1.44544 10.5209 1.99962ZM10.5922 12.6713L14.9226 9.65503L14.8909 9.69462C15.0649 9.573 15.1607 9.36782 15.1424 9.15637C15.124 8.94492 14.9943 8.75932 14.802 8.66949C14.6097 8.57966 14.384 8.59925 14.2101 8.72087L9.82427 11.7846C9.69443 11.9145 9.51616 11.9841 9.33267 11.9766C9.14918 11.9691 8.97721 11.8851 8.85843 11.745L4.59927 8.72087C4.33931 8.55106 3.99203 8.61358 3.8076 8.86337C3.64188 9.12414 3.70385 9.46842 3.9501 9.65503L8.14593 12.6317C8.49206 12.9487 8.94327 13.1264 9.4126 13.1305C9.8499 13.1331 10.2718 12.9689 10.5922 12.6713Z"
        fill="black" />
</svg>
