<svg width="15" height="15" viewBox="0 0 15 15" fill="none" xmlns="http://www.w3.org/2000/svg">
<path d="M9.7377 7.49922C9.7377 8.73672 8.7377 9.73672 7.5002 9.73672C6.2627 9.73672 5.2627 8.73672 5.2627 7.49922C5.2627 6.26172 6.2627 5.26172 7.5002 5.26172C8.7377 5.26172 9.7377 6.26172 9.7377 7.49922Z" stroke="#292D32" stroke-opacity="0.7" stroke-width="1.5" stroke-linecap="round" stroke-linejoin="round"/>
<path d="M7.50039 12.668C9.70664 12.668 11.7629 11.368 13.1941 9.11797C13.7566 8.23672 13.7566 6.75547 13.1941 5.87422C11.7629 3.62422 9.70664 2.32422 7.50039 2.32422C5.29414 2.32422 3.23789 3.62422 1.80664 5.87422C1.24414 6.75547 1.24414 8.23672 1.80664 9.11797C3.23789 11.368 5.29414 12.668 7.50039 12.668Z" stroke="#292D32" stroke-opacity="0.7" stroke-width="1.5" stroke-linecap="round" stroke-linejoin="round"/>
</svg>
