<svg width="15" height="15" viewBox="0 0 15 15" fill="none" xmlns="http://www.w3.org/2000/svg">
<path d="M9.08145 5.91797L5.91895 9.08047C5.5127 8.67422 5.2627 8.11797 5.2627 7.49922C5.2627 6.26172 6.2627 5.26172 7.5002 5.26172C8.11895 5.26172 8.6752 5.51172 9.08145 5.91797Z" stroke="#292D32" stroke-opacity="0.7" stroke-width="1.5" stroke-linecap="round" stroke-linejoin="round"/>
<path d="M11.1379 3.60703C10.0441 2.78203 8.79414 2.33203 7.50039 2.33203C5.29414 2.33203 3.23789 3.63203 1.80664 5.88203C1.24414 6.76328 1.24414 8.24453 1.80664 9.12578C2.30039 9.90078 2.87539 10.5695 3.50039 11.107" stroke="#292D32" stroke-opacity="0.7" stroke-width="1.5" stroke-linecap="round" stroke-linejoin="round"/>
<path d="M5.2627 12.207C5.9752 12.507 6.73145 12.6695 7.5002 12.6695C9.70645 12.6695 11.7627 11.3695 13.1939 9.11953C13.7564 8.23828 13.7564 6.75703 13.1939 5.87578C12.9877 5.55078 12.7627 5.24453 12.5314 4.95703" stroke="#292D32" stroke-opacity="0.7" stroke-width="1.5" stroke-linecap="round" stroke-linejoin="round"/>
<path d="M9.69414 7.9375C9.53164 8.81875 8.81289 9.5375 7.93164 9.7" stroke="#292D32" stroke-opacity="0.7" stroke-width="1.5" stroke-linecap="round" stroke-linejoin="round"/>
<path d="M5.91875 9.08203L1.25 13.7508" stroke="#292D32" stroke-opacity="0.7" stroke-width="1.5" stroke-linecap="round" stroke-linejoin="round"/>
<path d="M13.7498 1.25L9.08105 5.91875" stroke="#292D32" stroke-opacity="0.7" stroke-width="1.5" stroke-linecap="round" stroke-linejoin="round"/>
</svg>
