<svg width="290" height="199" viewBox="0 0 290 199" fill="none" xmlns="http://www.w3.org/2000/svg">
<g clip-path="url(#clip0_401_4047)">
<circle cx="132.5" cy="112.5" r="87.5" fill="#E6F0FE"/>
<path d="M290 189.921H0V190.066H290V189.921Z" fill="#EBEBEB"/>
<path d="M183.089 193.871H168.322V194.016H183.089V193.871Z" fill="#EBEBEB"/>
<path d="M264.155 197.008H229.164V197.153H264.155V197.008Z" fill="#EBEBEB"/>
<path d="M165.178 193.94H129.027V194.085H165.178V193.94Z" fill="#EBEBEB"/>
<path d="M105.583 198.279H98.02V198.424H105.583V198.279Z" fill="#EBEBEB"/>
<path d="M147.372 198.279H112.932V198.424H147.372V198.279Z" fill="#EBEBEB"/>
<path d="M52.7278 195.831H30.4268V195.976H52.7278V195.831Z" fill="#EBEBEB"/>
<path d="M137.466 164.053H25.4734C23.6464 164.053 22.1616 162.568 22.1616 160.741V3.3118C22.1616 1.4848 23.6464 0 25.4734 0H137.471C139.298 0 140.783 1.4848 140.783 3.3118V160.741C140.777 162.568 139.293 164.053 137.466 164.053ZM25.4734 0.145C23.7276 0.145 22.3066 1.566 22.3066 3.3118V160.741C22.3066 162.487 23.7276 163.908 25.4734 163.908H137.471C139.217 163.908 140.638 162.487 140.638 160.741V3.3118C140.638 1.566 139.217 0.145 137.471 0.145H25.4734Z" fill="#EBEBEB"/>
<path d="M262.92 164.053H150.922C149.095 164.053 147.61 162.568 147.61 160.741V3.3118C147.61 1.4848 149.095 0 150.922 0H262.92C264.747 0 266.231 1.4848 266.231 3.3118V160.741C266.231 162.568 264.747 164.053 262.92 164.053ZM150.922 0.145C149.176 0.145 147.755 1.566 147.755 3.3118V160.741C147.755 162.487 149.176 163.908 150.922 163.908H262.92C264.665 163.908 266.086 162.487 266.086 160.741V3.3118C266.086 1.566 264.665 0.145 262.92 0.145H150.922Z" fill="#EBEBEB"/>
<g opacity="0.5">
<path d="M113.657 139.612H75.145L72.8076 112.642H111.32L113.657 139.612Z" fill="#E6E6E6"/>
<path d="M115.652 139.612H77.1401L74.8027 112.642H113.315L115.652 139.612Z" fill="#F0F0F0"/>
<path d="M82.4063 133.823L81.1187 118.436H108.048L109.336 133.823H82.4063Z" fill="white"/>
<path d="M122.316 139.612H117.798V189.915H122.316V139.612Z" fill="#E6E6E6"/>
<path d="M123.743 139.612H120.605V189.915H123.743V139.612Z" fill="#F0F0F0"/>
<path d="M80.0039 145.168H123.742V139.618H80.0039V145.168Z" fill="#F0F0F0"/>
<path d="M81.548 145.168H77.0298V189.921H81.548V145.168Z" fill="#E6E6E6"/>
<path d="M82.9747 145.168H79.8369V189.921H82.9747V145.168Z" fill="#F0F0F0"/>
<path d="M49.3869 145.168H44.8687V189.921H49.3869V145.168Z" fill="#E6E6E6"/>
<path d="M50.8136 145.168H47.6758V189.921H50.8136V145.168Z" fill="#F0F0F0"/>
<path d="M93.7223 145.168H89.2041V189.921H93.7223V145.168Z" fill="#E6E6E6"/>
<path d="M95.1432 145.168H92.0054V189.921H95.1432V145.168Z" fill="#F0F0F0"/>
<path d="M80.0051 139.612H44.8687V145.162H80.0051V139.612Z" fill="#E6E6E6"/>
<path d="M211.027 14.1865H75.1157V89.8533H211.027V14.1865Z" fill="#E0E0E0"/>
<path d="M218.492 14.1865H75.8003V89.8533H218.492V14.1865Z" fill="#F5F5F5"/>
<path d="M216.159 87.5217V16.5181L78.1303 16.5181V87.5217L216.159 87.5217Z" fill="white"/>
<path d="M134.02 87.5221L160.08 16.5186H117.073L91.0132 87.5221H134.02Z" fill="#F5F5F5"/>
<path d="M175.415 87.5221L201.474 16.5186H169.029L142.97 87.5221H175.415Z" fill="#F5F5F5"/>
<path d="M254.104 117.653H242.55V189.921H254.104V117.653Z" fill="#E6E6E6"/>
<path d="M251.065 189.921H254.104V184.353H247.88L251.065 189.921Z" fill="#FAFAFA"/>
<path d="M147.587 117.653H136.033V189.921H147.587V117.653Z" fill="#E6E6E6"/>
<path d="M254.104 117.653H144.931V188.419H254.104V117.653Z" fill="#FAFAFA"/>
<path d="M252.039 140.488H147.001V120.501H252.039V140.488ZM147.581 139.908H251.459V121.081H147.581V139.908Z" fill="#E6E6E6"/>
<path d="M233.549 130.204H167.527C164.459 130.204 161.507 127.733 159.431 123.418L159.228 123H241.837L241.634 123.418C239.563 127.727 236.611 130.204 233.549 130.204ZM160.161 123.58C162.122 127.426 164.79 129.624 167.527 129.624H233.543C236.281 129.624 238.949 127.432 240.915 123.58H160.161Z" fill="#E6E6E6"/>
<path d="M147.97 189.921H144.931V184.353H151.154L147.97 189.921Z" fill="#FAFAFA"/>
<path d="M252.039 163.026H147.001V143.04H252.039V163.026ZM147.581 162.446H251.459V143.62H147.581V162.446Z" fill="#E6E6E6"/>
<path d="M233.549 152.743H167.527C164.459 152.743 161.507 150.272 159.431 145.957L159.228 145.539H241.837L241.634 145.957C239.563 150.272 236.611 152.743 233.549 152.743ZM160.161 146.125C162.122 149.97 164.79 152.163 167.527 152.163H233.543C236.281 152.163 238.949 149.97 240.915 146.125H160.161Z" fill="#E6E6E6"/>
<path d="M252.039 185.571H147.001V165.584H252.039V185.571ZM147.581 184.991H251.459V166.164H147.581V184.991Z" fill="#E6E6E6"/>
<path d="M233.549 175.288H167.527C164.459 175.288 161.507 172.817 159.431 168.502L159.228 168.084H241.837L241.634 168.502C239.563 172.817 236.611 175.288 233.549 175.288ZM160.161 168.67C162.122 172.515 164.79 174.713 167.527 174.713H233.543C236.281 174.713 238.949 172.521 240.915 168.67H160.161Z" fill="#E6E6E6"/>
<path d="M70.1686 127.211V128.615H69.2696L68.533 139.612H57.6058L56.8692 128.615H55.9702V127.211H70.1686Z" fill="#E6E6E6"/>
<path d="M66.5722 99.9105C65.6732 93.3565 56.834 91.489 45.611 91.2454C34.9332 91.0192 31.5112 87.2375 31.5112 87.2375C31.5112 87.2375 31.546 102.538 46.9334 108.077C61.5436 113.338 67.4712 106.476 66.5722 99.9105Z" fill="#E6E6E6"/>
<path d="M61.1207 114.765C61.3063 112.068 65.6099 107.115 75.9629 109.371C83.4449 111.001 86.2289 107.12 86.2289 107.12C86.2289 107.12 85.5387 118.071 74.2809 121.365C63.5915 124.486 60.7901 119.503 61.1207 114.765Z" fill="#E6E6E6"/>
<path d="M63.4809 131.341C63.5969 131.341 63.7071 131.295 63.7883 131.202C64.5365 130.314 63.9275 128.191 63.0749 125.251C61.9845 121.481 60.6273 116.783 61.7757 113.378C62.4253 111.453 63.2257 109.759 64.0029 108.118C65.6269 104.684 67.0305 101.715 65.8589 98.6173C65.7835 98.4085 65.5515 98.3099 65.3427 98.3853C65.1339 98.4607 65.0353 98.6927 65.1107 98.9015C66.1605 101.686 64.8903 104.371 63.2779 107.781C62.5297 109.365 61.6771 111.163 61.0159 113.129C59.7863 116.777 61.1841 121.603 62.3035 125.483C62.9647 127.768 63.6491 130.134 63.1735 130.697C63.0285 130.865 63.0517 131.115 63.2199 131.26C63.3011 131.312 63.3881 131.341 63.4809 131.341Z" fill="#E6E6E6"/>
</g>
<path d="M182.867 175.567H100.507L96 43.1125H178.36L182.867 175.567Z" fill="#407BFF"/>
<path d="M186.979 171.455H104.619L100.106 39H182.466L186.979 171.455Z" fill="#407BFF"/>
<path opacity="0.3" d="M186.979 171.455H104.619L100.106 39H182.466L186.979 171.455Z" fill="white"/>
<path d="M159.388 93.5138C168.207 84.5436 167.833 69.8748 158.552 60.7501C149.272 51.6254 134.598 51.5002 125.779 60.4704C116.96 69.4406 117.334 84.1094 126.615 93.2341C135.896 102.359 150.569 102.484 159.388 93.5138Z" fill="#407BFF"/>
<path d="M161.702 76.99C161.812 80.2902 161.081 83.3932 159.701 86.096C156.679 92.0526 150.502 96.1068 143.235 96.1068C135.967 96.1068 129.512 92.0526 126.084 86.096C124.518 83.3932 123.578 80.2902 123.462 76.99C123.103 66.4282 131.368 57.8674 141.93 57.8674C152.491 57.8674 161.342 66.4282 161.702 76.99Z" fill="white"/>
<path opacity="0.6" d="M159.701 86.0961C156.679 92.0527 150.502 96.1069 143.235 96.1069C135.968 96.1069 129.512 92.0527 126.084 86.0961C130.788 82.8829 136.501 81.0037 142.719 81.0037C148.936 81.0037 154.777 82.8771 159.701 86.0961Z" fill="#407BFF"/>
<path opacity="0.6" d="M148.543 76.5215C151.786 73.2231 151.648 67.8292 148.235 64.474C144.823 61.1187 139.427 61.0727 136.184 64.3711C132.941 67.6696 133.079 73.0635 136.492 76.4187C139.904 79.7739 145.3 79.8199 148.543 76.5215Z" fill="#407BFF"/>
<path d="M170.431 123.489H117.895L117.541 113.049H170.077L170.431 123.489Z" fill="white"/>
<path d="M171.069 142.148H118.527L118.173 131.708H170.716L171.069 142.148Z" fill="white"/>
<path d="M150.793 133.146L138.131 134.868C137.609 134.938 137.267 135.414 137.366 135.918L139.03 144.404C139.129 144.908 139.633 145.268 140.155 145.192L152.817 143.47C153.339 143.4 153.681 142.93 153.582 142.42L151.918 133.935C151.819 133.43 151.309 133.07 150.793 133.146ZM147.156 141.736L144.865 142.049L144.633 139.311C144.146 139.097 143.792 138.662 143.693 138.151C143.531 137.322 144.094 136.55 144.94 136.44C145.787 136.324 146.611 136.904 146.773 137.734C146.872 138.244 146.704 138.749 146.321 139.079L147.156 141.736Z" fill="#407BFF"/>
<path d="M149.54 132.688C149.076 132.751 148.629 132.438 148.542 131.986L148.38 131.156C147.933 128.871 145.747 127.143 143.38 127.352C140.851 127.572 139.158 129.805 139.628 132.218L139.813 133.169C139.9 133.621 139.599 134.039 139.135 134.097C138.671 134.161 138.224 133.848 138.137 133.395L137.98 132.583C137.354 129.399 139.361 126.337 142.603 125.768C146.013 125.177 149.377 127.473 150.027 130.791L150.213 131.742C150.305 132.206 150.004 132.624 149.54 132.688Z" fill="#407BFF"/>
<path d="M162.398 156.769H128.196L127.964 149.972H162.166L162.398 156.769Z" fill="#407BFF"/>
<path d="M145.897 118.269C145.932 119.324 145.108 120.177 144.053 120.177C142.997 120.177 142.115 119.324 142.081 118.269C142.046 117.213 142.869 116.361 143.925 116.361C144.981 116.361 145.862 117.213 145.897 118.269Z" fill="#263238"/>
<path d="M137.673 118.269C137.708 119.324 136.884 120.177 135.829 120.177C134.773 120.177 133.891 119.324 133.857 118.269C133.822 117.213 134.645 116.361 135.701 116.361C136.757 116.361 137.638 117.213 137.673 118.269Z" fill="#263238"/>
<path d="M129.455 118.269C129.489 119.324 128.666 120.177 127.61 120.177C126.555 120.177 125.673 119.324 125.638 118.269C125.603 117.213 126.427 116.361 127.483 116.361C128.538 116.361 129.42 117.213 129.455 118.269Z" fill="#263238"/>
<path d="M154.116 118.269C154.151 119.324 153.327 120.177 152.271 120.177C151.216 120.177 150.334 119.324 150.299 118.269C150.265 117.213 151.088 116.361 152.144 116.361C153.199 116.361 154.081 117.213 154.116 118.269Z" fill="#263238"/>
<path d="M162.335 118.269C162.369 119.324 161.546 120.177 160.49 120.177C159.435 120.177 158.553 119.324 158.518 118.269C158.483 117.213 159.307 116.361 160.363 116.361C161.418 116.361 162.3 117.213 162.335 118.269Z" fill="#263238"/>
</g>
<defs>
<clipPath id="clip0_401_4047">
<rect width="290" height="198.424" fill="white"/>
</clipPath>
</defs>
</svg>
