<svg width="20" height="20" viewBox="0 0 20 20" fill="none" xmlns="http://www.w3.org/2000/svg">
<rect width="20" height="20" rx="10" fill="#E6F0FE"/>
<path d="M15.5 13.5C15.5 13.7652 15.3946 14.0196 15.2071 14.2071C15.0196 14.3946 14.7652 14.5 14.5 14.5H5.5C5.23478 14.5 4.98043 14.3946 4.79289 14.2071C4.60536 14.0196 4.5 13.7652 4.5 13.5V8C4.5 7.73478 4.60536 7.48043 4.79289 7.29289C4.98043 7.10536 5.23478 7 5.5 7H7.5L8.5 5.5H11.5L12.5 7H14.5C14.7652 7 15.0196 7.10536 15.2071 7.29289C15.3946 7.48043 15.5 7.73478 15.5 8V13.5Z" stroke="#0056D2" stroke-linecap="round" stroke-linejoin="round"/>
<path d="M10 12.5C11.1046 12.5 12 11.6046 12 10.5C12 9.39543 11.1046 8.5 10 8.5C8.89543 8.5 8 9.39543 8 10.5C8 11.6046 8.89543 12.5 10 12.5Z" stroke="#0056D2" stroke-linecap="round" stroke-linejoin="round"/>
</svg>
