<svg width="15" height="15" viewBox="0 0 15 15" fill="none" xmlns="http://www.w3.org/2000/svg">
<mask id="mask0_1201_4300" style="mask-type:luminance" maskUnits="userSpaceOnUse" x="0" y="0" width="15" height="15">
<path d="M7.75 14.5C8.63659 14.5011 9.51467 14.3271 10.3338 13.9878C11.1529 13.6485 11.8968 13.1507 12.5229 12.5229C13.1507 11.8968 13.6485 11.1529 13.9878 10.3338C14.3271 9.51467 14.5011 8.63659 14.5 7.75C14.5011 6.86342 14.327 5.98534 13.9878 5.16625C13.6485 4.34715 13.1507 3.60318 12.5229 2.97708C11.8968 2.34934 11.1529 1.85152 10.3338 1.51222C9.51467 1.17293 8.63659 0.998857 7.75 1.00001C6.86342 0.998875 5.98534 1.17296 5.16625 1.51225C4.34715 1.85154 3.60318 2.34935 2.97708 2.97708C2.34935 3.60318 1.85154 4.34715 1.51225 5.16625C1.17296 5.98534 0.998875 6.86342 1.00001 7.75C0.998857 8.63659 1.17293 9.51467 1.51222 10.3338C1.85152 11.1529 2.34934 11.8968 2.97708 12.5229C3.60318 13.1507 4.34715 13.6485 5.16625 13.9878C5.98534 14.327 6.86342 14.5011 7.75 14.5Z" fill="white" stroke="white" stroke-linejoin="round"/>
<path d="M5.05005 7.74961L7.07505 9.77461L11.125 5.72461" stroke="black" stroke-linecap="round" stroke-linejoin="round"/>
</mask>
<g mask="url(#mask0_1201_4300)">
<path d="M-0.350098 -0.349609H15.8499V15.8504H-0.350098V-0.349609Z" fill="white"/>
</g>
</svg>
