<svg width="19" height="19" viewBox="0 0 19 19" fill="none" xmlns="http://www.w3.org/2000/svg">
<path fill-rule="evenodd" clip-rule="evenodd" d="M0 4.43345C0 3.92954 0.200178 3.44626 0.556497 3.08994C0.912816 2.73363 1.39609 2.53345 1.9 2.53345H17.1C17.6039 2.53345 18.0872 2.73363 18.4435 3.08994C18.7998 3.44626 19 3.92954 19 4.43345V14.5668C19 15.0707 18.7998 15.554 18.4435 15.9103C18.0872 16.2666 17.6039 16.4668 17.1 16.4668H1.9C1.39609 16.4668 0.912816 16.2666 0.556497 15.9103C0.200178 15.554 0 15.0707 0 14.5668L0 4.43345ZM3.8 7.60011C3.8 6.92823 4.0669 6.28387 4.542 5.80878C5.01709 5.33368 5.66145 5.06678 6.33333 5.06678C7.00522 5.06678 7.64958 5.33368 8.12467 5.80878C8.59976 6.28387 8.86667 6.92823 8.86667 7.60011C8.86667 8.272 8.59976 8.91636 8.12467 9.39145C7.64958 9.86654 7.00522 10.1334 6.33333 10.1334C5.66145 10.1334 5.01709 9.86654 4.542 9.39145C4.0669 8.91636 3.8 8.272 3.8 7.60011ZM15.2 7.60011H11.4V6.33345H15.2V7.60011ZM15.2 11.4001H11.4V10.1334H15.2V11.4001ZM6.33333 11.4001C5.6448 11.4001 4.96986 11.5918 4.38416 11.9538C3.79846 12.3158 3.32512 12.8337 3.0172 13.4496L2.5992 14.283C2.55077 14.3797 2.52788 14.4871 2.53272 14.5951C2.53756 14.7031 2.56997 14.8081 2.62686 14.9C2.68374 14.992 2.76321 15.0678 2.8577 15.1203C2.95219 15.1729 3.05856 15.2003 3.16667 15.2001H9.5C9.608 15.2001 9.71421 15.1725 9.80853 15.1199C9.90284 15.0673 9.98214 14.9914 10.0389 14.8995C10.0956 14.8076 10.1279 14.7027 10.1327 14.5948C10.1375 14.4869 10.1146 14.3796 10.0662 14.283L9.64947 13.4496C9.34154 12.8337 8.86821 12.3158 8.28251 11.9538C7.6968 11.5918 7.02187 11.4001 6.33333 11.4001Z" fill="#030405"/>
</svg>
