<svg width="23" height="23" viewBox="0 0 23 23" fill="none" xmlns="http://www.w3.org/2000/svg">
<path d="M5.03125 10.7812H3.59375C3.02188 10.7812 2.47343 11.0084 2.06905 11.4128C1.66468 11.8172 1.4375 12.3656 1.4375 12.9375V20.125C1.4375 20.3156 1.51323 20.4984 1.64802 20.6332C1.78281 20.768 1.96563 20.8438 2.15625 20.8438H5.03125V10.7812Z" fill="black"/>
<path d="M12.2188 13.6562H10.7812V20.8438H12.2188V13.6562Z" fill="black"/>
<path d="M16.5312 10.7814V5.03144C16.5306 4.91306 16.5008 4.79666 16.4444 4.69259C16.3879 4.58852 16.3067 4.49999 16.2078 4.43488L11.8953 1.55988C11.778 1.4826 11.6405 1.44141 11.5 1.44141C11.3595 1.44141 11.222 1.4826 11.1047 1.55988L6.79219 4.43488C6.69332 4.49999 6.61206 4.58852 6.55563 4.69259C6.49921 4.79666 6.46936 4.91306 6.46875 5.03144V20.8439H9.34375V12.9377C9.34375 12.7471 9.41948 12.5643 9.55427 12.4295C9.68906 12.2947 9.87188 12.2189 10.0625 12.2189H12.9375C13.1281 12.2189 13.3109 12.2947 13.4457 12.4295C13.5805 12.5643 13.6562 12.7471 13.6562 12.9377V20.8439H16.5312V10.7814ZM12.9375 10.0627H10.0625C9.87188 10.0627 9.68906 9.98697 9.55427 9.85218C9.41948 9.71739 9.34375 9.53457 9.34375 9.34394C9.34375 9.15332 9.41948 8.9705 9.55427 8.83571C9.68906 8.70092 9.87188 8.62519 10.0625 8.62519H12.9375C13.1281 8.62519 13.3109 8.70092 13.4457 8.83571C13.5805 8.9705 13.6562 9.15332 13.6562 9.34394C13.6562 9.53457 13.5805 9.71739 13.4457 9.85218C13.3109 9.98697 13.1281 10.0627 12.9375 10.0627ZM12.9375 7.18769H10.0625C9.87188 7.18769 9.68906 7.11197 9.55427 6.97718C9.41948 6.84239 9.34375 6.65957 9.34375 6.46894C9.34375 6.27832 9.41948 6.0955 9.55427 5.96071C9.68906 5.82592 9.87188 5.75019 10.0625 5.75019H12.9375C13.1281 5.75019 13.3109 5.82592 13.4457 5.96071C13.5805 6.0955 13.6562 6.27832 13.6562 6.46894C13.6562 6.65957 13.5805 6.84239 13.4457 6.97718C13.3109 7.11197 13.1281 7.18769 12.9375 7.18769Z" fill="black"/>
<path d="M19.4062 10.7812H17.9688V20.8438H20.8438C21.0344 20.8438 21.2172 20.768 21.352 20.6332C21.4868 20.4984 21.5625 20.3156 21.5625 20.125V12.9375C21.5625 12.3656 21.3353 11.8172 20.9309 11.4128C20.5266 11.0084 19.9781 10.7812 19.4062 10.7812Z" fill="black"/>
</svg>
