<svg width="191" height="183" viewBox="0 0 191 183" fill="none" xmlns="http://www.w3.org/2000/svg">
<circle cx="95.5309" cy="91.4999" r="85.8568" fill="#E6F0FE"/>
<g clip-path="url(#clip0_535_6367)">
<path d="M134.957 3.34106H55.627C51.1971 3.34106 47.6025 6.99665 47.6025 11.5157V174.825C47.6025 179.335 51.1971 183 55.627 183H134.957C139.391 183 142.99 179.335 142.99 174.825V11.5157C142.99 6.99665 139.391 3.34106 134.957 3.34106ZM137.974 169.776C137.974 174.074 134.755 177.552 130.785 177.552H59.8129C55.8335 177.552 52.6143 174.074 52.6143 169.776V17.7053C52.6143 8.9488 55.8335 8.52177 59.8129 8.52177H74.027C74.8529 8.52177 75.5286 9.4603 75.5286 10.6241V11.1262C75.5286 13.8526 77.0209 13.862 78.8557 13.862H111.733C113.581 13.862 115.06 13.8526 115.06 11.1262V10.6241C115.06 9.4603 115.726 8.52177 116.566 8.52177H130.785C134.755 8.52177 137.974 9.68555 137.974 17.7053V169.776Z" fill="#263238"/>
<path d="M99.7802 10.4554H90.8125C90.5075 10.4554 90.2588 10.2067 90.2588 9.90164C90.2588 9.59661 90.5075 9.3479 90.8125 9.3479H99.7802C100.085 9.3479 100.334 9.59661 100.334 9.90164C100.334 10.2067 100.085 10.4554 99.7802 10.4554Z" fill="white"/>
<path d="M137.979 17.7055V169.776C137.979 174.075 134.759 177.552 130.789 177.552H59.8175C55.8381 177.552 52.6189 174.075 52.6189 169.776V17.7055C52.6189 8.94901 55.8381 8.52197 59.8175 8.52197H74.0315C74.8575 8.52197 75.5332 9.46051 75.5332 10.6243V11.1264C75.5332 13.8528 77.0255 13.8622 78.8603 13.8622H111.737C113.586 13.8622 115.064 13.8528 115.064 11.1264V10.6243C115.064 9.46051 115.731 8.52197 116.571 8.52197H130.789C134.759 8.52197 137.979 9.68575 137.979 17.7055Z" fill="white"/>
<path d="M61.2578 23.5104L58.7332 21.15L61.2578 18.7849L61.6473 19.2026L59.5684 21.15L61.6473 23.0975L61.2578 23.5104Z" fill="#C7C7C7"/>
<path d="M131.366 19.6769C131.366 19.949 131.146 20.1743 130.869 20.1743C130.592 20.1743 130.371 19.9537 130.371 19.6769C130.371 19.4 130.592 19.1794 130.869 19.1794C131.146 19.1794 131.366 19.4047 131.366 19.6769Z" fill="#C7C7C7"/>
<path d="M131.366 21.441C131.366 21.7132 131.146 21.9384 130.869 21.9384C130.592 21.9384 130.371 21.7179 130.371 21.441C130.371 21.1689 130.592 20.9436 130.869 20.9436C131.146 20.9436 131.366 21.1689 131.366 21.441Z" fill="#C7C7C7"/>
<path d="M131.366 23.2057C131.366 23.4779 131.146 23.7031 130.869 23.7031C130.592 23.7031 130.371 23.4825 130.371 23.2057C130.371 22.9335 130.592 22.7083 130.869 22.7083C131.146 22.7083 131.366 22.9335 131.366 23.2057Z" fill="#C7C7C7"/>
<path d="M71.5772 11.9381C71.5302 11.985 71.4833 12.0272 71.4411 12.0741C71.4129 12.1023 71.3895 12.1258 71.3613 12.1539C70.9906 11.7973 70.5542 11.6049 70.038 11.6049C69.5218 11.6049 69.0854 11.7973 68.7146 12.1539C68.6912 12.1305 68.6677 12.1023 68.6396 12.0788C68.5926 12.0319 68.5504 11.9897 68.5035 11.9428H68.4988C68.4988 11.9428 68.4988 11.9428 68.4988 11.9381C68.5035 11.9334 68.5035 11.9334 68.5082 11.9287C68.5645 11.8771 68.6208 11.8254 68.6818 11.7738C68.8038 11.6706 68.9399 11.5861 69.0854 11.5157C69.2543 11.4313 69.4326 11.3702 69.6156 11.3374C69.7048 11.3233 69.794 11.3139 69.8831 11.2999C69.9113 11.2952 70.1084 11.2952 70.1177 11.2952C70.1788 11.2999 70.2398 11.3046 70.3008 11.3092C70.4697 11.328 70.6293 11.3656 70.7888 11.4266C70.9014 11.4688 71.0141 11.5204 71.1173 11.5814C71.2299 11.6471 71.3332 11.7175 71.4317 11.802C71.4833 11.8442 71.5302 11.8911 71.5772 11.9381C71.5772 11.9334 71.5772 11.9334 71.5772 11.9381Z" fill="#C7C7C7"/>
<path d="M69.1512 12.581C69.0808 12.5106 69.0057 12.4403 68.9353 12.3652C69.184 12.1212 69.475 11.9663 69.8175 11.9241C70.329 11.8537 70.7701 12.0085 71.1456 12.3652C71.0705 12.4403 71.0001 12.5106 70.9297 12.581C70.6857 12.3417 70.39 12.215 70.0428 12.215C69.6908 12.215 69.3952 12.3417 69.1512 12.581Z" fill="#C7C7C7"/>
<path d="M70.7093 12.8017C70.6389 12.8721 70.5638 12.9472 70.4934 13.0175C70.3667 12.8955 70.2166 12.8298 70.0382 12.8298C69.8599 12.8298 69.7097 12.8955 69.583 13.0175C69.5127 12.9472 69.4376 12.8721 69.3672 12.8017C69.7098 12.4403 70.3292 12.4122 70.7093 12.8017Z" fill="#C7C7C7"/>
<path d="M70.235 13.2098C70.235 13.3177 70.1458 13.4069 70.0379 13.4069C69.93 13.4069 69.8408 13.3177 69.8408 13.2098C69.8408 13.1019 69.93 13.0127 70.0379 13.0127C70.1458 13.0174 70.235 13.1019 70.235 13.2098Z" fill="#C7C7C7"/>
<path d="M58.1838 12.351C58.1838 12.0366 58.4372 11.7832 58.7517 11.7832C59.0661 11.7832 59.3195 12.0366 59.3195 12.351C59.3195 12.6654 59.0661 12.9188 58.7517 12.9188C58.4372 12.9188 58.1838 12.6654 58.1838 12.351Z" fill="#C7C7C7"/>
<path d="M59.9629 12.351C59.9629 12.0366 60.2163 11.7832 60.5307 11.7832C60.8451 11.7832 61.0985 12.0366 61.0985 12.351C61.0985 12.6654 60.8451 12.9188 60.5307 12.9188C60.2163 12.9188 59.9629 12.6654 59.9629 12.351Z" fill="#C7C7C7"/>
<path d="M61.7458 12.351C61.7458 12.0366 61.9992 11.7832 62.3137 11.7832C62.6281 11.7832 62.8815 12.0366 62.8815 12.351C62.8815 12.6654 62.6281 12.9188 62.3137 12.9188C61.9992 12.9188 61.7458 12.6654 61.7458 12.351Z" fill="#C7C7C7"/>
<path d="M63.5291 12.351C63.5291 12.0366 63.7825 11.7832 64.0969 11.7832C64.4113 11.7832 64.6647 12.0366 64.6647 12.351C64.6647 12.6654 64.4113 12.9188 64.0969 12.9188C63.7825 12.9188 63.5291 12.6654 63.5291 12.351Z" fill="#C7C7C7"/>
<path d="M65.3076 12.351C65.3076 12.0366 65.561 11.7832 65.8754 11.7832C66.1898 11.7832 66.4432 12.0366 66.4432 12.351C66.4432 12.6654 66.1898 12.9188 65.8754 12.9188C65.561 12.9188 65.3076 12.6654 65.3076 12.351Z" fill="#C7C7C7"/>
<path d="M131.577 13.5901H126.964V11.4502H131.577V13.5901ZM127.204 13.3507H131.333V11.6942H127.204V13.3507Z" fill="#C7C7C7"/>
<path d="M130.32 11.8159H127.349V13.2237H130.32V11.8159Z" fill="#C7C7C7"/>
<path d="M131.986 11.9478H131.578V13.0881H131.986V11.9478Z" fill="#C7C7C7"/>
<path d="M65.5885 168.256H64.9363V171.235H63.7256V169.715H61.5763V171.235H60.3656V168.256H59.718L62.6509 165.219L65.5885 168.256Z" fill="#EBEBEB"/>
<path d="M130.883 165.219H123.806V166.228H130.883V165.219Z" fill="#EBEBEB"/>
<path d="M130.883 167.721H123.806V168.73H130.883V167.721Z" fill="#EBEBEB"/>
<path d="M130.883 170.222H123.806V171.231H130.883V170.222Z" fill="#EBEBEB"/>
<path d="M97.3115 167.829L95.2983 169.973L93.2852 167.829L93.6418 167.495L95.2983 169.26L96.9548 167.495L97.3115 167.829Z" fill="#EBEBEB"/>
<path d="M95.2977 172.193C93.2845 172.193 91.6421 170.555 91.6421 168.537C91.6421 166.524 93.2798 164.882 95.2977 164.882C97.3108 164.882 98.9533 166.519 98.9533 168.537C98.9533 170.55 97.3108 172.193 95.2977 172.193ZM95.2977 165.365C93.5473 165.365 92.1254 166.787 92.1254 168.537C92.1254 170.288 93.5473 171.709 95.2977 171.709C97.048 171.709 98.4699 170.288 98.4699 168.537C98.4699 166.787 97.048 165.365 95.2977 165.365Z" fill="#EBEBEB"/>
<path d="M89.8403 155.402C89.8403 156.078 89.2913 156.623 88.6202 156.623C87.9492 156.623 87.4001 156.074 87.4001 155.402C87.4001 154.727 87.9492 154.182 88.6202 154.182C89.2913 154.182 89.8403 154.727 89.8403 155.402Z" fill="#DBDBDB"/>
<path d="M97.2784 155.403C97.2784 156.421 96.4525 157.252 95.4295 157.252C94.4112 157.252 93.5806 156.426 93.5806 155.403C93.5806 154.384 94.4065 153.554 95.4295 153.554C96.4478 153.554 97.2784 154.38 97.2784 155.403Z" fill="#0056D2"/>
<path d="M103.458 155.402C103.458 156.078 102.909 156.623 102.238 156.623C101.563 156.623 101.018 156.074 101.018 155.402C101.018 154.727 101.567 154.182 102.238 154.182C102.914 154.182 103.458 154.727 103.458 155.402Z" fill="#DBDBDB"/>
<path d="M111.502 121.409H78.5688V131.883H111.502V121.409Z" fill="#0056D2"/>
<path d="M87.7661 128.115V125.275C87.7661 125.13 87.8834 125.013 88.0289 125.013C88.1791 125.013 88.2964 125.135 88.2964 125.275V127.842H89.6009C89.7417 127.842 89.8637 127.964 89.8637 128.11C89.8637 128.255 89.737 128.373 89.6009 128.373H88.043C88.0336 128.373 88.0336 128.373 88.0336 128.373C88.0289 128.373 88.0289 128.373 88.0289 128.373C87.8787 128.377 87.7661 128.255 87.7661 128.115Z" fill="white"/>
<path d="M92.9326 125.431C93.233 125.75 93.416 126.172 93.416 126.646C93.416 127.12 93.2283 127.552 92.9326 127.861C92.6511 128.176 92.224 128.377 91.7829 128.377C91.323 128.377 90.896 128.176 90.6051 127.861C90.3047 127.547 90.1311 127.12 90.1311 126.646C90.1311 126.172 90.3094 125.745 90.6051 125.431C90.896 125.111 91.323 124.914 91.7829 124.914C92.2287 124.914 92.6511 125.111 92.9326 125.431ZM92.8716 126.646C92.8716 126.317 92.7402 126.017 92.5431 125.806C92.3414 125.59 92.0739 125.463 91.7829 125.463C91.4732 125.463 91.2057 125.59 91.0039 125.806C90.8021 126.017 90.6754 126.322 90.6754 126.646C90.6754 126.974 90.8021 127.275 91.0039 127.481C91.2057 127.697 91.4732 127.828 91.7829 127.828C92.0739 127.828 92.3414 127.697 92.5431 127.481C92.7402 127.275 92.8716 126.974 92.8716 126.646Z" fill="white"/>
<path d="M94.2185 126.651C94.2185 125.684 95.0163 124.914 95.9923 124.914C96.4006 124.914 96.7901 125.055 97.0904 125.29C97.2171 125.379 97.2359 125.557 97.142 125.679C97.0482 125.797 96.8746 125.82 96.7525 125.721C96.5461 125.562 96.2833 125.463 95.9923 125.463C95.6451 125.463 95.3447 125.595 95.1289 125.815C94.9036 126.031 94.7675 126.327 94.7675 126.651C94.7675 126.97 94.9036 127.261 95.1289 127.476C95.3447 127.697 95.6498 127.828 95.9923 127.828C96.2317 127.828 96.4569 127.758 96.6493 127.645V126.988H95.9595C95.8093 126.988 95.6873 126.862 95.6873 126.716C95.6873 126.561 95.814 126.449 95.9595 126.449H96.9074C96.9121 126.449 96.9121 126.449 96.9121 126.449C96.9168 126.449 96.9168 126.449 96.9168 126.449C97.0716 126.449 97.1937 126.566 97.1937 126.716V127.777C97.1937 127.81 97.1843 127.828 97.1796 127.857C97.1749 127.866 97.1749 127.871 97.1702 127.88V127.885C97.1561 127.927 97.128 127.965 97.081 128.002C96.776 128.237 96.3959 128.377 95.9876 128.377C95.021 128.377 94.2185 127.613 94.2185 126.651Z" fill="white"/>
<path d="M98.3203 125.275C98.3203 125.125 98.4376 125.013 98.5831 125.013C98.7286 125.013 98.8506 125.13 98.8506 125.275V128.115C98.8506 128.265 98.7239 128.377 98.5831 128.377C98.4329 128.377 98.3203 128.26 98.3203 128.115V125.275Z" fill="white"/>
<path d="M100.282 128.115C100.282 128.26 100.16 128.378 100.024 128.378C99.8735 128.378 99.7609 128.256 99.7609 128.115V125.323C99.7609 125.323 99.7609 125.323 99.7609 125.318C99.7562 125.233 99.7937 125.149 99.8688 125.097C99.9908 125.018 100.15 125.041 100.235 125.154L101.788 127.303V125.323C101.788 125.182 101.905 125.065 102.046 125.065C102.192 125.065 102.309 125.187 102.309 125.323V128.115C102.309 128.26 102.187 128.378 102.046 128.378C101.971 128.378 101.896 128.34 101.849 128.279C101.84 128.27 101.83 128.26 101.826 128.251L100.286 126.116V128.115H100.282Z" fill="white"/>
<path d="M103.256 40.329V43.7594H100.83V40.329C100.83 37.0629 98.3479 34.4069 95.2976 34.4069C92.2474 34.4069 89.765 37.0629 89.765 40.329V48.9166H87.3389V40.329C87.3389 35.6504 90.91 31.8494 95.2976 31.8494C99.6853 31.8494 103.256 35.6551 103.256 40.329Z" fill="#C7C7C7"/>
<path d="M87.3389 43.7686L89.765 43.8671V48.9164H87.3389V43.7686Z" fill="#A6A6A6"/>
<path d="M106.368 46.0398H84.2278V66.1244H106.368V46.0398Z" fill="#EFBA00"/>
<path opacity="0.1" d="M106.368 46.0398H95.2981V66.1244H106.368V46.0398Z" fill="black"/>
<path d="M96.2316 56.8191L97.1561 61.2161H93.2236L94.1481 56.8191C93.5944 56.4671 93.2236 55.8571 93.2236 55.1579C93.2236 54.0598 94.1059 53.1917 95.1899 53.1917C96.2739 53.1917 97.1561 54.0598 97.1561 55.1579C97.1608 55.8571 96.7854 56.4671 96.2316 56.8191Z" fill="#263238"/>
<path d="M123.811 88.2878H66.79V98.0486H123.811V88.2878Z" fill="white"/>
<path d="M124.041 98.2832H66.5554V88.0532H124.045V98.2832H124.041ZM67.0247 97.814H123.576V88.5225H67.0247V97.814Z" fill="#EBEBEB"/>
<path d="M72.7075 90.9814H72.2383V95.1532H72.7075V90.9814Z" fill="#37474F"/>
<path d="M74.5609 92.8306H70.3892V93.2998H74.5609V92.8306Z" fill="#37474F"/>
<path d="M73.7895 91.4245L70.8384 94.3735L71.1701 94.7055L74.1212 91.7565L73.7895 91.4245Z" fill="#37474F"/>
<path d="M71.1629 91.4253L70.8311 91.7571L73.7809 94.7069L74.1127 94.3751L71.1629 91.4253Z" fill="#37474F"/>
<path d="M79.7837 90.9812H79.3145V95.153H79.7837V90.9812Z" fill="#37474F"/>
<path d="M81.6369 92.8306H77.4651V93.2998H81.6369V92.8306Z" fill="#37474F"/>
<path d="M80.8657 91.4245L77.9146 94.3735L78.2463 94.7055L81.1974 91.7565L80.8657 91.4245Z" fill="#37474F"/>
<path d="M78.2393 91.4218L77.9075 91.7537L80.8573 94.7035L81.1892 94.3717L78.2393 91.4218Z" fill="#37474F"/>
<path d="M86.8606 90.9814H86.3914V95.1532H86.8606V90.9814Z" fill="#37474F"/>
<path d="M88.7138 92.8306H84.542V93.2998H88.7138V92.8306Z" fill="#37474F"/>
<path d="M87.9343 91.4247L84.9836 94.3738L85.3154 94.7057L88.2661 91.7567L87.9343 91.4247Z" fill="#37474F"/>
<path d="M85.3164 91.4226L84.9846 91.7544L87.9345 94.7043L88.2663 94.3724L85.3164 91.4226Z" fill="#37474F"/>
<path d="M93.9422 90.9814H93.4729V95.1532H93.9422V90.9814Z" fill="#37474F"/>
<path d="M95.7912 92.8306H91.6194V93.2998H95.7912V92.8306Z" fill="#37474F"/>
<path d="M95.0214 91.4255L92.0703 94.3745L92.402 94.7065L95.3532 91.7574L95.0214 91.4255Z" fill="#37474F"/>
<path d="M92.3968 91.424L92.0649 91.7559L95.0148 94.7057L95.3466 94.3739L92.3968 91.424Z" fill="#37474F"/>
<path d="M101.018 90.9812H100.549V95.153H101.018V90.9812Z" fill="#37474F"/>
<path d="M102.867 92.8306H98.6948V93.2998H102.867V92.8306Z" fill="#37474F"/>
<path d="M102.098 91.4255L99.1467 94.3745L99.4785 94.7065L102.43 91.7574L102.098 91.4255Z" fill="#37474F"/>
<path d="M99.4727 91.4204L99.1409 91.7522L102.091 94.7021L102.423 94.3702L99.4727 91.4204Z" fill="#37474F"/>
<path d="M108.094 90.9814H107.625V95.1532H108.094V90.9814Z" fill="#37474F"/>
<path d="M109.948 92.8306H105.777V93.2998H109.948V92.8306Z" fill="#37474F"/>
<path d="M109.164 91.4267L106.213 94.3757L106.545 94.7076L109.496 91.7586L109.164 91.4267Z" fill="#37474F"/>
<path d="M106.548 91.4206L106.217 91.7524L109.166 94.7023L109.498 94.3705L106.548 91.4206Z" fill="#37474F"/>
<path d="M118.939 94.6749C117.367 94.6749 116.386 93.3374 116.344 93.2811L116.245 93.145L116.344 93.009C116.386 92.9526 117.367 91.6152 118.939 91.6152C120.511 91.6152 121.492 92.9526 121.529 93.009L121.628 93.145L121.529 93.2811C121.487 93.3421 120.511 94.6749 118.939 94.6749ZM116.837 93.145C117.114 93.4595 117.888 94.2056 118.939 94.2056C119.99 94.2056 120.76 93.4595 121.037 93.145C120.76 92.8306 119.99 92.0845 118.939 92.0845C117.883 92.0845 117.114 92.8306 116.837 93.145Z" fill="#EBEBEB"/>
<path d="M118.934 94.2006C119.517 94.2006 119.99 93.7278 119.99 93.1447C119.99 92.5616 119.517 92.0889 118.934 92.0889C118.351 92.0889 117.878 92.5616 117.878 93.1447C117.878 93.7278 118.351 94.2006 118.934 94.2006Z" fill="#EBEBEB"/>
<path d="M120.684 91.0248L116.935 94.7749L117.266 95.1067L121.016 91.3566L120.684 91.0248Z" fill="#EBEBEB"/>
<path d="M79.967 78.1235H79.2209V79.4421C79.2209 79.6251 79.0707 79.7753 78.8783 79.7753C78.6953 79.7753 78.5452 79.6251 78.5452 79.4421V75.8522C78.5452 75.6645 78.6953 75.519 78.8783 75.519H78.883H79.967C80.6897 75.519 81.2763 76.1009 81.2763 76.8283C81.2763 77.5369 80.6897 78.1235 79.967 78.1235ZM79.2162 77.4477H79.9623C80.3143 77.4477 80.5912 77.1662 80.5959 76.8283C80.5912 76.4764 80.3143 76.1948 79.9623 76.1948H79.2162V77.4477Z" fill="#0056D2"/>
<path d="M83.8382 78.7712H82.36L82.0643 79.5643C82.008 79.7004 81.8813 79.7755 81.7499 79.7755C81.7077 79.7755 81.6702 79.7708 81.6326 79.7567C81.4543 79.691 81.3698 79.4939 81.4308 79.3203L82.7776 75.7351C82.8339 75.599 82.9653 75.5145 83.1014 75.5239C83.2422 75.5192 83.3689 75.6037 83.4252 75.7351L84.772 79.3203C84.833 79.4986 84.7485 79.691 84.5702 79.7567C84.5421 79.7708 84.4951 79.7755 84.4529 79.7755C84.3168 79.7755 84.1901 79.6957 84.1432 79.5643L83.8382 78.7712ZM83.5895 78.1049L83.0967 76.7956L82.604 78.1049H83.5895Z" fill="#0056D2"/>
<path d="M85.3587 78.7196C85.4667 78.5835 85.6684 78.5694 85.8045 78.6773C86.072 78.8979 86.5366 79.1513 86.9683 79.1466C87.2733 79.1466 87.5455 79.0574 87.7285 78.9214C87.9115 78.7853 87.9913 78.6351 87.9913 78.4849C87.9913 78.4052 87.9725 78.3489 87.935 78.2925C87.8975 78.2315 87.8458 78.1705 87.752 78.1095C87.5737 77.9922 87.278 77.889 86.9167 77.8233H86.9026C86.6164 77.767 86.3489 77.6966 86.1189 77.584C85.889 77.476 85.6872 77.3212 85.5511 77.11C85.462 76.9645 85.4103 76.7956 85.4103 76.6126C85.4103 76.2465 85.6168 75.9321 85.8984 75.7257C86.1846 75.5192 86.5554 75.4019 86.9495 75.4019C87.5314 75.4019 87.9678 75.6881 88.2776 75.8899C88.4183 75.9884 88.4606 76.1808 88.362 76.3216C88.2729 76.4671 88.0758 76.5093 87.9303 76.4108C87.6206 76.2043 87.3203 76.0213 86.9495 76.0213C86.6774 76.0213 86.4333 76.1058 86.2691 76.2278C86.1049 76.3498 86.0392 76.4812 86.0392 76.6126C86.0392 76.6876 86.0532 76.7346 86.0814 76.7815C86.1096 76.8284 86.1659 76.8847 86.2456 76.9411C86.4052 77.049 86.6774 77.1475 87.0059 77.2085H87.0199C87.3296 77.2695 87.6159 77.3493 87.8599 77.4619C88.1086 77.584 88.3292 77.7435 88.47 77.9687C88.5591 78.1142 88.6154 78.2972 88.6154 78.4849C88.6154 78.8744 88.3949 79.2076 88.0899 79.4282C87.7942 79.6487 87.3953 79.7754 86.9636 79.7754C86.3067 79.7707 85.7529 79.4422 85.4057 79.1654C85.2743 79.0528 85.2555 78.851 85.3587 78.7196Z" fill="#0056D2"/>
<path d="M89.3614 78.7196C89.4694 78.5835 89.6712 78.5694 89.8073 78.6773C90.0747 78.8979 90.5393 79.1513 90.971 79.1466C91.2761 79.1466 91.5482 79.0574 91.7312 78.9214C91.9143 78.7853 91.994 78.6351 91.994 78.4849C91.994 78.4052 91.9753 78.3489 91.9377 78.2925C91.9002 78.2315 91.8486 78.1705 91.7547 78.1095C91.5764 77.9922 91.2807 77.889 90.9194 77.8233H90.9053C90.6191 77.767 90.3516 77.6966 90.1217 77.584C89.8917 77.476 89.6899 77.3212 89.5538 77.11C89.4647 76.9645 89.4131 76.7956 89.4131 76.6126C89.4131 76.2465 89.6195 75.9321 89.9011 75.7257C90.1874 75.5192 90.5581 75.4019 90.9523 75.4019C91.5342 75.4019 91.9706 75.6881 92.2803 75.8899C92.4211 75.9884 92.4633 76.1808 92.3648 76.3216C92.2756 76.4671 92.0785 76.5093 91.933 76.4108C91.6233 76.2043 91.323 76.0213 90.9523 76.0213C90.6801 76.0213 90.4361 76.1058 90.2718 76.2278C90.1076 76.3498 90.0419 76.4812 90.0419 76.6126C90.0419 76.6876 90.056 76.7346 90.0841 76.7815C90.1123 76.8284 90.1686 76.8847 90.2484 76.9411C90.4079 77.049 90.6801 77.1475 91.0086 77.2085H91.0227C91.3324 77.2695 91.6186 77.3493 91.8626 77.4619C92.1113 77.584 92.3319 77.7435 92.4727 77.9687C92.5618 78.1142 92.6182 78.2972 92.6182 78.4849C92.6182 78.8744 92.3976 79.2076 92.0926 79.4282C91.7969 79.6487 91.3981 79.7754 90.9663 79.7754C90.3094 79.7707 89.7556 79.4422 89.4084 79.1654C89.2723 79.0528 89.2582 78.851 89.3614 78.7196Z" fill="#0056D2"/>
<path d="M99.0142 76.0212L97.5219 79.5689C97.5172 79.5877 97.5032 79.6111 97.4891 79.6252L97.4844 79.6299C97.4797 79.644 97.4656 79.6534 97.4562 79.6674C97.4562 79.6815 97.4515 79.6815 97.4515 79.6862C97.4375 79.6909 97.4234 79.705 97.4093 79.7144H97.4046C97.3858 79.7285 97.3765 79.7472 97.3483 79.7519H97.3436C97.3436 79.7519 97.3389 79.7519 97.3389 79.7566C97.3248 79.7566 97.3108 79.7613 97.292 79.7707C97.2873 79.7707 97.2779 79.7707 97.2779 79.7707C97.2591 79.7754 97.2404 79.7754 97.2169 79.7754C97.1981 79.7754 97.1794 79.7754 97.1606 79.7707C97.1465 79.7707 97.1418 79.7707 97.1418 79.7707C97.123 79.766 97.1137 79.7566 97.0996 79.7566C97.0949 79.7519 97.0949 79.7519 97.0855 79.7519C97.062 79.7472 97.0433 79.7285 97.0292 79.7144C97.0245 79.7144 97.0245 79.7144 97.0245 79.7144C97.0057 79.7003 96.9917 79.6909 96.9823 79.6862C96.9776 79.6815 96.9776 79.6815 96.9682 79.6674C96.9635 79.6534 96.9494 79.644 96.9447 79.6299C96.9306 79.6299 96.9307 79.6252 96.9307 79.6252C96.9166 79.6111 96.9119 79.5877 96.9072 79.5689L96.1094 77.6824L95.3117 79.5689C95.307 79.5877 95.2929 79.6111 95.2882 79.6252C95.2835 79.6252 95.2835 79.6299 95.2835 79.6299C95.2694 79.644 95.2601 79.6534 95.246 79.6674C95.246 79.6815 95.2413 79.6815 95.2413 79.6862C95.2272 79.6909 95.2178 79.705 95.2038 79.7144C95.1897 79.7144 95.1897 79.7144 95.1897 79.7144C95.1709 79.7285 95.1521 79.7472 95.1427 79.7519C95.1381 79.7519 95.1381 79.7519 95.1381 79.7519C95.1381 79.7519 95.1334 79.7519 95.1334 79.7566C95.1099 79.7566 95.0958 79.7613 95.0864 79.7707C95.0817 79.7707 95.0724 79.7707 95.0677 79.7707C95.0489 79.7754 95.0301 79.7754 95.0114 79.7754C94.9926 79.7754 94.9691 79.7754 94.9503 79.7707C94.9457 79.7707 94.9363 79.7707 94.9316 79.7707C94.9128 79.766 94.8987 79.7566 94.8893 79.7566C94.8847 79.7519 94.8846 79.7519 94.8753 79.7519C94.8565 79.7472 94.833 79.7285 94.8189 79.7144C94.8143 79.7144 94.8143 79.7144 94.8143 79.7144C94.7955 79.7003 94.7908 79.6909 94.772 79.6862C94.7673 79.6815 94.7673 79.6815 94.7579 79.6674C94.7439 79.6534 94.7392 79.644 94.7298 79.6299V79.6252C94.7157 79.6111 94.711 79.5877 94.6969 79.5689L93.2 76.0212C93.1343 75.857 93.2047 75.6552 93.383 75.5895C93.5472 75.5144 93.749 75.5942 93.8147 75.7678L95.0067 78.5834L95.7903 76.7158C95.8466 76.5797 95.9733 76.5093 96.1047 76.5093C96.2314 76.5093 96.3581 76.5844 96.4192 76.7158L97.2028 78.5834L98.3901 75.7678C98.4652 75.5989 98.6576 75.5191 98.8359 75.5895C99.0048 75.6552 99.0846 75.857 99.0142 76.0212Z" fill="#0056D2"/>
<path d="M103.257 76.0446C103.632 76.4482 103.871 76.9831 103.871 77.5838C103.871 78.1845 103.632 78.7288 103.257 79.123C102.895 79.5172 102.36 79.7753 101.802 79.7753C101.22 79.7753 100.68 79.5219 100.31 79.123C99.9342 78.7288 99.709 78.1845 99.709 77.5838C99.709 76.9831 99.9342 76.4482 100.31 76.0446C100.68 75.641 101.215 75.3923 101.802 75.3923C102.36 75.397 102.9 75.6457 103.257 76.0446ZM103.177 77.5838C103.177 77.1709 103.013 76.7861 102.764 76.5186C102.511 76.2464 102.168 76.0868 101.802 76.0868C101.412 76.0868 101.07 76.2464 100.816 76.5186C100.563 76.7861 100.404 77.1709 100.404 77.5838C100.404 77.9968 100.563 78.3816 100.816 78.6443C101.07 78.9165 101.412 79.0808 101.802 79.0808C102.168 79.0808 102.506 78.9165 102.764 78.6443C103.013 78.3816 103.177 78.0015 103.177 77.5838Z" fill="#0056D2"/>
<path d="M107.889 79.2732C107.95 79.4515 107.851 79.6392 107.677 79.7002C107.654 79.7049 107.602 79.719 107.541 79.719C107.541 79.719 107.541 79.719 107.537 79.719C107.476 79.719 107.387 79.7049 107.297 79.6533C107.218 79.6064 107.152 79.5266 107.105 79.4421C107.021 79.2638 106.978 79.0479 106.978 78.7101C106.974 78.5927 106.95 78.5177 106.903 78.4473C106.866 78.3816 106.795 78.3206 106.72 78.2689C106.593 78.1845 106.434 78.1329 106.378 78.1235H105.66V79.4421C105.66 79.6251 105.509 79.7753 105.317 79.7753C105.129 79.7753 104.984 79.6251 104.984 79.4421V75.8522C104.984 75.6645 105.129 75.519 105.317 75.519C105.317 75.519 105.317 75.519 105.322 75.519H106.406C107.128 75.519 107.706 76.1009 107.706 76.8283C107.706 77.2319 107.523 77.5838 107.232 77.8278C107.311 77.8888 107.382 77.9639 107.443 78.0531C107.565 78.2314 107.645 78.4567 107.645 78.7101C107.64 78.8931 107.659 79.0104 107.668 79.0667C107.776 79.0949 107.856 79.1699 107.889 79.2732ZM107.039 76.8236C107.039 76.4717 106.758 76.1901 106.41 76.1901H105.664V77.443H106.41C106.758 77.4477 107.039 77.1662 107.039 76.8236Z" fill="#0056D2"/>
<path d="M108.879 79.4421V75.8522C108.879 75.6645 109.024 75.519 109.212 75.519H109.93C111.103 75.519 112.056 76.4764 112.056 77.6448C112.056 78.8274 111.108 79.78 109.93 79.78H109.212C109.024 79.7753 108.879 79.6251 108.879 79.4421ZM109.555 79.0996H109.93C110.733 79.0949 111.38 78.4473 111.38 77.6401C111.38 76.8424 110.737 76.1901 109.93 76.1901H109.555V79.0996Z" fill="#0056D2"/>
<path d="M181.672 23.8525C181.672 23.8525 178.091 52.506 172.211 58.9537C165.149 66.6872 160.024 65.5563 157.176 69.545C157.171 69.545 157.171 69.5497 157.171 69.5497C154.318 65.5563 149.194 66.6919 142.131 58.9537C136.251 52.506 132.676 23.8525 132.676 23.8525C148.175 16.3302 157.171 7.89746 157.171 7.89746C157.171 7.89746 157.171 7.89746 157.176 7.90215C157.448 8.16025 166.411 16.4475 181.672 23.8525Z" fill="#37474F"/>
<path d="M157.171 7.90235V69.5452C157.167 69.5452 157.167 69.5499 157.167 69.5499C154.313 65.5565 149.189 66.6921 142.127 58.9539C136.247 52.5062 132.671 23.8527 132.671 23.8527C148.171 16.3304 157.167 7.89766 157.167 7.89766C157.167 7.89766 157.167 7.89296 157.171 7.90235Z" fill="#455A64"/>
<path d="M177.867 26.1617C177.867 26.1617 174.844 50.3665 169.875 55.8147C163.906 62.3563 159.575 61.399 157.163 64.7683C154.755 61.399 150.424 62.361 144.45 55.8147C139.481 50.3665 136.463 26.1617 136.463 26.1617C149.556 19.8032 157.158 12.6797 157.158 12.6797C157.158 12.6797 164.774 19.8032 177.867 26.1617Z" fill="#455A64"/>
<path d="M136.478 26.1614C136.478 26.1614 139.5 50.3615 144.469 55.8144C150.434 62.3513 154.76 61.3987 157.172 64.7586V12.6841C156.942 12.9046 149.368 19.9014 136.478 26.1614Z" fill="#37474F"/>
<path d="M163.957 45.5086C167.704 41.761 167.704 35.6848 163.957 31.9372C160.209 28.1896 154.133 28.1896 150.385 31.9372C146.638 35.6848 146.638 41.761 150.385 45.5086C154.133 49.2562 160.209 49.2562 163.957 45.5086Z" fill="#3384F8"/>
<path d="M156.079 44.9605L151.804 40.5119L153.39 38.9867L155.746 41.4363L160.823 33.6465L162.667 34.8478L156.079 44.9605Z" fill="white"/>
</g>
<defs>
<clipPath id="clip0_535_6367">
<rect width="190.597" height="183" fill="white"/>
</clipPath>
</defs>
</svg>
