<svg width="80" height="80" viewBox="0 0 80 80" fill="none" xmlns="http://www.w3.org/2000/svg">
    <path
        d="M80 41.875C80 44.6719 79.3281 47.2656 77.9844 49.6406C76.6406 52.0156 74.8438 53.875 72.5781 55.1719C72.6406 55.5938 72.6719 56.25 72.6719 57.1406C72.6719 61.375 71.25 64.9688 68.4375 67.9375C65.6094 70.9219 62.2031 72.4062 58.2188 72.4062C56.4375 72.4062 54.7344 72.0781 53.125 71.4219C51.875 73.9844 50.0781 76.0469 47.7188 77.625C45.375 79.2188 42.7969 80 40 80C37.1406 80 34.5469 79.2344 32.2344 77.6719C29.9062 76.125 28.125 74.0469 26.875 71.4219C25.2656 72.0781 23.5781 72.4062 21.7812 72.4062C17.7969 72.4062 14.375 70.9219 11.5156 67.9375C8.65625 64.9688 7.23438 61.3594 7.23438 57.1406C7.23438 56.6719 7.29688 56.0156 7.40625 55.1719C5.14062 53.8594 3.34375 52.0156 2 49.6406C0.671875 47.2656 0 44.6719 0 41.875C0 38.9062 0.75 36.1719 2.23438 33.7031C3.71875 31.2344 5.71875 29.4062 8.21875 28.2188C7.5625 26.4375 7.23438 24.6406 7.23438 22.8594C7.23438 18.6406 8.65625 15.0312 11.5156 12.0625C14.375 9.09375 17.7969 7.59375 21.7812 7.59375C23.5625 7.59375 25.2656 7.92188 26.875 8.57812C28.125 6.01563 29.9219 3.95312 32.2812 2.375C34.625 0.796875 37.2031 0 40 0C42.7969 0 45.375 0.796875 47.7188 2.35938C50.0625 3.9375 51.875 6 53.125 8.5625C54.7344 7.90625 56.4219 7.57812 58.2188 7.57812C62.2031 7.57812 65.6094 9.0625 68.4375 12.0469C71.2656 15.0312 72.6719 18.625 72.6719 22.8438C72.6719 24.8125 72.375 26.5938 71.7812 28.2031C74.2812 29.3906 76.2812 31.2188 77.7656 33.6875C79.25 36.1719 80 38.9062 80 41.875ZM38.2969 53.9219L54.8125 29.1875C55.2344 28.5312 55.3594 27.8125 55.2188 27.0469C55.0625 26.2812 54.6719 25.6719 54.0156 25.2656C53.3594 24.8438 52.6406 24.7031 51.875 24.8125C51.0938 24.9375 50.4688 25.3125 50 25.9688L35.4531 47.8438L28.75 41.1562C28.1562 40.5625 27.4688 40.2812 26.7031 40.3125C25.9219 40.3438 25.25 40.625 24.6562 41.1562C24.125 41.6875 23.8594 42.3594 23.8594 43.1719C23.8594 43.9687 24.125 44.6406 24.6562 45.1875L33.8594 54.3906L34.3125 54.75C34.8438 55.1094 35.3906 55.2812 35.9219 55.2812C36.9688 55.2656 37.7656 54.8281 38.2969 53.9219Z"
        fill="#2187D1" />
</svg>
