<svg width="21" height="21" viewBox="0 0 21 21" fill="none" xmlns="http://www.w3.org/2000/svg">
    <path fill-rule="evenodd" clip-rule="evenodd"
        d="M14.4826 6.23177V3.50177C14.4831 2.78857 14.1933 2.10588 13.68 1.61074C13.1667 1.11559 12.474 0.850617 11.7613 0.876767H8.89132C8.17861 0.850617 7.48593 1.11559 6.97263 1.61074C6.45933 2.10588 6.16959 2.78857 6.17007 3.50177V6.23177C4.35986 6.8728 3.25882 8.70786 3.54507 10.6068L4.37632 15.6555C4.7759 17.6853 6.57817 19.133 8.64632 19.0855H12.0413C14.1095 19.133 15.9117 17.6853 16.3113 15.6555L17.1426 10.6068C17.4246 8.69828 16.3067 6.85974 14.4826 6.23177ZM11.2013 13.0655L11.3851 13.608C11.4656 13.8563 11.4235 14.1281 11.2717 14.3404C11.1198 14.5528 10.8761 14.6803 10.6151 14.6843H9.96757C9.70655 14.6803 9.46289 14.5528 9.311 14.3404C9.1591 14.1281 9.11701 13.8563 9.19757 13.608L9.38132 13.0655C9.4804 12.759 9.40309 12.4229 9.18007 12.1905C8.68425 11.6015 8.73424 10.7278 9.29402 10.1992C9.8538 9.6705 10.7288 9.6705 11.2886 10.1992C11.8484 10.7278 11.8984 11.6015 11.4026 12.1905C11.1796 12.4229 11.1022 12.759 11.2013 13.0655ZM7.48257 5.93427H7.79757V5.94302H13.1701V3.50177C13.1369 2.75595 12.5073 2.17713 11.7613 2.20677H8.89132C8.14536 2.17713 7.5157 2.75595 7.48257 3.50177V5.93427Z"
        fill="black" />
</svg>
