<svg width="256" height="189" viewBox="0 0 256 189" fill="none" xmlns="http://www.w3.org/2000/svg">
<g clip-path="url(#clip0_389_11899)">
<path d="M98.1606 113.28C98.1606 113.641 97.8697 113.932 97.5085 113.932C97.1474 113.932 96.8564 113.641 96.8564 113.28C96.8564 112.919 97.1474 112.628 97.5085 112.628C97.8697 112.628 98.1606 112.919 98.1606 113.28Z" fill="#389FE5"/>
<path d="M61.5185 25.5112C61.5185 25.8724 61.2276 26.1633 60.8664 26.1633C60.5053 26.1633 60.2144 25.8724 60.2144 25.5112C60.2144 25.1501 60.5053 24.8591 60.8664 24.8591C61.2276 24.8591 61.5185 25.1501 61.5185 25.5112Z" fill="#389FE5"/>
<path d="M151.134 47.0798C151.134 47.441 150.843 47.7319 150.482 47.7319C150.121 47.7319 149.83 47.441 149.83 47.0798C149.83 46.7187 150.121 46.4277 150.482 46.4277C150.843 46.4277 151.134 46.7187 151.134 47.0798Z" fill="#389FE5"/>
<path d="M211.606 47.0798C211.606 47.441 211.315 47.7319 210.954 47.7319C210.593 47.7319 210.302 47.441 210.302 47.0798C210.302 46.7187 210.593 46.4277 210.954 46.4277C211.315 46.4277 211.606 46.7187 211.606 47.0798Z" fill="#389FE5"/>
<path d="M192.074 85.2461C192.074 85.6072 191.783 85.8981 191.422 85.8981C191.061 85.8981 190.77 85.6072 190.77 85.2461C190.77 84.8849 191.061 84.594 191.422 84.594C191.783 84.594 192.074 84.8899 192.074 85.2461Z" fill="#389FE5"/>
<path d="M33.9409 62.8248C33.8004 62.8248 33.6851 62.7094 33.6851 62.569V60.7683C33.6851 60.6278 33.8004 60.5125 33.9409 60.5125C34.0813 60.5125 34.1967 60.6278 34.1967 60.7683V62.569C34.1967 62.7094 34.0813 62.8248 33.9409 62.8248Z" fill="#389FE5"/>
<path d="M34.8393 61.922H33.0385C32.8981 61.922 32.7827 61.8067 32.7827 61.6662C32.7827 61.5258 32.8981 61.4104 33.0385 61.4104H34.8393C34.9797 61.4104 35.0951 61.5258 35.0951 61.6662C35.0951 61.8117 34.9847 61.922 34.8393 61.922Z" fill="#389FE5"/>
<path d="M64.1679 90.5582C64.0275 90.5582 63.9121 90.4428 63.9121 90.3024V88.5017C63.9121 88.3612 64.0275 88.2458 64.1679 88.2458C64.3084 88.2458 64.4237 88.3612 64.4237 88.5017V90.3024C64.4237 90.4428 64.3084 90.5582 64.1679 90.5582Z" fill="#389FE5"/>
<path d="M65.0702 89.6549H63.2695C63.129 89.6549 63.0137 89.5396 63.0137 89.3991C63.0137 89.2587 63.129 89.1433 63.2695 89.1433H65.0702C65.2107 89.1433 65.326 89.2587 65.326 89.3991C65.326 89.5446 65.2107 89.6549 65.0702 89.6549Z" fill="#389FE5"/>
<path d="M185.81 17.8971C185.669 17.8971 185.554 17.7817 185.554 17.6413V15.8405C185.554 15.7001 185.669 15.5847 185.81 15.5847C185.95 15.5847 186.065 15.7001 186.065 15.8405V17.6413C186.065 17.7817 185.95 17.8971 185.81 17.8971Z" fill="#389FE5"/>
<path d="M186.712 16.994H184.911C184.771 16.994 184.655 16.8787 184.655 16.7382C184.655 16.5978 184.771 16.4824 184.911 16.4824H186.712C186.852 16.4824 186.968 16.5978 186.968 16.7382C186.968 16.8787 186.852 16.994 186.712 16.994Z" fill="#389FE5"/>
<path d="M239.084 92.6195C238.943 92.6195 238.828 92.5041 238.828 92.3637V90.5629C238.828 90.4225 238.943 90.3071 239.084 90.3071C239.224 90.3071 239.34 90.4225 239.34 90.5629V92.3637C239.34 92.5091 239.224 92.6195 239.084 92.6195Z" fill="#389FE5"/>
<path d="M239.986 91.7216H238.186C238.045 91.7216 237.93 91.6062 237.93 91.4658C237.93 91.3253 238.045 91.21 238.186 91.21H239.986C240.127 91.21 240.242 91.3253 240.242 91.4658C240.242 91.6062 240.127 91.7216 239.986 91.7216Z" fill="#389FE5"/>
<path d="M155.388 119.796C155.247 119.796 155.132 119.681 155.132 119.54V117.739C155.132 117.599 155.247 117.484 155.388 117.484C155.528 117.484 155.643 117.599 155.643 117.739V119.54C155.643 119.681 155.528 119.796 155.388 119.796Z" fill="#389FE5"/>
<path d="M156.29 118.893H154.489C154.349 118.893 154.233 118.778 154.233 118.637C154.233 118.497 154.349 118.381 154.489 118.381H156.29C156.43 118.381 156.546 118.497 156.546 118.637C156.546 118.778 156.43 118.893 156.29 118.893Z" fill="#389FE5"/>
<path d="M128.361 9.49009C128.221 9.49009 128.105 9.37472 128.105 9.23427V7.43355C128.105 7.2931 128.221 7.17773 128.361 7.17773C128.502 7.17773 128.617 7.2931 128.617 7.43355V9.23427C128.617 9.37974 128.502 9.49009 128.361 9.49009Z" fill="#389FE5"/>
<path d="M129.26 8.59219H127.459C127.318 8.59219 127.203 8.47683 127.203 8.33638C127.203 8.19593 127.318 8.08057 127.459 8.08057H129.26C129.4 8.08057 129.515 8.19593 129.515 8.33638C129.515 8.47683 129.4 8.59219 129.26 8.59219Z" fill="#389FE5"/>
<path d="M152.663 168.837C154.785 164.523 158.216 160.952 162.003 158.052C165.058 155.715 168.513 153.438 172.13 152.093C175.34 150.9 176.052 153.704 178.641 154.662C180.296 155.274 182.132 154.336 183.436 153.147C184.69 151.998 185.728 150.554 187.228 149.691C188.332 149.054 189.982 148.738 191.145 149.42C192.585 150.268 192.339 152.344 194.285 152.58C195.193 152.69 196.096 152.364 196.914 151.963C198.845 151.015 200.756 150.142 202.823 149.535C204.694 148.989 207.116 148.803 208.195 150.428C209.233 151.983 208.245 154.1 207.001 155.489C203.996 158.845 199.562 160.656 195.098 161.248C193.879 161.408 192.63 161.493 191.507 161.99C190.383 162.487 189.39 163.505 189.345 164.734C189.32 165.396 189.57 166.038 189.575 166.7C189.601 168.536 187.79 169.905 185.999 170.316C181.394 171.37 178.4 167.327 174.071 166.705C169.166 166.003 161.607 166.77 158.201 170.898" fill="#C6EAE9"/>
<path opacity="0.5" d="M160.754 166.821C165.499 162.396 171.794 159.462 178.375 158.609C182.478 158.078 186.636 158.334 190.754 157.962C194.872 157.591 199.141 156.478 202.11 153.734" stroke="#C6EAE9" stroke-width="0.785965" stroke-miterlimit="10" stroke-linecap="round" stroke-linejoin="round"/>
<path d="M182.253 148.567C184.706 147.148 187.339 145.177 186.642 142.172C186.416 141.184 185.689 140.286 185.809 139.283C185.889 138.621 186.331 138.069 186.657 137.482C187.424 136.093 187.53 134.357 186.938 132.883C186.306 131.297 184.966 130.109 184.129 128.619C183.447 127.405 183.111 125.996 183.176 124.606C180.588 124.877 178.35 126.512 175.842 127.22C173.926 127.761 171.88 127.751 169.984 128.368C166.533 129.502 163.935 132.867 163.714 136.494C162.054 136.364 160.348 137.116 159.32 138.425C158.231 139.82 157.715 141.711 157.991 143.461C159.119 150.754 162.871 156.553 167.671 161.96C166.628 160.781 169.833 157.13 170.455 156.417C173.149 153.323 176.851 151.537 180.382 149.601C180.949 149.285 181.596 148.944 182.253 148.567Z" fill="#C6EAE9"/>
<g opacity="0.5">
<path d="M168.258 152.169C167.646 149.044 168.464 145.824 169.467 142.799C170.44 139.85 171.609 136.946 173.289 134.337C174.974 131.729 177.207 129.422 179.955 127.987" fill="#C6EAE9"/>
<path d="M168.258 152.169C167.646 149.044 168.464 145.824 169.467 142.799C170.44 139.85 171.609 136.946 173.289 134.337C174.974 131.729 177.207 129.422 179.955 127.987" stroke="white" stroke-width="0.785965" stroke-miterlimit="10" stroke-linecap="round" stroke-linejoin="round"/>
<path d="M169.086 130.931C169.021 133.775 169.557 137.141 170.541 139.81L169.086 130.931Z" fill="#C6EAE9"/>
<path d="M169.086 130.931C169.021 133.775 169.557 137.141 170.541 139.81" stroke="white" stroke-width="0.785965" stroke-miterlimit="10" stroke-linecap="round" stroke-linejoin="round"/>
<path d="M170.977 138.751C174.001 136.393 178.827 134.693 182.659 134.562L170.977 138.751Z" fill="#C6EAE9"/>
<path d="M170.977 138.751C174.001 136.393 178.827 134.693 182.659 134.562" stroke="white" stroke-width="0.785965" stroke-miterlimit="10" stroke-linecap="round" stroke-linejoin="round"/>
<path d="M163.167 140C167.185 141.279 167.867 146.952 168.118 148.557L163.167 140Z" fill="#C6EAE9"/>
<path d="M163.167 140C167.185 141.279 167.867 146.952 168.118 148.557" stroke="white" stroke-width="0.785965" stroke-miterlimit="10" stroke-linecap="round" stroke-linejoin="round"/>
<path d="M168.84 144.841C171.604 142.448 176.364 139.89 179.584 140.391L168.84 144.841Z" fill="#C6EAE9"/>
<path d="M168.84 144.841C171.604 142.448 176.364 139.89 179.584 140.391" stroke="white" stroke-width="0.785965" stroke-miterlimit="10" stroke-linecap="round" stroke-linejoin="round"/>
<path d="M168.253 151.873C170.45 148.944 176.454 145.362 179.674 145.864L168.253 151.873Z" fill="#C6EAE9"/>
<path d="M168.253 151.873C170.45 148.944 176.454 145.362 179.674 145.864" stroke="white" stroke-width="0.785965" stroke-miterlimit="10" stroke-linecap="round" stroke-linejoin="round"/>
<path d="M175.516 128.865C174.728 130.043 174.623 131.373 174.799 132.266L175.516 128.865Z" fill="#C6EAE9"/>
<path d="M175.516 128.865C174.728 130.043 174.623 131.373 174.799 132.266" stroke="white" stroke-width="0.785965" stroke-miterlimit="10" stroke-linecap="round" stroke-linejoin="round"/>
<path d="M175.566 131.388C176.865 130.565 178.676 130.234 180.672 130.545L175.566 131.388Z" fill="#C6EAE9"/>
<path d="M175.566 131.388C176.865 130.565 178.676 130.234 180.672 130.545" stroke="white" stroke-width="0.785965" stroke-miterlimit="10" stroke-linecap="round" stroke-linejoin="round"/>
</g>
<path d="M112.435 174.094C109.12 165.005 100.613 156.528 92.236 151.688C90.1945 150.509 87.21 149.616 86.277 152.435C85.6751 154.246 83.5634 153.774 82.3595 152.937C80.8648 151.898 79.992 150.213 78.723 148.944C77.7047 147.926 76.4056 147.143 74.9811 146.912C73.5565 146.682 72.0066 147.053 70.9633 148.051C70.1708 148.803 69.6943 149.867 68.8165 150.524C67.3468 151.622 65.205 151.211 63.64 150.253C62.075 149.295 60.8411 147.875 59.3263 146.837C57.8115 145.804 55.765 145.192 54.1498 146.065C52.013 147.223 51.8174 150.313 52.7253 152.57C53.2871 153.965 54.1699 155.986 55.2383 157.075C56.7481 158.625 58.9501 159.658 61.0518 160.069C62.6017 160.375 64.2018 160.365 65.7417 160.731C66.2985 160.862 66.9355 161.098 67.0458 161.74C67.2063 162.663 66.0627 163.229 65.3956 163.565C64.2419 164.147 63.0983 165.416 63.635 166.59C63.9711 167.327 64.8388 167.658 65.6364 167.794C68.039 168.2 70.4166 167.508 72.6938 166.806C74.0782 166.379 75.2921 165.512 76.7166 165.145C77.4539 164.955 79.345 164.87 79.1443 166.118C79.0791 166.51 78.8032 166.831 78.5023 167.087C78.2013 167.342 77.8652 167.563 77.6145 167.869C76.521 169.198 77.6044 170.758 79.039 171.104C80.1425 171.37 81.2911 171.089 82.3947 170.828C89.6076 169.143 97.1716 168.491 104.43 169.961C105.975 170.272 107.665 170.803 108.442 172.178" fill="#C6EAE9"/>
<path opacity="0.5" d="M104.661 168.366C99.3537 163.455 92.3263 160.215 84.983 159.297C80.4084 158.725 75.7737 159.026 71.1841 158.63C66.5945 158.233 61.8293 157.014 58.5088 153.97" stroke="white" stroke-width="0.785965" stroke-miterlimit="10" stroke-linecap="round" stroke-linejoin="round"/>
<path opacity="0.25" d="M106.306 169.073C106.306 169.073 93.6912 160.681 90.1299 152.169C92.5375 152.821 94.0925 153.604 95.7829 154.978C97.6037 157.551 101.942 161.504 104.887 164.067C105.308 165.471 105.78 167.122 106.306 169.073Z" fill="#C6EAE9"/>
<path d="M105.83 166.189C105.358 163.224 104.049 160.285 103.538 157.27C102.715 152.44 102.59 147.584 103.482 142.784C104.245 138.696 105.509 134.413 104.124 130.274C103.758 129.176 103.076 127.987 101.652 127.997C101.08 128.002 100.538 128.238 100.127 128.604C99.0884 129.527 98.8978 130.851 98.7273 132.115L98.1605 136.344C97.9749 137.718 95.8833 137.884 95.4619 136.544C95.4569 136.534 95.4569 136.524 95.4519 136.509C95.1108 135.386 95.171 134.197 95.2613 133.038C95.4569 130.515 95.7829 127.972 95.3967 125.459C94.9302 122.419 93.2599 119.335 90.0096 118.191C88.8559 117.785 87.5819 117.735 86.4182 118.066C83.1628 118.994 82.5057 122.063 83.1578 124.631C83.6193 126.437 84.6375 128.077 85.5705 129.728C87.8477 133.75 86.6188 137.578 87.1906 142.077C88.3995 151.617 97.7241 160.832 105.83 166.189Z" fill="#C6EAE9"/>
<path opacity="0.5" d="M88.0132 123.593C94.8299 131.839 92.367 151.311 104.245 161.82" stroke="#C6EAE9" stroke-width="0.785965" stroke-miterlimit="10" stroke-linecap="round" stroke-linejoin="round"/>
<path opacity="0.5" d="M101.315 133.279C102.093 137.447 99.4144 142.127 98.7924 144.72C98.1704 147.313 97.8394 151.732 98.5115 154.336" stroke="#C6EAE9" stroke-width="0.785965" stroke-miterlimit="10" stroke-linecap="round" stroke-linejoin="round"/>
<path d="M81.7428 174.009C81.4469 172.343 76.7921 161.95 71.4049 164.734C68.2047 166.389 68.7816 172.474 73.7775 177.068C72.7943 176.12 71.6658 175.042 70.3265 174.776C69.6042 174.63 68.7164 174.967 68.1746 175.463C67.6931 175.91 67.5527 176.612 67.5276 177.269C67.4473 179.651 68.6913 182.039 70.6876 183.343C69.5841 182.726 68.6261 181.954 67.3621 181.843C66.9508 181.808 66.2586 182.044 66.068 182.41C65.8623 182.806 65.8773 184.296 68.3101 185.41C58.3885 183.529 57.8117 187.757 61.378 187.757C64.9444 187.757 90.6261 187.757 90.6261 187.757" fill="#E9F9FF"/>
<path d="M100.332 165.757C99.8606 163.089 94.945 146.315 86.3225 150.77C81.2013 153.418 82.1192 163.159 90.1246 170.517C88.5546 168.998 86.7389 167.277 84.597 166.851C83.4384 166.62 82.0239 167.152 81.1561 167.954C80.3836 168.666 80.1579 169.79 80.1228 170.843C79.9924 174.661 81.9837 178.483 85.1839 180.564C83.4133 179.576 81.8784 178.337 79.862 178.162C79.2049 178.106 78.0914 178.483 77.7904 179.065C77.4593 179.702 77.4844 182.084 81.3768 183.865C65.4963 180.85 64.5683 187.622 70.2765 187.622C75.9847 187.622 108.007 187.622 108.007 187.622" fill="#D7F6FF"/>
<path d="M185.297 174.009C185.593 172.343 190.248 161.95 195.635 164.734C198.835 166.389 198.259 172.474 193.263 177.068C194.246 176.12 195.374 175.042 196.714 174.776C197.436 174.63 198.324 174.967 198.865 175.463C199.347 175.91 199.487 176.612 199.513 177.269C199.593 179.651 198.349 182.039 196.352 183.343C197.456 182.726 198.414 181.954 199.678 181.843C200.089 181.808 200.782 182.044 200.972 182.41C201.178 182.806 201.163 184.296 198.73 185.41C208.652 183.529 209.228 187.757 205.662 187.757C202.096 187.757 176.414 187.757 176.414 187.757" fill="#E9F9FF"/>
<path d="M166.703 165.757C167.175 163.089 172.09 146.315 180.713 150.77C185.834 153.418 184.916 163.159 176.911 170.517C178.481 168.998 180.296 167.277 182.438 166.851C183.597 166.62 185.011 167.152 185.879 167.954C186.652 168.666 186.877 169.79 186.912 170.843C187.043 174.661 185.052 178.483 181.851 180.564C183.622 179.576 185.157 178.337 187.173 178.162C187.83 178.106 188.944 178.483 189.245 179.065C189.576 179.702 189.551 182.084 185.659 183.865C201.539 180.85 202.467 187.622 196.759 187.622C191.051 187.622 159.029 187.622 159.029 187.622" fill="#D7F6FF"/>
<path opacity="0.2" d="M138.886 136.112C134.921 135.02 131.902 131.655 131.665 127.548C131.656 127.348 131.647 127.152 131.647 126.956C131.647 126.902 131.647 126.838 131.656 126.779C131.647 126.724 131.647 126.66 131.647 126.601C131.647 126.405 131.656 126.209 131.665 126.009C131.902 121.902 134.921 118.538 138.886 117.445C153.825 113.311 164.802 99.615 164.802 83.3605C164.802 81.175 164.607 79.0351 164.22 76.9589C164.156 76.6037 164.088 76.2532 164.01 75.9071C163.956 75.6522 163.901 75.3972 163.837 75.1422C163.837 75.1286 163.833 75.1103 163.828 75.0967C163.796 74.9646 163.764 74.8326 163.728 74.7006C163.669 74.4456 163.605 74.1997 163.532 73.9493C163.427 73.5668 163.318 73.1889 163.2 72.811H161.993C162.034 72.934 162.075 73.0569 162.107 73.1798C162.116 73.2026 162.125 73.2208 162.13 73.2436C162.198 73.4576 162.262 73.6716 162.321 73.8856C162.362 74.0267 162.403 74.1633 162.435 74.3044C162.499 74.5275 162.558 74.7461 162.612 74.9692C162.649 75.1103 162.685 75.2515 162.713 75.3881C162.772 75.6157 162.822 75.8388 162.867 76.0665C162.886 76.1439 162.904 76.2213 162.917 76.2987C162.922 76.326 162.931 76.3579 162.936 76.3898C162.99 76.6493 163.04 76.9088 163.086 77.1683C163.459 79.1808 163.651 81.2615 163.651 83.3605C163.651 98.6907 153.338 112.25 138.581 116.334C134.015 117.595 130.773 121.452 130.518 125.945C130.504 126.164 130.5 126.382 130.5 126.601C130.5 126.66 130.5 126.724 130.504 126.779C130.5 126.838 130.5 126.902 130.5 126.956C130.5 127.175 130.504 127.393 130.518 127.612C130.773 132.106 134.015 135.967 138.581 137.223C153.338 141.307 163.651 154.871 163.651 170.197C163.651 172.296 163.459 174.381 163.086 176.393C162.571 179.262 161.679 182.053 160.432 184.703H98.4505C97.203 182.053 96.3106 179.262 95.7915 176.389C95.4182 174.381 95.2315 172.296 95.2315 170.197C95.2315 154.871 105.544 141.307 120.301 137.223C124.867 135.967 128.105 132.106 128.364 127.612C128.378 127.393 128.382 127.175 128.382 126.956C128.382 126.902 128.382 126.838 128.378 126.779C128.382 126.724 128.382 126.66 128.382 126.601C128.382 126.382 128.378 126.164 128.364 125.945C128.105 121.452 124.867 117.595 120.301 116.334C105.544 112.25 95.2315 98.6907 95.2315 83.3605C95.2315 81.2615 95.4182 79.1808 95.7915 77.1683C95.8553 76.8086 95.9281 76.4535 96.0055 76.0938C96.0055 76.0847 96.0101 76.0756 96.0101 76.0665C96.0875 75.7205 96.1649 75.3744 96.2514 75.0284C96.256 75.0102 96.2605 74.992 96.2651 74.9692C96.3334 74.7051 96.4017 74.4365 96.4791 74.177C96.4836 74.1542 96.4927 74.136 96.4973 74.1132C96.52 74.013 96.5519 73.9083 96.5838 73.8082C96.6339 73.6169 96.6931 73.4303 96.7522 73.2436C96.7568 73.2208 96.7659 73.2026 96.775 73.1798C96.8069 73.0569 96.8479 72.934 96.8888 72.811H95.6823C95.5639 73.1889 95.4546 73.5668 95.3499 73.9493C95.277 74.1997 95.2133 74.4456 95.1541 74.7006C95.1177 74.8326 95.0858 74.9646 95.0539 75.0967C95.0494 75.1103 95.0448 75.1286 95.0448 75.1422C94.9811 75.3972 94.9265 75.6522 94.8718 75.9071C94.7944 76.2532 94.7261 76.6037 94.6624 76.9589C94.2754 79.0351 94.0796 81.175 94.0796 83.3605C94.0796 99.615 105.052 113.311 119.996 117.445C123.957 118.538 126.98 121.902 127.212 126.009C127.226 126.209 127.231 126.405 127.231 126.601C127.231 126.66 127.231 126.724 127.226 126.779C127.231 126.838 127.231 126.902 127.231 126.956C127.231 127.152 127.226 127.348 127.212 127.548C126.98 131.655 123.957 135.02 119.996 136.112C105.052 140.251 94.0796 153.942 94.0796 170.197C94.0796 172.382 94.2754 174.522 94.6624 176.598C95.2543 179.867 96.3015 182.973 97.7266 185.855H161.155C162.581 182.973 163.628 179.867 164.22 176.598C164.607 174.522 164.802 172.382 164.802 170.197C164.802 153.942 153.825 140.251 138.886 136.112Z" fill="#389FE5"/>
<path d="M163.65 170.197C163.65 172.296 163.459 174.381 163.085 176.393C162.571 179.262 161.679 182.053 160.431 184.703H98.45C97.2024 182.053 96.31 179.262 95.791 176.389C95.4176 174.381 95.231 172.296 95.231 170.197C95.231 154.871 105.544 141.307 120.3 137.223C124.867 135.967 128.104 132.106 128.364 127.612C128.377 127.393 128.382 127.175 128.382 126.956C128.382 126.902 128.382 126.838 128.377 126.779C128.382 126.724 128.382 126.66 128.382 126.601C128.382 126.382 128.377 126.164 128.364 125.945C128.104 121.452 124.867 117.595 120.3 116.334C105.544 112.25 95.231 98.6907 95.231 83.3605C95.231 81.2615 95.4176 79.1808 95.791 77.1683C95.8547 76.8086 95.9276 76.4535 96.005 76.0938C96.005 76.0847 96.0095 76.0756 96.0095 76.0665C96.0824 75.7205 96.1643 75.3744 96.2508 75.0284C96.2554 75.0102 96.26 74.992 96.2645 74.9692C96.3374 74.6824 96.4102 74.4001 96.4967 74.1132C96.5741 73.8218 96.6606 73.5304 96.7517 73.2436C96.7972 73.0979 96.8427 72.9522 96.8883 72.811H161.993C162.038 72.9522 162.084 73.0979 162.129 73.2436C162.198 73.4576 162.261 73.6716 162.32 73.8856C162.361 74.0267 162.402 74.1633 162.434 74.3044C162.498 74.5275 162.557 74.7461 162.612 74.9692C162.648 75.1103 162.685 75.2515 162.712 75.3881C162.771 75.6157 162.821 75.8388 162.867 76.0665C162.89 76.1712 162.912 76.2805 162.935 76.3898C162.99 76.6493 163.04 76.9088 163.085 77.1683C163.459 79.1808 163.65 81.2615 163.65 83.3605C163.65 98.6907 153.337 112.25 138.581 116.334C134.014 117.595 130.772 121.452 130.517 125.945C130.504 126.164 130.499 126.382 130.499 126.601C130.499 126.66 130.499 126.724 130.504 126.779C130.499 126.838 130.499 126.902 130.499 126.956C130.499 127.175 130.504 127.393 130.517 127.612C130.772 132.106 134.014 135.967 138.581 137.223C153.337 141.307 163.65 154.871 163.65 170.197Z" fill="white"/>
<path opacity="0.5" d="M163.65 170.197C163.65 172.296 163.459 174.381 163.085 176.393C162.571 179.262 161.679 182.053 160.431 184.703H98.45C97.2024 182.053 96.31 179.262 95.791 176.389C95.4176 174.381 95.231 172.296 95.231 170.197C95.231 154.871 105.544 141.307 120.3 137.223C124.867 135.967 128.104 132.106 128.364 127.612C128.377 127.393 128.382 127.175 128.382 126.956C128.382 126.902 128.382 126.838 128.377 126.779C128.382 126.724 128.382 126.66 128.382 126.601C128.382 126.382 128.377 126.164 128.364 125.945C128.104 121.452 124.867 117.595 120.3 116.334C105.544 112.25 95.231 98.6907 95.231 83.3605C95.231 81.2615 95.4176 79.1808 95.791 77.1683C95.8547 76.8086 95.9276 76.4535 96.005 76.0938C96.005 76.0847 96.0095 76.0756 96.0095 76.0665C96.0824 75.7205 96.1643 75.3744 96.2508 75.0284C96.2554 75.0102 96.26 74.992 96.2645 74.9692C96.3374 74.6824 96.4102 74.4001 96.4967 74.1132C96.5741 73.8218 96.6606 73.5304 96.7517 73.2436C96.7972 73.0979 96.8427 72.9522 96.8883 72.811H161.993C162.038 72.9522 162.084 73.0979 162.129 73.2436C162.198 73.4576 162.261 73.6716 162.32 73.8856C162.361 74.0267 162.402 74.1633 162.434 74.3044C162.498 74.5275 162.557 74.7461 162.612 74.9692C162.648 75.1103 162.685 75.2515 162.712 75.3881C162.771 75.6157 162.821 75.8388 162.867 76.0665C162.89 76.1712 162.912 76.2805 162.935 76.3898C162.99 76.6493 163.04 76.9088 163.085 77.1683C163.459 79.1808 163.65 81.2615 163.65 83.3605C163.65 98.6907 153.337 112.25 138.581 116.334C134.014 117.595 130.772 121.452 130.517 125.945C130.504 126.164 130.499 126.382 130.499 126.601C130.499 126.66 130.499 126.724 130.504 126.779C130.499 126.838 130.499 126.902 130.499 126.956C130.499 127.175 130.504 127.393 130.517 127.612C130.772 132.106 134.014 135.967 138.581 137.223C153.337 141.307 163.65 154.871 163.65 170.197Z" fill="#D7ECFA"/>
<path d="M101.228 103.508C101.228 103.508 106.623 112.35 119.563 116.416C122.877 117.39 123.993 118.109 125.901 119.867C127.808 121.624 128.459 124.716 128.387 127.161C128.359 129.055 129.447 156.756 129.447 160.207C129.447 163.463 129.871 161.05 129.775 160.353C130.112 140.747 130.508 126.328 130.508 126.328C130.508 126.328 131.678 120.163 133.495 119.316C135.307 118.465 141.891 115.41 144.582 114.654C147.273 113.898 153.784 107.965 153.784 107.965C153.784 107.965 162.052 96.1728 162.553 94.6657C163.058 93.1541 158.815 93.0129 158.815 93.0129L101.228 103.508Z" fill="#FF9A30"/>
<path d="M132.424 104.104C149.753 101.386 163.346 96.2794 162.785 92.6998C162.223 89.1201 147.719 88.4223 130.39 91.1413C113.06 93.8603 99.467 98.9664 100.029 102.546C100.59 106.126 115.094 106.823 132.424 104.104Z" fill="#FDCF33"/>
<g opacity="0.5">
<path d="M120.132 111.99C119.759 111.99 119.381 111.931 119.012 111.804C116.54 110.952 114.249 109.873 112.2 108.589C110.589 107.574 110.102 105.443 111.112 103.831C112.128 102.219 114.258 101.732 115.87 102.743C117.468 103.745 119.276 104.596 121.252 105.274C123.055 105.894 124.016 107.856 123.397 109.659C122.905 111.093 121.566 111.99 120.132 111.99Z" fill="white"/>
<path d="M106.641 101.81C105.498 101.81 104.383 101.245 103.727 100.211C97.7081 90.7547 99.2607 80.1369 99.329 79.6862C99.6204 77.8012 101.382 76.5081 103.263 76.7995C105.143 77.0909 106.432 78.8439 106.15 80.7243C106.131 80.8654 104.975 89.3114 109.551 96.5052C110.575 98.1125 110.102 100.248 108.49 101.268C107.916 101.637 107.274 101.81 106.641 101.81Z" fill="white"/>
</g>
<g opacity="0.5">
<path d="M120.132 141.18C119.759 141.18 119.381 141.239 119.012 141.367C116.54 142.218 114.249 143.297 112.2 144.581C110.589 145.596 110.102 147.727 111.112 149.339C112.128 150.951 114.258 151.438 115.87 150.427C117.468 149.426 119.276 148.574 121.252 147.896C123.055 147.276 124.016 145.314 123.397 143.511C122.905 142.081 121.566 141.18 120.132 141.18Z" fill="white"/>
<path d="M106.641 151.361C105.498 151.361 104.383 151.925 103.727 152.959C97.7081 162.416 99.2607 173.033 99.329 173.484C99.6204 175.369 101.382 176.662 103.263 176.371C105.143 176.079 106.432 174.327 106.15 172.446C106.131 172.305 104.975 163.859 109.551 156.665C110.575 155.058 110.102 152.923 108.49 151.903C107.916 151.534 107.274 151.361 106.641 151.361Z" fill="white"/>
</g>
<path d="M138.886 136.112C134.921 135.02 131.902 131.655 131.665 127.548C131.656 127.348 131.647 127.152 131.647 126.956C131.647 126.902 131.647 126.838 131.656 126.779C131.647 126.724 131.647 126.66 131.647 126.601C131.647 126.405 131.656 126.209 131.665 126.009C131.902 121.902 134.921 118.538 138.886 117.445C153.825 113.311 164.802 99.615 164.802 83.3605C164.802 81.175 164.607 79.0351 164.22 76.9589C164.156 76.6037 164.088 76.2532 164.01 75.9071C163.956 75.6522 163.901 75.3972 163.837 75.1422C163.837 75.1286 163.833 75.1103 163.828 75.0967C163.796 74.9646 163.764 74.8326 163.728 74.7006C163.669 74.4456 163.605 74.1997 163.532 73.9493C163.427 73.5668 163.318 73.1889 163.2 72.811H161.993C162.034 72.9294 162.071 73.0569 162.107 73.1798C162.116 73.2026 162.125 73.2208 162.13 73.2436C162.198 73.4576 162.262 73.6716 162.321 73.8856C162.362 74.0267 162.403 74.1633 162.435 74.3044C162.499 74.5275 162.558 74.7461 162.612 74.9692C162.649 75.1103 162.685 75.2515 162.713 75.3881C162.772 75.6157 162.822 75.8388 162.867 76.0665C162.886 76.1439 162.899 76.2213 162.917 76.2987C162.922 76.326 162.931 76.3579 162.936 76.3898C162.99 76.6493 163.04 76.9088 163.086 77.1683C163.459 79.1808 163.651 81.2615 163.651 83.3605C163.651 98.6907 153.338 112.25 138.581 116.334C134.015 117.595 130.773 121.452 130.518 125.945C130.504 126.164 130.5 126.382 130.5 126.601C130.5 126.66 130.5 126.724 130.504 126.779C130.5 126.838 130.5 126.902 130.5 126.956C130.5 127.175 130.504 127.393 130.518 127.612C130.773 132.106 134.015 135.967 138.581 137.223C153.338 141.307 163.651 154.871 163.651 170.197C163.651 172.296 163.459 174.381 163.086 176.393C162.571 179.262 161.679 182.053 160.432 184.703H98.4505C97.203 182.053 96.3106 179.262 95.7915 176.389C95.4182 174.381 95.2315 172.296 95.2315 170.197C95.2315 154.871 105.544 141.307 120.301 137.223C124.867 135.967 128.105 132.106 128.364 127.612C128.378 127.393 128.382 127.175 128.382 126.956C128.382 126.902 128.382 126.838 128.378 126.779C128.382 126.724 128.382 126.66 128.382 126.601C128.382 126.382 128.378 126.164 128.364 125.945C128.105 121.452 124.867 117.595 120.301 116.334C105.544 112.25 95.2315 98.6907 95.2315 83.3605C95.2315 81.2615 95.4182 79.1808 95.7915 77.1683C95.8553 76.8086 95.9281 76.4489 96.0055 76.0938C96.0055 76.0847 96.0101 76.0756 96.0101 76.0665C96.0875 75.7205 96.1649 75.3744 96.2514 75.0284C96.256 75.0102 96.2605 74.992 96.2651 74.9692C96.3334 74.7051 96.4017 74.4365 96.4791 74.177C96.4836 74.1542 96.4927 74.136 96.4973 74.1132C96.5246 74.013 96.5519 73.9083 96.5838 73.8082C96.6339 73.6169 96.6931 73.4303 96.7522 73.2436C96.7568 73.2208 96.7659 73.2026 96.775 73.1798C96.8114 73.0569 96.8479 72.9294 96.8888 72.811H95.6823C95.5639 73.1889 95.4546 73.5668 95.3499 73.9493C95.277 74.1997 95.2133 74.4456 95.1541 74.7006C95.1177 74.8326 95.0858 74.9646 95.0539 75.0967C95.0494 75.1103 95.0448 75.1286 95.0448 75.1422C94.9811 75.3972 94.9265 75.6522 94.8718 75.9071C94.7944 76.2532 94.7261 76.6037 94.6624 76.9589C94.2754 79.0351 94.0796 81.175 94.0796 83.3605C94.0796 99.615 105.052 113.311 119.996 117.445C123.957 118.538 126.98 121.902 127.212 126.009C127.226 126.209 127.231 126.405 127.231 126.601C127.231 126.66 127.231 126.724 127.226 126.779C127.231 126.838 127.231 126.902 127.231 126.956C127.231 127.152 127.226 127.348 127.212 127.548C126.98 131.655 123.957 135.02 119.996 136.112C105.052 140.251 94.0796 153.942 94.0796 170.197C94.0796 172.382 94.2754 174.522 94.6624 176.598C95.2543 179.867 96.3015 182.973 97.7266 185.855H161.155C162.581 182.973 163.628 179.867 164.22 176.598C164.607 174.522 164.802 172.382 164.802 170.197C164.802 153.942 153.825 140.251 138.886 136.112Z" fill="#B7DDF6"/>
<path d="M173.517 183.974C173.517 185.823 172.019 187.321 170.17 187.321H88.7113C86.8627 187.321 85.3647 185.823 85.3647 183.974C85.3647 182.126 86.8627 180.628 88.7113 180.628H170.17C172.019 180.628 173.517 182.126 173.517 183.974Z" fill="#3384F8"/>
<path d="M156.511 94.0557C156.565 94.3061 155.882 94.6658 154.99 94.857C154.098 95.0482 153.328 94.9936 153.274 94.7432C153.219 94.4928 153.902 94.1331 154.794 93.9418C155.691 93.7552 156.461 93.8052 156.511 94.0557Z" fill="#FF9A30"/>
<path d="M154.458 96.9605C154.512 97.2109 154.093 97.516 153.52 97.6344C152.951 97.7527 152.445 97.648 152.391 97.3976C152.336 97.1472 152.755 96.8421 153.328 96.7237C153.898 96.6008 154.403 96.7101 154.458 96.9605Z" fill="#FF9A30"/>
<path d="M151.844 96.1956C151.898 96.446 151.48 96.7511 150.906 96.8695C150.337 96.9878 149.831 96.8831 149.777 96.6327C149.722 96.3823 150.141 96.0772 150.715 95.9589C151.284 95.8359 151.789 95.9452 151.844 96.1956Z" fill="#FF9A30"/>
<path d="M133.805 98.5178C133.832 98.6544 133.609 98.8183 133.299 98.882C132.99 98.9458 132.717 98.8911 132.689 98.7545C132.662 98.618 132.885 98.454 133.195 98.3903C133.504 98.322 133.777 98.3812 133.805 98.5178Z" fill="#FF9A30"/>
<path d="M147.742 94.2834C147.769 94.42 147.546 94.5839 147.236 94.6477C146.927 94.7114 146.654 94.6568 146.626 94.5202C146.599 94.3836 146.822 94.2197 147.132 94.1559C147.441 94.0876 147.714 94.1468 147.742 94.2834Z" fill="#FF9A30"/>
<path d="M142.692 99.1459C142.72 99.2825 142.497 99.4464 142.187 99.5102C141.877 99.5739 141.604 99.5193 141.577 99.3827C141.55 99.2461 141.773 99.0822 142.082 99.0184C142.387 98.9547 142.661 99.0093 142.692 99.1459Z" fill="#FF9A30"/>
<path d="M135.949 102.37C135.977 102.506 135.754 102.67 135.444 102.734C135.134 102.798 134.861 102.743 134.834 102.606C134.806 102.47 135.03 102.306 135.339 102.242C135.649 102.174 135.922 102.233 135.949 102.37Z" fill="#FF9A30"/>
<path d="M129.83 156.701L129.593 156.61L129.356 156.701C129.356 156.701 127.321 172.628 105.462 180.628C117.436 180.628 125.004 180.628 129.748 180.628C136.095 180.628 137.384 180.628 137.384 180.628C140.93 180.628 146.116 180.628 153.72 180.628C131.87 172.624 129.83 156.701 129.83 156.701Z" fill="#FF9A30"/>
<path d="M163.308 73.1707C163.308 74.9464 148.146 76.3897 129.438 76.3897C110.729 76.3897 95.5674 74.9509 95.5674 73.1707C95.5674 71.395 110.729 69.9517 129.438 69.9517C148.146 69.9517 163.308 71.395 163.308 73.1707Z" fill="#B9DBEF"/>
<path d="M170.17 68.217H88.7113C87.787 68.217 86.9492 68.5904 86.3437 69.196C85.7381 69.8015 85.3647 70.6393 85.3647 71.5635C85.3647 73.4075 86.8627 74.9055 88.7113 74.9055H95.682H96.8886H161.993H163.2H170.17C172.019 74.9055 173.517 73.4075 173.517 71.5635C173.517 69.715 172.019 68.217 170.17 68.217Z" fill="#3384F8"/>
<path d="M0.0932617 187.817H255.907" stroke="#389FE5" stroke-width="0.882116" stroke-miterlimit="10"/>
</g>
<defs>
<clipPath id="clip0_389_11899">
<rect width="255.814" height="188.068" fill="white" transform="translate(0.0932617)"/>
</clipPath>
</defs>
</svg>
