<svg width="22" height="22" viewBox="0 0 22 22" fill="none" xmlns="http://www.w3.org/2000/svg">
    <path
        d="M15.2532 20.1673H6.74655C5.81996 20.1336 4.95682 19.6879 4.39287 18.952C3.82891 18.216 3.62307 17.2666 3.83155 16.3632L4.05155 15.3182C4.30458 13.9035 5.52062 12.864 6.95738 12.834H15.0424C16.4791 12.864 17.6952 13.9035 17.9482 15.3182L18.1682 16.3632C18.3767 17.2666 18.1709 18.216 17.6069 18.952C17.0429 19.6879 16.1798 20.1336 15.2532 20.1673Z"
        fill="black" />
    <path
        d="M11.4582 11.0007H10.5415C8.51651 11.0007 6.87488 9.35904 6.87488 7.334V4.914C6.87244 4.09638 7.19615 3.31155 7.7743 2.73341C8.35244 2.15527 9.13727 1.83155 9.95488 1.834H12.0449C12.8625 1.83155 13.6473 2.15527 14.2255 2.73341C14.8036 3.31155 15.1273 4.09638 15.1249 4.914V7.334C15.1249 8.30646 14.7386 9.23909 14.0509 9.92672C13.3633 10.6144 12.4307 11.0007 11.4582 11.0007Z"
        fill="black" />
</svg>
