<svg width="408" height="319" viewBox="0 0 408 319" fill="none" xmlns="http://www.w3.org/2000/svg">
<path fill-rule="evenodd" clip-rule="evenodd" d="M159.297 208.911L209.581 231.582L191.026 270.658L168.197 318.736C168.091 318.96 167.822 319.058 167.595 318.955C167.494 318.905 167.42 318.826 167.376 318.728L153.533 283.944L118.389 295.341C118.141 295.391 117.901 295.23 117.853 294.987C117.829 294.876 117.853 294.768 117.906 294.676L152.761 222.582L159.297 208.911Z" fill="#DF3B3E"/>
<path fill-rule="evenodd" clip-rule="evenodd" d="M209.581 231.582L191.026 270.658L213.853 318.736C213.962 318.96 214.231 319.058 214.458 318.955C214.558 318.905 214.632 318.826 214.68 318.728L230.366 288.681L263.666 295.341C263.912 295.391 264.152 295.23 264.2 294.987C264.218 294.876 264.2 294.768 264.147 294.676L229.291 222.582C229.18 222.355 228.911 222.263 228.687 222.371L209.581 231.582Z" fill="#DF3B3E"/>
<path fill-rule="evenodd" clip-rule="evenodd" d="M191.026 243.154C175.448 243.154 161.062 238.041 149.466 229.398L143.144 242.465C156.725 251.908 173.228 257.446 191.026 257.446C193.176 257.446 195.307 257.364 197.415 257.206L204.722 241.81C200.296 242.689 195.716 243.154 191.026 243.154Z" fill="#C93538"/>
<path fill-rule="evenodd" clip-rule="evenodd" d="M204.722 241.81L197.415 257.206C212.768 256.052 226.968 250.77 238.904 242.465L232.587 229.398C224.48 235.44 215.013 239.758 204.722 241.81Z" fill="#C93538"/>
<mask id="mask0_4908_1441" style="mask-type:luminance" maskUnits="userSpaceOnUse" x="117" y="100" width="148" height="148">
<path d="M117 100H265V247.377H117V100Z" fill="white"/>
</mask>
<g mask="url(#mask0_4908_1441)">
<path fill-rule="evenodd" clip-rule="evenodd" d="M191.026 100.042C231.75 100.042 264.77 133.012 264.77 173.68C264.77 214.351 231.75 247.321 191.026 247.321C150.298 247.321 117.282 214.351 117.282 173.68C117.282 133.012 150.298 100.042 191.026 100.042Z" fill="#FFCC2E"/>
</g>
<path fill-rule="evenodd" clip-rule="evenodd" d="M197.414 257.206L191.026 270.658L195.257 279.57L198.679 272.372L206.433 256.033C203.478 256.585 200.47 256.979 197.414 257.206Z" fill="#C93538"/>
<path fill-rule="evenodd" clip-rule="evenodd" d="M191.026 118.72C221.425 118.72 246.066 143.325 246.066 173.68C246.066 204.034 221.425 228.643 191.026 228.643C160.628 228.643 135.987 204.034 135.987 173.68C135.987 143.325 160.628 118.72 191.026 118.72Z" fill="#FFE45B"/>
<path d="M191.026 117.305C206.618 117.305 220.73 123.611 230.944 133.818C241.164 144.016 247.481 158.113 247.481 173.68C247.481 189.248 241.164 203.342 230.944 213.546C220.73 223.747 206.618 230.058 191.026 230.058C175.435 230.058 161.323 223.747 151.106 213.546C140.889 203.342 134.572 189.248 134.572 173.68C134.572 158.113 140.889 144.016 151.106 133.818C161.323 123.611 175.435 117.305 191.026 117.305ZM228.94 135.817C219.241 126.125 205.833 120.133 191.026 120.133C176.22 120.133 162.812 126.125 153.113 135.817C143.408 145.508 137.405 158.895 137.405 173.68C137.405 188.466 143.408 201.855 153.113 211.541C162.812 221.233 176.22 227.227 191.026 227.227C205.833 227.227 219.241 221.233 228.94 211.541C238.645 201.855 244.647 188.466 244.647 173.68C244.647 158.895 238.645 145.508 228.94 135.817Z" fill="#EFAB30"/>
<path fill-rule="evenodd" clip-rule="evenodd" d="M193.152 138.32L203.174 160.609L227.504 163.239C228.784 163.379 229.711 164.525 229.574 165.8C229.508 166.45 229.181 167.005 228.708 167.38L210.687 183.686L215.699 207.615C215.961 208.874 215.153 210.107 213.896 210.369C213.312 210.488 212.739 210.385 212.258 210.11V210.115L191.026 197.962L169.795 210.115C168.672 210.752 167.246 210.366 166.605 209.249C166.29 208.695 166.222 208.061 166.377 207.488L171.366 183.686L153.232 167.277C152.278 166.418 152.207 164.947 153.068 163.997C153.469 163.558 153.997 163.302 154.549 163.247V163.239L178.876 160.609L188.901 138.32C189.421 137.148 190.802 136.622 191.975 137.143C192.519 137.388 192.925 137.813 193.152 138.32Z" fill="#FFD12D"/>
<mask id="mask1_4908_1441" style="mask-type:luminance" maskUnits="userSpaceOnUse" x="8" y="6" width="185" height="152">
<path d="M8.8335 90.2977L153.536 6.75357L192.364 74.0045L47.6608 157.549L8.8335 90.2977Z" fill="white"/>
</mask>
<g mask="url(#mask1_4908_1441)">
<path d="M27.5109 80.2218C41.8365 78.3436 56.6299 83.6238 66.8033 93.6508C70.0887 96.8912 72.8459 100.606 74.8921 104.628C64.8283 90.6286 45.698 83.5577 29.1652 88.3685C26.957 89.019 24.6377 87.7539 23.9864 85.5444C23.2386 83.0945 24.9692 80.4912 27.5109 80.2218ZM178.015 75.4765C177.782 75.6802 177.914 76.0984 178.224 76.131C178.837 76.217 179.443 76.2797 180.042 76.3232C181.808 76.4542 183.575 76.505 185.335 76.3909C186.2 76.3147 187.132 76.6611 187.981 76.4218C188.249 76.3446 188.499 76.2088 188.734 76.0293C189.204 75.6662 189.638 75.1924 190.024 74.562C190.405 73.9207 190.753 73.1763 190.984 72.0667C191.031 71.8347 190.962 71.5835 190.775 71.4122C189.945 70.6414 189.229 70.2339 188.547 69.9322C187.868 69.642 187.239 69.5045 186.646 69.4817C186.35 69.4712 186.069 69.5052 185.805 69.5965C184.974 69.8919 184.413 70.7147 183.664 71.1523C181.652 72.4089 179.767 73.8594 178.015 75.4765ZM33.7768 111.001C33.9931 110.842 33.9111 110.472 33.6453 110.419C33.1215 110.3 32.6034 110.2 32.087 110.117C31.0668 109.953 30.0452 109.822 29.0224 109.736C28.2551 109.661 27.5106 109.717 26.7504 109.575C26.2545 109.484 25.7262 109.334 25.2303 109.44C24.9935 109.487 24.7663 109.586 24.5494 109.723C24.1157 110 23.7051 110.379 23.3257 110.895C22.9476 111.421 22.5908 112.04 22.3066 112.98C22.2487 113.176 22.291 113.399 22.4393 113.562C23.1002 114.29 23.6878 114.696 24.2561 115.009C24.8211 115.311 25.3542 115.475 25.8656 115.54C26.1215 115.57 26.3679 115.563 26.6027 115.504C27.3421 115.31 27.8883 114.641 28.5681 114.318C30.4034 113.382 32.1426 112.268 33.7768 111.001Z" fill="#FFB036"/>
</g>
<path d="M168.628 60.7094C159.615 64.4069 152.385 71.896 149.085 81.0077C148.272 83.3301 147.871 86.1437 148.298 88.7081C147.466 89.6299 146.686 90.5998 145.919 91.5702C145.381 92.2873 144.558 93.3832 144.065 94.1179C139.008 101.425 135.629 109.877 134.271 118.542C136.504 108.984 141.117 100.186 147.578 92.9511C148.058 92.4286 148.564 91.8829 149.095 91.3376C149.751 92.7373 150.773 93.9444 152.255 94.789C154.873 96.2811 158.202 95.9513 160.669 94.4186C162.655 93.2568 163.868 91.1284 163.705 88.8213C163.558 86.6353 162.211 84.572 160.184 83.6931C158.054 82.7489 155.605 83.3725 153.525 84.4618C153.561 84.3395 153.595 84.2199 153.632 84.1021C156.469 76.3844 163.427 70.0304 171.156 67.5273C173.159 66.8871 174.205 64.6335 173.398 62.6881C172.634 60.8195 170.49 59.9306 168.628 60.7094ZM159.895 89.7978C159.691 90.2913 159.273 90.6663 158.806 90.9103C158.442 91.1055 158.051 91.2616 157.65 91.3644C156.408 91.6826 155.122 91.5398 154.2 90.6878C153.479 89.9827 153.162 89.0011 153.089 87.9505C154.495 87.0592 156.019 86.4497 157.661 86.3853C159.376 86.3762 160.535 88.2723 159.895 89.7978ZM69.1778 63.7749C68.4605 65.6509 69.4003 67.7565 71.2777 68.473C74.6692 69.7722 77.8441 71.7955 80.546 74.3592C83.4252 77.0777 85.7552 80.4247 87.3124 84.0977C87.6039 84.7873 87.8528 85.532 88.0325 86.2946C87.484 85.9717 86.9109 85.6883 86.3171 85.4541C84.763 84.8403 83.0243 84.5514 81.419 85.1855C79.3487 85.9577 77.8999 87.9499 77.6444 90.1246C77.3762 92.2304 78.335 94.3571 80.039 95.6204C82.3335 97.3584 85.5081 98.0299 88.269 96.9063C90.0568 96.1753 91.2988 94.915 92.1067 93.3894C92.5972 93.9488 93.074 94.5196 93.5398 95.0832C94.0757 95.7653 94.8938 96.8041 95.3835 97.5028C100.466 104.515 103.972 112.686 105.535 121.328C104.669 113.112 102.018 105.028 97.7976 97.7774C97.4498 97.1457 96.95 96.3767 96.5722 95.7606C96.3138 95.3277 95.5433 94.2158 95.2662 93.7886C94.5611 92.8048 93.8213 91.7666 93.0347 90.8027C93.4649 88.8487 93.4168 86.7343 93.0486 84.8334C90.8765 74.9281 83.3172 66.0906 74.1463 61.7946C72.2448 60.8721 69.9216 61.7954 69.1778 63.7749ZM82.3158 92.3922C81.011 91.6006 80.962 89.8657 81.9445 88.7773C82.6709 87.9721 83.664 87.881 84.6893 88.13C85.9906 88.4143 87.1855 89.0391 88.2784 89.8008C88.2394 90.1143 88.1817 90.4217 88.1013 90.722C87.3707 93.4806 84.4647 93.7725 82.3158 92.3922ZM92.6438 143.519C79.1115 138.117 62.2695 141.779 52.6797 152.731C51.4015 154.198 49.174 154.352 47.706 153.073C46.0597 151.666 46.1092 149.023 47.7971 147.676C57.1478 139.819 70.0859 136.854 81.8924 139.372C85.704 140.189 89.3585 141.583 92.6438 143.519ZM96.0413 66.1541C95.8308 66.7274 95.605 67.2977 95.3629 67.869C95.2727 68.0937 94.9256 68.064 94.8771 67.8246C94.359 65.4502 94.0008 63.0478 93.8044 60.6298C93.7499 59.7323 93.3871 58.8402 93.4511 57.9369C93.5449 56.9944 93.9462 56.189 94.5037 55.3697C94.9076 54.815 95.3874 54.2656 96.138 53.7426C96.2911 53.6355 96.4966 53.6573 96.6251 53.7862C97.7257 54.9275 98.2602 56.0995 98.4974 57.504C98.5934 58.1068 98.526 58.6906 98.3161 59.2619C98.1112 59.8303 97.8478 60.3969 97.6957 60.9805C97.2402 62.7325 96.6699 64.4527 96.0413 66.1541Z" fill="#FFD752"/>
<mask id="mask2_4908_1441" style="mask-type:luminance" maskUnits="userSpaceOnUse" x="19" y="15" width="136" height="115">
<path d="M19.229 75.2908L122.867 15.4554L154.152 69.6424L50.5139 129.478L19.229 75.2908Z" fill="white"/>
</mask>
<g mask="url(#mask2_4908_1441)">
<path d="M142.751 68.7117C142.791 66.8323 142.998 64.9652 143.385 63.1326C143.546 62.4677 143.385 61.6994 143.67 61.0658C143.763 60.8652 143.898 60.687 144.064 60.5234C144.403 60.1991 144.824 59.9172 145.36 59.6894C145.905 59.4676 146.528 59.2838 147.419 59.2329C147.619 59.2209 147.801 59.319 147.906 59.4728C148.409 60.2115 148.642 60.8179 148.797 61.385C148.945 61.948 148.977 62.4555 148.926 62.9214C148.899 63.1535 148.84 63.3691 148.737 63.5637C148.409 64.1775 147.702 64.518 147.273 65.05C146.377 66.1142 145.38 67.0905 144.341 68.0221C143.989 68.3407 143.621 68.6497 143.238 68.9504C143.05 69.1093 142.741 68.9546 142.751 68.7117ZM56.2888 65.6561C56.5564 65.6742 56.7332 65.3386 56.5636 65.1269C56.2411 64.6972 55.9097 64.2844 55.5695 63.8886C54.5704 62.7208 53.5223 61.6 52.3749 60.5856C51.7994 60.0989 51.4416 59.3122 50.7756 58.9353C50.5637 58.8173 50.3271 58.7475 50.0728 58.7115C49.562 58.6444 49.0039 58.6654 48.3818 58.813C47.7531 58.9696 47.0802 59.2109 46.2555 59.7462C46.0843 59.857 45.9726 60.0534 45.98 60.2742C46.014 61.2563 46.2012 61.9469 46.4318 62.5515C46.6678 63.1479 46.9686 63.619 47.3163 63.9986C47.4911 64.187 47.6848 64.3408 47.9032 64.4466C48.5921 64.7781 49.4408 64.6215 50.17 64.8147C52.1759 65.2878 54.2217 65.5635 56.2888 65.6561ZM48.2748 118.841C46.3782 119.958 46.0754 122.722 47.7033 124.217C49.0668 125.506 51.2166 125.446 52.5051 124.084C58.5372 117.707 67.5227 114.047 76.5151 114.209C67.1 111.741 56.6537 113.474 48.2748 118.841ZM112.322 41.3679C108.746 46.9963 107.609 54.0034 109.284 60.3086C109.155 54.2816 111.585 48.2506 115.843 44.1918C116.753 43.3243 116.788 41.8832 115.921 40.972C114.916 39.8841 113.066 40.0943 112.322 41.3679Z" fill="#FF3E3F"/>
</g>
<mask id="mask3_4908_1441" style="mask-type:luminance" maskUnits="userSpaceOnUse" x="22" y="67" width="132" height="110">
<path d="M22.8442 125.96L124.594 67.2147L153.725 117.672L51.9757 176.417L22.8442 125.96Z" fill="white"/>
</mask>
<g mask="url(#mask3_4908_1441)">
<path d="M62.6634 162.001C61.5387 164.745 60.2344 167.407 58.7555 169.971C58.1895 170.911 57.9347 172.058 57.244 172.922C56.496 173.804 55.5365 174.334 54.4079 174.771C53.6177 175.05 52.7549 175.267 51.6379 175.272C51.4088 175.274 51.2183 175.108 51.179 174.891C50.8623 172.982 51.1376 171.434 51.8722 169.857C52.1937 169.186 52.6662 168.648 53.2727 168.218C53.872 167.791 54.5308 167.402 55.0869 166.92C56.7598 165.477 58.5246 164.144 60.3363 162.871C60.9435 162.442 61.5671 162.025 62.2046 161.62C62.4514 161.455 62.7809 161.727 62.6634 162.001ZM120.643 70.1286C115.839 77.9631 114.691 91.1796 117.138 99.8315C116.827 91.5287 119.78 79.6272 125.557 73.9416C126.792 72.7277 126.808 70.7401 125.595 69.5051C124.186 68.0271 121.641 68.3578 120.643 70.1286Z" fill="#93A5FF"/>
</g>
<mask id="mask4_4908_1441" style="mask-type:luminance" maskUnits="userSpaceOnUse" x="229" y="19" width="174" height="174">
<path d="M284.019 19.5433L402.168 137.693L347.258 192.603L229.109 74.4535L284.019 19.5433Z" fill="white"/>
</mask>
<g mask="url(#mask4_4908_1441)">
<path d="M298.586 34.9765C304.107 48.3279 302.836 63.9838 295.784 76.4057C293.504 80.4179 290.63 84.0425 287.274 87.0599C298.192 73.7158 300.07 53.4073 291.145 38.683C289.945 36.7183 290.566 34.1506 292.532 32.9497C294.705 31.5933 297.668 32.5912 298.586 34.9765ZM342.122 179.124C341.865 178.952 341.496 179.187 341.544 179.495C341.62 180.109 341.716 180.711 341.829 181.301C342.16 183.041 342.568 184.761 343.134 186.431C343.431 187.247 343.338 188.237 343.789 188.995C343.933 189.234 344.129 189.44 344.363 189.621C344.835 189.981 345.405 190.278 346.114 190.487C346.832 190.689 347.641 190.833 348.773 190.769C349.009 190.754 349.234 190.623 349.351 190.398C349.88 189.396 350.089 188.599 350.204 187.862C350.308 187.132 350.278 186.488 350.147 185.909C350.08 185.621 349.975 185.358 349.818 185.127C349.318 184.4 348.378 184.072 347.761 183.462C346.027 181.843 344.138 180.397 342.122 179.124ZM270.477 48.9952C270.686 49.1631 271.023 48.988 271.005 48.7175C270.984 48.1808 270.947 47.6544 270.893 47.1342C270.788 46.1063 270.65 45.0856 270.468 44.0753C270.342 43.3148 270.095 42.6102 270.035 41.8392C269.995 41.3367 270.003 40.7875 269.773 40.3357C269.666 40.1191 269.512 39.9254 269.323 39.7513C268.943 39.4042 268.471 39.1057 267.875 38.8726C267.269 38.6436 266.578 38.4592 265.596 38.4281C265.392 38.4229 265.188 38.5213 265.069 38.7068C264.536 39.5337 264.297 40.2062 264.141 40.8362C263.996 41.46 263.976 42.0175 264.045 42.5283C264.082 42.7832 264.153 43.0195 264.271 43.2308C264.649 43.895 265.437 44.2494 265.925 44.8224C267.304 46.3529 268.83 47.7445 270.477 48.9952Z" fill="#FFB036"/>
</g>
<path d="M353.957 166.235C348.052 158.486 338.947 153.441 329.292 152.612C326.838 152.427 324.017 152.768 321.65 153.844C320.545 153.279 319.406 152.777 318.27 152.287C317.438 151.953 316.167 151.442 315.329 151.156C306.962 148.162 297.923 147.086 289.203 148.016C299.012 147.7 308.705 149.878 317.365 154.247C317.994 154.575 318.652 154.923 319.317 155.295C318.134 156.29 317.233 157.59 316.801 159.24C316.037 162.155 317.217 165.286 319.336 167.272C320.972 168.889 323.342 169.51 325.529 168.756C327.602 168.048 329.246 166.213 329.571 164.028C329.931 161.725 328.695 159.521 327.105 157.794C327.232 157.797 327.356 157.799 327.48 157.804C335.669 158.547 343.607 163.623 348.026 170.442C349.162 172.21 351.61 172.637 353.28 171.355C354.887 170.133 355.191 167.831 353.957 166.235ZM323.599 165.328C323.07 165.259 322.599 164.952 322.243 164.564C321.96 164.263 321.708 163.926 321.505 163.565C320.876 162.447 320.681 161.169 321.266 160.058C321.76 159.178 322.626 158.619 323.622 158.276C324.847 159.403 325.83 160.718 326.317 162.287C326.77 163.942 325.238 165.552 323.599 165.328ZM325.256 70.9667C323.258 70.7595 321.468 72.2122 321.262 74.2111C320.884 77.8232 319.752 81.4137 317.975 84.687C316.094 88.1717 313.464 91.2886 310.319 93.7434C309.729 94.2035 309.074 94.6366 308.384 95.0075C308.554 94.3941 308.679 93.7672 308.752 93.1331C308.942 91.4731 308.771 89.7188 307.743 88.3324C306.462 86.5325 304.162 85.6486 301.996 85.9646C299.892 86.2506 298.086 87.7272 297.307 89.7001C296.222 92.3663 296.395 95.6065 298.195 97.9825C299.364 99.5202 300.902 100.394 302.585 100.779C302.172 101.398 301.744 102.006 301.32 102.602C300.8 103.296 300.008 104.355 299.46 105.009C294.002 111.733 287.017 117.234 279.074 120.981C286.786 118.018 293.908 113.365 299.82 107.412C300.34 106.912 300.953 106.231 301.451 105.706C301.802 105.345 302.676 104.313 303.017 103.934C303.785 102.999 304.596 102.015 305.324 101.006C307.323 100.916 309.353 100.322 311.093 99.4746C320.099 94.8127 326.679 85.2238 328.455 75.2535C328.854 73.178 327.361 71.1729 325.256 70.9667ZM301.014 91.0638C301.441 89.5986 303.104 89.1023 304.41 89.7696C305.376 90.2628 305.721 91.1985 305.746 92.2533C305.808 93.5838 305.513 94.8998 305.061 96.1525C304.748 96.1961 304.436 96.2199 304.125 96.2199C301.271 96.2282 300.237 93.4968 301.014 91.0638ZM254.302 114.273C256.018 99.8031 248.122 84.4829 235.061 78.0543C233.313 77.1995 232.588 75.0877 233.444 73.3386C234.376 71.3843 236.942 70.7481 238.68 72.0299C248.689 79.0283 254.902 90.7581 255.525 102.814C255.723 106.707 255.322 110.598 254.302 114.273ZM329.911 97.5307C329.302 97.4758 328.693 97.4053 328.079 97.3193C327.838 97.2903 327.777 96.9473 327.996 96.8385C330.155 95.7236 332.383 94.7557 334.668 93.9403C335.521 93.6553 336.289 93.074 337.178 92.902C338.112 92.7486 338.994 92.9279 339.93 93.2543C340.57 93.5009 341.225 93.8221 341.924 94.4117C342.067 94.5319 342.099 94.7361 342.008 94.8936C341.191 96.252 340.197 97.0716 338.902 97.6644C338.344 97.913 337.763 97.999 337.157 97.9441C336.555 97.8934 335.939 97.7856 335.336 97.7897C333.526 97.8032 331.717 97.6975 329.911 97.5307Z" fill="#FFD752"/>
<mask id="mask5_4908_1441" style="mask-type:luminance" maskUnits="userSpaceOnUse" x="256" y="25" width="130" height="130">
<path d="M301.205 25.7006L385.825 110.321L341.582 154.564L256.962 69.9441L301.205 25.7006Z" fill="white"/>
</mask>
<g mask="url(#mask5_4908_1441)">
<path d="M339.53 143.311C341.356 142.863 343.213 142.58 345.083 142.479C345.767 142.462 346.467 142.108 347.153 142.22C347.371 142.257 347.578 142.342 347.779 142.46C348.18 142.704 348.561 143.038 348.92 143.496C349.275 143.965 349.614 144.519 349.894 145.367C349.957 145.557 349.91 145.758 349.788 145.9C349.205 146.576 348.68 146.959 348.172 147.255C347.666 147.543 347.184 147.706 346.721 147.777C346.49 147.811 346.266 147.809 346.052 147.761C345.374 147.603 344.862 147.008 344.237 146.732C342.977 146.141 341.776 145.431 340.608 144.669C340.209 144.411 339.815 144.135 339.425 143.843C339.223 143.703 339.293 143.364 339.53 143.311ZM320.103 59.004C320.155 59.2672 320.525 59.3512 320.686 59.1325C321.017 58.7098 321.33 58.2829 321.624 57.8518C322.494 56.5845 323.305 55.282 323.988 53.9111C324.309 53.2293 324.977 52.6801 325.168 51.9393C325.227 51.704 325.234 51.4574 325.202 51.2025C325.135 50.6917 324.97 50.158 324.667 49.5954C324.353 49.0286 323.946 48.4411 323.215 47.7831C323.064 47.6463 322.845 47.5893 322.634 47.6535C321.694 47.9406 321.075 48.3001 320.551 48.6794C320.036 49.0617 319.659 49.4741 319.382 49.9083C319.245 50.1259 319.147 50.3528 319.101 50.5912C318.959 51.3424 319.33 52.1216 319.332 52.876C319.395 54.9359 319.658 56.9835 320.103 59.004ZM266.656 65.0285C265.086 63.4856 262.338 63.9084 261.316 65.8678C260.424 67.5185 261.038 69.5795 262.687 70.4716C270.408 74.6475 276.269 82.3796 278.44 91.1075C278.387 81.3745 274.009 71.7327 266.656 65.0285ZM358.066 106.842C351.704 104.844 344.641 105.559 338.985 108.81C344.773 107.125 351.228 107.912 356.25 110.973C357.324 111.628 358.724 111.288 359.38 110.216C360.171 108.963 359.489 107.231 358.066 106.842Z" fill="#FF3E3F"/>
</g>
<mask id="mask6_4908_1441" style="mask-type:luminance" maskUnits="userSpaceOnUse" x="212" y="42" width="125" height="125">
<path d="M253.198 42.3065L336.276 125.385L295.078 166.583L212 83.5047L253.198 42.3065Z" fill="white"/>
</mask>
<g mask="url(#mask6_4908_1441)">
<path d="M228.691 90.0969C225.749 89.7208 222.841 89.1498 219.981 88.3851C218.927 88.0815 217.753 88.1323 216.739 87.6888C215.694 87.1945 214.933 86.4049 214.219 85.4278C213.746 84.7367 213.313 83.9595 213.018 82.8819C212.957 82.6612 213.068 82.4342 213.268 82.3399C215.03 81.54 216.596 81.4053 218.309 81.7068C219.041 81.8436 219.683 82.1607 220.255 82.6353C220.823 83.1036 221.369 83.6393 221.978 84.0517C223.805 85.2941 225.55 86.6536 227.249 88.0743C227.82 88.5499 228.384 89.0441 228.941 89.555C229.163 89.7508 228.986 90.1394 228.691 90.0969ZM332.439 122.323C323.628 119.71 310.565 122.022 302.841 126.625C310.781 124.175 323.041 123.947 330.028 128.056C331.52 128.935 333.444 128.436 334.323 126.944C335.386 125.201 334.408 122.828 332.439 122.323Z" fill="#93A5FF"/>
</g>
</svg>
