<svg width="184" height="184" viewBox="0 0 184 184" fill="none" xmlns="http://www.w3.org/2000/svg">
<path d="M22.6614 130.883C26.9969 128.611 28.9874 123.407 27.1241 118.879C26.8605 118.236 26.606 117.588 26.3584 116.936C23.2567 108.697 21.6547 99.7144 21.8956 90.314C22.7954 54.9802 53.328 23.7614 88.6164 22.0686C107.231 21.1755 124.393 27.5765 137.457 38.6857L130.285 46.0865C127.654 48.8019 129.835 53.3237 133.596 52.951L160.895 50.2448C162.868 50.0493 164.408 48.4587 164.542 46.4819L166.403 19.101C166.66 15.329 162.075 13.2862 159.445 15.9993L151.483 24.2158C134.764 9.57104 112.618 1.01138 88.5346 1.93392C40.7782 3.76083 1.42695 44.9844 1.76325 92.7976C1.83823 103.62 3.81057 113.978 7.35986 123.56C7.58482 124.171 7.81659 124.775 8.05518 125.38C10.3524 131.19 17.1261 133.783 22.6614 130.883Z" fill="#99DEF1"/>
<path d="M128.288 29.5198L126.702 31.149C115.541 24.7935 102.482 21.3964 88.6164 22.0668C53.3279 23.7596 22.7976 54.9852 21.8933 90.31C21.6592 99.7104 23.2544 108.695 26.3628 116.936C26.6083 117.586 26.8627 118.236 27.1286 118.884C28.9919 123.408 27.0014 128.616 22.659 130.884C17.126 133.779 10.3479 131.19 8.05967 125.378C7.81427 124.771 7.58022 124.165 7.35754 123.558C7.25983 123.303 7.1644 123.047 7.08032 122.781C9.18672 123.11 11.4317 122.801 13.4972 121.717C17.8282 119.438 19.8187 114.232 17.9554 109.706C17.6896 109.068 17.4351 108.42 17.1897 107.77C14.0926 99.5286 12.4861 90.544 12.7315 81.1436C13.6245 45.8075 44.1548 14.5932 79.4523 12.9004C98.0645 12.0051 115.232 18.4039 128.288 29.5198Z" fill="#78D3F7"/>
<path d="M166.405 19.0964L164.542 46.4796C164.406 48.4588 162.861 50.0562 160.893 50.2471L133.598 52.9511C129.831 53.3237 127.65 48.7996 130.288 46.0843L133.385 42.8917L151.731 41.0716C153.699 40.8785 155.242 39.2924 155.371 37.3133L156.626 18.9147L159.446 15.9993C162.075 13.284 166.66 15.3267 166.405 19.0964Z" fill="#78D3F7"/>
<path d="M7.5758 113.43C6.36695 113.43 5.27172 112.598 4.98768 111.367C3.44708 104.714 2.64042 97.84 2.5927 90.9437C2.58361 89.4735 3.7652 88.2738 5.23536 88.2647C6.71688 88.2579 7.90301 89.4372 7.91437 90.9073C7.95982 97.4129 8.71876 103.893 10.1707 110.167C10.5025 111.599 9.60949 113.028 8.17795 113.36C7.97799 113.407 7.77576 113.43 7.5758 113.43Z" fill="white"/>
<path d="M166.649 65.5321C172.591 63.5961 178.837 67.284 180.132 73.3987C180.266 74.0327 180.394 74.6689 180.514 75.3074C182.414 85.3463 182.63 95.8874 180.9 106.569C173.254 153.769 127.575 187.846 80.1795 181.67C60.6584 179.128 43.4641 170.561 30.1713 158.116C25.4859 153.73 25.9972 146.137 31.1711 142.337C34.9181 139.586 40.1353 139.831 43.505 143.035C54.0484 153.06 67.807 159.92 83.4653 161.806C119.706 166.169 153.626 141.499 160.636 105.66C162.44 96.4328 162.361 87.3073 160.677 78.6659C160.541 77.9819 160.4 77.3002 160.245 76.6208C159.164 71.8468 161.995 67.0477 166.649 65.5321Z" fill="#99DEF1"/>
<path d="M180.9 106.565C173.259 153.772 127.575 187.851 80.1772 181.675C60.6606 179.133 43.4641 170.562 30.1735 158.116C29.1078 157.114 28.3103 155.953 27.7786 154.699C39.942 164.013 54.6596 170.369 71.0154 172.5C118.411 178.674 164.085 144.594 171.736 97.399C173.461 86.7216 173.25 76.1828 171.343 66.1325C171.28 65.7894 171.216 65.4486 171.141 65.0986C175.44 65.6213 179.164 68.8252 180.132 73.4038C180.271 74.0309 180.4 74.6695 180.516 75.308C182.411 85.3491 182.634 95.888 180.9 106.565Z" fill="#78D3F7"/>
<path d="M37.5289 162.436C36.9268 162.436 36.3223 162.231 35.8247 161.816C34.4863 160.698 33.1639 159.53 31.8914 158.339C28.9443 155.578 27.4877 151.677 27.8967 147.637C28.0467 146.175 29.351 145.112 30.8143 145.257C32.2754 145.405 33.3388 146.712 33.1911 148.175C32.9503 150.547 33.8024 152.835 35.527 154.451C36.7268 155.574 37.9743 156.678 39.2354 157.73C40.3624 158.673 40.5147 160.35 39.5717 161.479C39.0468 162.109 38.2901 162.436 37.5289 162.436Z" fill="white"/>
<path d="M77.7299 55.9408L130.033 86.153C134.632 88.8093 134.632 95.4489 130.033 98.1052L77.7299 128.317C73.1308 130.974 67.382 127.654 67.382 122.341V61.9169C67.382 56.6043 73.1308 53.2845 77.7299 55.9408Z" fill="#FAE95F"/>
<path d="M130.033 98.1032L77.73 128.318C73.1332 130.978 67.3866 127.656 67.3866 122.344V115.413L118.072 86.1351C118.092 86.1237 118.111 86.1124 118.131 86.101C121.639 84.0355 125.916 83.7787 129.442 85.8147L130.033 86.1578C134.63 88.8073 134.63 95.4514 130.033 98.1032Z" fill="#FBCA49"/>
<path d="M71.4653 80.1068C69.9951 80.1068 68.8044 78.9138 68.8044 77.4436V62.4512C68.8044 60.7424 69.2521 59.0723 70.0996 57.6249C70.8404 56.3569 72.4696 55.9297 73.7376 56.6728C75.0055 57.4158 75.4327 59.045 74.6919 60.313C74.3147 60.956 74.1261 61.6741 74.1261 62.4512V77.4436C74.1261 78.9138 72.9332 80.1068 71.4653 80.1068Z" fill="white"/>
<path d="M74.2806 56.6052C73.3694 56.6052 72.4605 56.846 71.6289 57.3255C69.9701 58.2844 68.9794 60.0022 68.9794 61.92V122.342C68.9794 124.26 69.9701 125.978 71.6289 126.937C73.2899 127.896 75.2713 127.896 76.9324 126.937L129.236 96.7244C130.897 95.7655 131.887 94.0477 131.887 92.1299C131.887 90.2121 130.897 88.4965 129.236 87.5376L76.9324 57.3255C76.103 56.846 75.1918 56.6052 74.2806 56.6052ZM74.2806 130.854C72.8218 130.854 71.363 130.47 70.0337 129.702C67.3729 128.166 65.7869 125.414 65.7869 122.342V61.92C65.7869 58.8456 67.3729 56.0962 70.0337 54.5601C72.6923 53.0241 75.8689 53.0218 78.5275 54.5601L130.833 84.77C133.492 86.3061 135.08 89.0578 135.08 92.1299C135.08 95.2043 133.492 97.9538 130.833 99.4921L78.5275 129.702C77.1982 130.47 75.7394 130.854 74.2806 130.854Z" fill="#EFAB30"/>
</svg>
