<svg width="25" height="25" viewBox="0 0 25 25" fill="none" xmlns="http://www.w3.org/2000/svg">
<path d="M17.521 2.08301H7.47933C5.26058 2.08301 3.4585 3.89551 3.4585 6.10384V20.7809C3.4585 22.6559 4.80225 23.4476 6.44808 22.5413L11.5314 19.7184C12.0731 19.4163 12.9481 19.4163 13.4793 19.7184L18.5627 22.5413C20.2085 23.458 21.5522 22.6663 21.5522 20.7809V6.10384C21.5418 3.89551 19.7397 2.08301 17.521 2.08301ZM15.1043 11.8747H13.2814V13.7601C13.2814 14.1872 12.9272 14.5413 12.5002 14.5413C12.0731 14.5413 11.7189 14.1872 11.7189 13.7601V11.8747H9.896C9.46891 11.8747 9.11475 11.5205 9.11475 11.0934C9.11475 10.6663 9.46891 10.3122 9.896 10.3122H11.7189V8.55176C11.7189 8.12467 12.0731 7.77051 12.5002 7.77051C12.9272 7.77051 13.2814 8.12467 13.2814 8.55176V10.3122H15.1043C15.5314 10.3122 15.8856 10.6663 15.8856 11.0934C15.8856 11.5205 15.5314 11.8747 15.1043 11.8747Z" fill="#292D32"/>
</svg>
