<svg width="14" height="11" viewBox="0 0 14 11" fill="none" xmlns="http://www.w3.org/2000/svg">
<path d="M1.18745 0.358398C1.49642 0.362229 1.74591 0.598816 1.74995 0.89181V2.31424C1.74185 3.11823 2.07508 3.89153 2.67461 4.46006C3.27415 5.02859 4.08961 5.34459 4.93744 5.33691H11.8299L8.28994 1.95863C8.16178 1.74487 8.20432 1.47573 8.39293 1.30699C8.58155 1.13825 8.86737 1.11365 9.08494 1.24742L13.5849 5.51471C13.6358 5.56404 13.6765 5.62193 13.7049 5.68541C13.765 5.81701 13.765 5.96631 13.7049 6.09791C13.6765 6.16139 13.6358 6.21927 13.5849 6.2686L9.08494 10.5359C8.86533 10.7439 8.50956 10.7439 8.28994 10.5359C8.0706 10.3276 8.0706 9.99027 8.28994 9.78201L11.8299 6.40373H4.93744C3.79001 6.41527 2.68603 5.98812 1.87463 5.21868C1.06323 4.44923 0.612781 3.40234 0.624946 2.31424V0.89181C0.628985 0.598816 0.878473 0.362229 1.18745 0.358398Z" fill="black"/>
</svg>
