<svg width="52" height="14" viewBox="0 0 52 14" fill="none" xmlns="http://www.w3.org/2000/svg">
<path fill-rule="evenodd" clip-rule="evenodd" d="M32.4331 12.4252V13.6027H33.9722V12.1063C33.9722 11.0825 33.2132 10.7341 33.2132 10.7341C33.2132 10.7341 34.0987 10.3651 34.0987 9.3197C34.0987 7.31087 32.0958 7.5466 32.0958 7.5466H28.2585V13.6038H29.841V11.5028H31.3789C32.3687 11.5028 32.4331 12.4252 32.4331 12.4252ZM31.475 10.0781H29.8398V8.93023H31.475C31.9482 8.93023 32.3382 9.18646 32.3382 9.50418C32.3382 9.82191 31.9482 10.0781 31.475 10.0781Z" fill="#008BB6"/>
<path fill-rule="evenodd" clip-rule="evenodd" d="M20.5103 13.6123H21.8913H23.4515V11.665H25.0012C27.0463 11.665 27.7104 11.1104 27.7104 9.32706C27.7104 7.32962 25.7075 7.54485 25.7075 7.54485H21.8702V7.5551H20.6579L18.8342 9.47169L17.021 7.54485H16.1882H11.2651V13.6123H16.1882H17.1475L18.8342 11.8187L20.5103 13.6123ZM21.8702 12.7423L19.9094 10.631L21.8702 8.52991V12.7423ZM12.857 12.3016H16.1882L17.7484 10.631L16.1882 8.96948H12.857V9.90101H16.1038V11.2755H12.857V12.3016ZM25.0855 10.0866H23.4515V8.93873H25.0855C25.5599 8.93873 25.9499 9.1961 25.9499 9.51268C25.9499 9.83041 25.5599 10.0866 25.0855 10.0866Z" fill="#008BB6"/>
<path d="M43.2175 13.5862H40.4028V12.1912H42.8696C42.8696 12.1912 43.7551 12.2937 43.7551 11.7107C43.7551 11.1652 42.4163 11.2085 42.4163 11.2085C42.4163 11.2085 40.2341 11.3929 40.2341 9.40461C40.2341 7.42653 42.2055 7.53927 42.2055 7.53927H45.2427V8.95364H42.797C42.797 8.95364 41.9525 8.78852 41.9525 9.38525C41.9525 9.88518 43.1003 9.81457 43.1003 9.81457C43.1003 9.81457 45.5156 9.64147 45.5156 11.4647C45.5156 13.4211 43.9601 13.5942 43.4084 13.5942C43.2901 13.5931 43.2175 13.5862 43.2175 13.5862Z" fill="#008BB6"/>
<path d="M34.7524 13.5851V7.53809H39.6849V8.94222H36.3443V9.87489H39.6017V11.2494H36.3443V12.2743H39.6849V13.5851H34.7524Z" fill="#008BB6"/>
<path d="M48.7942 13.5862H45.9795V12.1912H48.4369C48.4369 12.1912 49.333 12.2937 49.333 11.7107C49.333 11.1652 47.9942 11.2085 47.9942 11.2085C47.9942 11.2085 45.812 11.3929 45.812 9.40461C45.812 7.42653 47.7833 7.53927 47.7833 7.53927H50.81V8.95364H48.3737C48.3737 8.95364 47.5303 8.78852 47.5303 9.38525C47.5303 9.88518 48.6794 9.81457 48.6794 9.81457C48.6794 9.81457 51.0935 9.64147 51.0935 11.4647C51.0935 13.4211 49.538 13.5942 48.9863 13.5942C48.8656 13.5931 48.7942 13.5862 48.7942 13.5862Z" fill="#008BB6"/>
<path fill-rule="evenodd" clip-rule="evenodd" d="M27.1504 4.9924V6.17105V6.17219H28.7225V4.67696C28.7225 3.65205 27.9424 3.30244 27.9424 3.30244C27.9424 3.30244 28.8414 2.93347 28.8414 1.88806C28.8414 -0.120767 26.808 0.114963 26.808 0.114963H22.9124V6.17105H24.5177V4.06998H26.0802C27.085 4.06998 27.1504 4.9924 27.1504 4.9924ZM26.1765 2.64536H24.5177V1.49745H26.1765C26.6581 1.49745 27.0541 1.75368 27.0541 2.07141C27.0541 2.38913 26.6581 2.64536 26.1765 2.64536Z" fill="#008BB6"/>
<path fill-rule="evenodd" clip-rule="evenodd" d="M43.5462 2.12257L46.0934 6.17097H48.3063V0.114884H46.6903V4.10179L44.1753 0.114884H41.9064V5.60841L39.4996 0.114884H37.2521L35.2615 4.63475C35.2608 4.63497 35.2599 4.63528 35.2587 4.63567C35.1592 4.66853 33.3517 5.26572 33.3458 3.242C33.3446 3.11218 33.3517 2.97211 33.3672 2.82065C33.4956 1.49738 34.5563 1.49738 34.5563 1.49738L36.1819 1.47688V0.113746L34.202 0.0625C34.1964 0.0638565 34.1804 0.0645398 34.1555 0.0656072C33.8037 0.0806694 31.6655 0.172228 31.6655 3.31147C31.6655 5.87375 33.8262 6.17097 33.8262 6.17097H34.5968H34.8643H36.3412L36.8989 4.90008H39.8313L40.3998 6.17097H41.9076H42.1656H43.5462V2.12257ZM39.1464 3.35247H37.5851L38.377 1.54862L39.1464 3.35247Z" fill="#008BB6"/>
<path fill-rule="evenodd" clip-rule="evenodd" d="M14.3303 2.01914V6.19965H15.9571V0.143555H13.4206L11.6655 3.90498L9.89959 0.143555H7.36315V5.70883L4.92304 0.143555H2.66486L0 6.19965H1.75517L2.32239 4.92875H5.25481L5.81133 6.19965H7.36315H7.5772H8.97919V2.0385L11.0019 6.19965H12.3183L14.3303 2.01914ZM3.7886 1.57729L4.56986 3.38114H3.00733L3.7886 1.57729Z" fill="#008BB6"/>
<path d="M17.0688 6.17132V0.115234H22.0775V1.52847H18.6849V2.46114H21.9919V3.83453H18.6849V4.86058H22.0775V6.17132H17.0688Z" fill="#008BB6"/>
<path d="M29.5049 6.19182V0.115234H31.1209V6.19182H29.5049Z" fill="#008BB6"/>
</svg>
