<svg width="30" height="18" viewBox="0 0 30 18" fill="none" xmlns="http://www.w3.org/2000/svg">
<path d="M0 0H28.5882V18H0V0Z" fill="white"/>
<path fill-rule="evenodd" clip-rule="evenodd" d="M0 0H29.5532H29.6471V18H0V0ZM29.4125 17.7772V0.178218C29.3991 0.178218 29.2386 0.178447 28.9521 0.178855C25.2422 0.184148 0.405375 0.219578 0.18764 0.178218V17.7772H29.4125Z" fill="#231F20"/>
<path d="M28.5883 10.5879C28.5883 10.5879 20.7487 15.7126 6.35303 17.9997H28.5883V10.5879Z" fill="#F58220"/>
<path d="M15.8174 5.46289C14.61 5.46289 13.6348 6.30995 13.6348 7.36877C13.6348 8.46995 14.5636 9.31701 15.8174 9.31701C17.0249 9.31701 18.0001 8.46995 18.0001 7.36877C17.9537 6.30995 17.0249 5.46289 15.8174 5.46289Z" fill="#F58220"/>
<path fill-rule="evenodd" clip-rule="evenodd" d="M2.34985 5.54785H3.51084C4.81115 5.54785 5.69351 6.3102 5.69351 7.36903C5.69351 7.91962 5.41487 8.4702 4.95047 8.80903C4.57896 9.1055 4.11456 9.23256 3.51084 9.23256H2.34985V5.54785ZM3.37153 8.59726C3.88236 8.59726 4.20744 8.51256 4.43964 8.30079C4.71827 8.08903 4.90403 7.7502 4.85759 7.36903C4.85759 6.98785 4.71827 6.64903 4.43964 6.43726C4.20744 6.2255 3.88236 6.14079 3.37153 6.14079H3.13933V8.59726H3.37153Z" fill="#001722"/>
<path d="M6.06494 5.54785H6.85442V9.23256H6.06494V5.54785Z" fill="#001722"/>
<path d="M8.80502 6.9456C8.34063 6.77619 8.20131 6.69149 8.20131 6.47972C8.20131 6.2256 8.4335 6.05619 8.80502 6.05619C9.03722 6.05619 9.22298 6.1409 9.45518 6.35266L9.87313 5.84443C9.54806 5.59031 9.1301 5.4209 8.6657 5.4209C7.96911 5.4209 7.41183 5.88678 7.41183 6.47972C7.41183 6.98796 7.69047 7.24207 8.4335 7.49619C8.75858 7.5809 8.8979 7.6656 8.99078 7.70796C9.1301 7.79266 9.22298 7.91972 9.22298 8.08913C9.22298 8.3856 8.94434 8.59737 8.61926 8.59737C8.24775 8.59737 7.92267 8.42796 7.73691 8.08913L7.22607 8.55502C7.59759 9.06325 8.01555 9.27502 8.61926 9.27502C9.45518 9.27502 10.0125 8.76678 10.0125 8.04678C9.96601 7.53855 9.68737 7.24207 8.80502 6.9456Z" fill="#001722"/>
<path d="M10.1982 7.36896C10.1982 8.47013 11.127 9.31719 12.3345 9.31719C12.6595 9.31719 12.9846 9.27484 13.3097 9.10543V8.25837C12.9846 8.55484 12.706 8.6819 12.3345 8.6819C11.545 8.6819 10.9877 8.17366 10.9877 7.41131C10.9877 6.69131 11.5914 6.14072 12.3345 6.14072C12.706 6.14072 12.9846 6.26778 13.3097 6.56425V5.71719C12.9846 5.54778 12.6595 5.50543 12.3345 5.50543C11.1735 5.46308 10.1982 6.31013 10.1982 7.36896Z" fill="#001722"/>
<path d="M19.7647 8.00432L18.6966 5.54785H17.8142L19.5325 9.31726H19.9504L21.7151 5.54785H20.8792L19.7647 8.00432Z" fill="#001722"/>
<path d="M22.0867 9.23256H24.3158V8.59726H22.8761V7.62315H24.2693V6.98785H22.8761V6.14079H24.3158V5.54785H22.0867V9.23256Z" fill="#001722"/>
<path fill-rule="evenodd" clip-rule="evenodd" d="M26.034 5.50586C26.9628 5.50586 27.4737 5.92939 27.4737 6.60704C27.4737 7.19998 27.1486 7.58115 26.5449 7.62351L27.8452 9.19057H26.87L25.7554 7.70821H25.6625V9.19057H24.873V5.50586H26.034ZM25.6625 7.24233H25.8947C26.4056 7.24233 26.6378 7.03057 26.6378 6.64939C26.6378 6.26821 26.4056 6.0988 25.8947 6.0988H25.6625V7.24233Z" fill="#001722"/>
<path fill-rule="evenodd" clip-rule="evenodd" d="M27.9047 5.71777C28.0106 5.71777 28.0635 5.71777 28.0635 5.82366C28.0635 5.8766 28.0106 5.92954 27.9577 5.98248L28.1165 6.1413H28.0106L27.9047 5.98248V6.1413H27.7988V5.71777H27.9047ZM27.951 5.77733C27.9444 5.77071 27.9312 5.77071 27.9047 5.77071V5.8766C27.9312 5.8766 27.9444 5.8766 27.951 5.86998C27.9577 5.86336 27.9577 5.85013 27.9577 5.82366C27.9577 5.79719 27.9577 5.78395 27.951 5.77733Z" fill="#231F20"/>
<path fill-rule="evenodd" clip-rule="evenodd" d="M27.8917 6.18278C27.706 6.18278 27.5667 6.05573 27.5667 5.88631C27.5667 5.7169 27.706 5.58984 27.8917 5.58984C27.7524 5.58984 27.6595 5.7169 27.6595 5.84396C27.6595 6.01337 27.7524 6.09808 27.8917 6.09808C28.031 6.09808 28.1704 6.01337 28.1239 5.84396C28.1239 5.67455 28.031 5.58984 27.8917 5.58984C28.0775 5.58984 28.2168 5.7169 28.2168 5.88631C28.2168 6.05573 28.0775 6.18278 27.8917 6.18278Z" fill="#231F20"/>
</svg>
