<svg width="162" height="118" viewBox="0 0 162 118" fill="none" xmlns="http://www.w3.org/2000/svg">
<path opacity="0.7" d="M58.0171 24.2202C80.8346 11.4486 104.3 -5.24764 130.814 1.58517C139.032 3.71377 146.511 9.00068 151.567 16.7009C165.085 37.2924 163.987 68.8303 156.642 92.0001C155.705 95.038 154.465 97.9439 152.946 100.661C145.49 113.738 132.93 114.356 120.812 110.575C110.56 107.382 101.475 104.083 90.8834 107.337C85.0175 109.138 79.3318 111.615 73.487 113.502C65.5285 116.067 57.3242 117.809 49.038 117.988C27.1123 118.453 2.06643 105.748 0.116595 77.9088C-0.00626196 76.1038 -0.0320576 74.292 0.0393509 72.4835C0.47941 61.3722 3.70963 50.245 12.6629 44.4765C21.6654 38.676 32.3462 36.3851 41.976 32.2716C47.4416 29.9434 52.7645 27.1603 58.0171 24.2202Z" fill="#FFF1F1"/>
<path d="M53.7648 54.3215C54.9031 54.3215 55.8259 53.3987 55.8259 52.2604C55.8259 51.122 54.9031 50.1992 53.7648 50.1992C52.6264 50.1992 51.7036 51.122 51.7036 52.2604C51.7036 53.3987 52.6264 54.3215 53.7648 54.3215Z" fill="#DB5252"/>
<path d="M60.6195 54.3215C61.7578 54.3215 62.6806 53.3987 62.6806 52.2604C62.6806 51.122 61.7578 50.1992 60.6195 50.1992C59.4812 50.1992 58.5583 51.122 58.5583 52.2604C58.5583 53.3987 59.4812 54.3215 60.6195 54.3215Z" fill="#DB5252"/>
<path d="M67.474 54.3215C68.6123 54.3215 69.5351 53.3987 69.5351 52.2604C69.5351 51.122 68.6123 50.1992 67.474 50.1992C66.3356 50.1992 65.4128 51.122 65.4128 52.2604C65.4128 53.3987 66.3356 54.3215 67.474 54.3215Z" fill="#DB5252"/>
<path d="M119.402 100.817H113.347C114.384 99.4344 114.944 97.7524 114.944 96.0239V51.9889C114.944 50.9398 114.738 49.901 114.336 48.9317C113.935 47.9624 113.346 47.0817 112.604 46.3399C111.863 45.5981 110.982 45.0096 110.013 44.6081C109.043 44.2066 108.005 44 106.955 44H53.9889C51.8701 44 49.8381 44.8417 48.3399 46.3399C46.8417 47.8381 46 49.8701 46 51.9889V96.0239C46 98.1426 46.8417 100.175 48.3399 101.673C49.8381 103.171 51.8701 104.013 53.9889 104.013H119.402C119.826 104.013 120.232 103.844 120.532 103.545C120.832 103.245 121 102.839 121 102.415C121 101.991 120.832 101.585 120.532 101.285C120.232 100.986 119.826 100.817 119.402 100.817ZM49.1956 51.9889C49.1956 50.7176 49.7006 49.4984 50.5995 48.5995C51.4984 47.7006 52.7176 47.1956 53.9889 47.1956H106.987C108.259 47.1956 109.478 47.7006 110.377 48.5995C111.276 49.4984 111.781 50.7176 111.781 51.9889V59.8021C110.441 58.6752 108.738 58.0734 106.987 58.1084H106.476C106.329 57.8968 106.133 57.7238 105.905 57.6041C105.677 57.4845 105.424 57.4218 105.166 57.4214H49.1956V51.9889ZM93.614 87.6515C93.7637 87.8 93.8826 87.9767 93.9637 88.1714C94.0448 88.3661 94.0866 88.575 94.0866 88.7859C94.0866 88.9968 94.0448 89.2057 93.9637 89.4004C93.8826 89.5951 93.7637 89.7718 93.614 89.9203C93.4647 90.0684 93.2876 90.1856 93.0929 90.2651C92.8983 90.3446 92.6898 90.3849 92.4795 90.3837C92.0604 90.3819 91.6587 90.2155 91.3611 89.9203C88.5121 87.0752 84.6503 85.4771 80.624 85.4771C76.5976 85.4771 72.7359 87.0752 69.8869 89.9203C69.5875 90.2179 69.1826 90.3849 68.7604 90.3849C68.3383 90.3849 67.9334 90.2179 67.634 89.9203C67.4842 89.7718 67.3654 89.5951 67.2843 89.4004C67.2031 89.2057 67.1614 88.9968 67.1614 88.7859C67.1614 88.575 67.2031 88.3661 67.2843 88.1714C67.3654 87.9767 67.4842 87.8 67.634 87.6515C71.0838 84.2151 75.7547 82.2856 80.624 82.2856C85.4933 82.2856 90.1642 84.2151 93.614 87.6515ZM69.4395 73.2714C69.4395 72.4814 69.6738 71.7091 70.1127 71.0522C70.5516 70.3953 71.1755 69.8833 71.9053 69.581C72.6352 69.2787 73.4384 69.1996 74.2132 69.3537C74.9881 69.5078 75.6998 69.8883 76.2585 70.4469C76.8171 71.0055 77.1975 71.7173 77.3517 72.4921C77.5058 73.267 77.4267 74.0701 77.1244 74.8C76.822 75.5299 76.31 76.1538 75.6532 76.5927C74.9963 77.0316 74.224 77.2659 73.434 77.2659C72.904 77.2659 72.3793 77.1605 71.8904 76.9558C71.4016 76.7511 70.9584 76.4511 70.5866 76.0734C70.2148 75.6957 69.922 75.2478 69.725 74.7557C69.5281 74.2637 69.431 73.7374 69.4395 73.2075V73.2714ZM83.8196 73.2714C83.8196 72.4814 84.0538 71.7091 84.4927 71.0522C84.9317 70.3953 85.5555 69.8833 86.2854 69.581C87.0153 69.2787 87.8185 69.1996 88.5933 69.3537C89.3681 69.5078 90.0799 69.8883 90.6385 70.4469C91.1972 71.0055 91.5776 71.7173 91.7317 72.4921C91.8859 73.267 91.8067 74.0701 91.5044 74.8C91.2021 75.5299 90.6901 76.1538 90.0332 76.5927C89.3763 77.0316 88.604 77.2659 87.814 77.2659C87.284 77.2659 86.7593 77.1605 86.2705 76.9558C85.7817 76.7511 85.3384 76.4511 84.9667 76.0734C84.5949 75.6957 84.302 75.2478 84.1051 74.7557C83.9081 74.2637 83.8111 73.7374 83.8196 73.2075V73.2714ZM58.4467 60.5371V66.4968C58.4467 66.9206 58.2784 67.327 57.9788 67.6266C57.6791 67.9262 57.2727 68.0946 56.849 68.0946C56.4252 68.0946 56.0188 67.9262 55.7192 67.6266C55.4195 67.327 55.2512 66.9206 55.2512 66.4968V60.5371H58.4467ZM58.4467 71.4499C58.445 71.8691 58.2786 72.2708 57.9834 72.5684C57.7605 72.7928 57.476 72.946 57.166 73.0085C56.8559 73.0711 56.5343 73.0403 56.2418 72.9199C56.0423 72.8429 55.8623 72.7229 55.7145 72.5684C55.4193 72.2708 55.2529 71.8691 55.2512 71.4499C55.2465 71.2368 55.2845 71.025 55.363 70.8268C55.4519 70.6386 55.5706 70.4659 55.7145 70.3155C55.9005 70.1313 56.129 69.9956 56.3797 69.9204C56.6305 69.8452 56.8958 69.8327 57.1525 69.8841L57.4561 69.964L57.7277 70.1078L57.9834 70.3155C58.1315 70.4648 58.2486 70.6419 58.3281 70.8365C58.4077 71.0312 58.448 71.2397 58.4467 71.4499ZM49.1956 96.0239V60.5371H53.2539C52.7147 61.2461 52.4127 62.1071 52.3911 62.9977V97.6696C52.4101 98.8273 52.887 99.9303 53.7173 100.737C52.5074 100.669 51.3683 100.144 50.5293 99.27C49.6904 98.3954 49.2138 97.2356 49.1956 96.0239Z" fill="#DB5252"/>
</svg>
