<svg width="16" height="16" viewBox="0 0 16 16" fill="none" xmlns="http://www.w3.org/2000/svg">
<mask id="mask0_734_3801" style="mask-type:luminance" maskUnits="userSpaceOnUse" x="0" y="0" width="16" height="16">
<path fill-rule="evenodd" clip-rule="evenodd" d="M0 0H16V16H0V0Z" fill="white"/>
</mask>
<g mask="url(#mask0_734_3801)">
<path fill-rule="evenodd" clip-rule="evenodd" d="M11.3334 5.33366H12.0001C12.7334 5.33366 13.3334 5.93366 13.3334 6.66699V13.3337C13.3334 14.067 12.7334 14.667 12.0001 14.667H4.00008C3.26675 14.667 2.66675 14.067 2.66675 13.3337V6.66699C2.66675 5.93366 3.26675 5.33366 4.00008 5.33366H4.66675V4.00033C4.66675 2.16033 6.16008 0.666992 8.00008 0.666992C9.84008 0.666992 11.3334 2.16033 11.3334 4.00033V5.33366ZM9.33342 10.0003C9.33342 10.7337 8.73341 11.3337 8.00008 11.3337C7.26675 11.3337 6.66675 10.7337 6.66675 10.0003C6.66675 9.26699 7.26675 8.66699 8.00008 8.66699C8.73341 8.66699 9.33342 9.26699 9.33342 10.0003ZM5.93341 4.00033C5.93341 2.86033 6.86008 1.93366 8.00008 1.93366C9.14008 1.93366 10.0667 2.86033 10.0667 4.00033V5.33366H5.93341V4.00033ZM4.00008 13.3337H12.0001V6.66699H4.00008V13.3337Z" fill="#AEB5BC"/>
</g>
</svg>
