<svg width="24" height="24" viewBox="0 0 24 24" fill="none" xmlns="http://www.w3.org/2000/svg">
<path d="M9 17.6667C9 17.2985 9.29848 17 9.66667 17H14.3333C14.7015 17 15 17.2985 15 17.6667C15 18.403 14.403 19 13.6667 19H10.3333C9.59695 19 9 18.403 9 17.6667Z" fill="#3C4447"/>
<path d="M10 20.6667C10 20.2985 10.2985 20 10.6667 20H13.3333C13.7015 20 14 20.2985 14 20.6667C14 21.403 13.403 22 12.6667 22H11.3333C10.597 22 10 21.403 10 20.6667Z" fill="#3C4447"/>
<path d="M17 8C17 10.2774 16.1109 11.6647 14.1163 14.2287C13.7401 14.7123 13.1542 14.997 12.5288 14.9981C12.3444 14.9984 12.1616 14.999 11.9939 15C11.7423 15.0016 11.4537 15.0022 11.1678 15.0024C10.555 15.0028 9.98317 14.7214 9.62278 14.2453C7.7222 11.7344 7 10.3237 7 8C7 5.23858 9.23858 3 12 3C14.7614 3 17 5.23858 17 8Z" stroke="#3C4447" stroke-width="2"/>
<path d="M12 14V11" stroke="#3C4447" stroke-width="2" stroke-linecap="round"/>
<rect x="11" y="7" width="2" height="2" rx="1" fill="#3C4447"/>
</svg>
