<svg width="27" height="22" viewBox="0 0 27 22" fill="none" xmlns="http://www.w3.org/2000/svg">
<path d="M26.9027 9.16907C26.9027 13.75 23.2529 17.4697 18.7477 17.4697C14.2425 17.4697 10.5928 13.7572 10.5928 9.16907C10.5928 4.58091 14.2425 0.86841 18.7477 0.86841C23.2529 0.86841 26.9027 4.58091 26.9027 9.16907Z" fill="#F59511"/>
<path d="M16.8373 9.16907C16.8373 13.75 13.1875 17.4697 8.6823 17.4697C4.17711 17.4697 0.527344 13.7572 0.527344 9.16907C0.527344 4.58091 4.17711 0.86841 8.6823 0.86841C13.1875 0.86841 16.8373 4.58091 16.8373 9.16907Z" fill="#EA1C24"/>
<path d="M13.715 2.63437C11.8117 4.1541 10.5928 6.51331 10.5928 9.16923C10.5928 11.8179 11.8117 14.1844 13.715 15.7041C15.6183 14.1844 16.8373 11.8252 16.8373 9.16923C16.8373 6.51331 15.6183 4.1541 13.715 2.63437Z" fill="#F14D1C"/>
<path fill-rule="evenodd" clip-rule="evenodd" d="M26.4036 13.1893V13.5693H26.3537V13.1893H26.2539V13.111H26.5034V13.1893H26.4036ZM26.8883 13.111V13.5693H26.8456V13.2228L26.76 13.5246H26.703L26.6175 13.2228V13.5693H26.5604V13.111H26.6388L26.7244 13.424L26.8099 13.111H26.8883Z" fill="#F59511"/>
<path d="M2.33786 21.5732H1.87451L1.87451 19.3805H2.33073L2.33073 19.6482C2.33073 19.6482 2.72993 19.3226 2.96517 19.3226C3.42852 19.3298 3.6994 19.7278 3.6994 19.7278C3.6994 19.7278 3.92038 19.3226 4.4265 19.3226C5.16786 19.3226 5.28191 20.0101 5.28191 20.0101V21.5588H4.83995V20.1982C4.83995 20.1982 4.83995 19.7857 4.36234 19.7857C3.86335 19.7857 3.82058 20.1982 3.82058 20.1982V21.5588H3.35723V20.1838C3.35723 20.1838 3.31446 19.7496 2.89388 19.7496C2.35212 19.7496 2.33786 20.191 2.33786 20.191V21.5732Z" fill="#100F0D"/>
<path d="M16.4166 19.322C16.1813 19.3148 15.7821 19.6477 15.7821 19.6477V19.3799H15.3259V21.5654H15.7893L15.7821 20.1904C15.7821 20.1904 15.7893 19.749 16.3382 19.749C16.438 19.749 16.5164 19.7707 16.5805 19.8141L16.7302 19.3871C16.6376 19.351 16.5306 19.322 16.4166 19.322Z" fill="#100F0D"/>
<path d="M22.9393 19.322C22.704 19.3148 22.3049 19.6477 22.3049 19.6477V19.3799H21.8486V21.5654H22.312L22.3049 20.1904C22.3049 20.1904 22.312 19.749 22.8609 19.749C22.9607 19.749 23.0391 19.7707 23.1032 19.8141L23.2529 19.3871C23.1531 19.351 23.0533 19.322 22.9393 19.322Z" fill="#100F0D"/>
<path fill-rule="evenodd" clip-rule="evenodd" d="M5.70972 20.4726C5.70972 19.9443 6.0804 19.3147 6.77186 19.3147C7.19956 19.3147 7.49896 19.6548 7.49896 19.6548V19.3798H7.95518V21.5726H7.49896V21.3482C7.49896 21.3482 7.17818 21.6377 6.79324 21.6377C6.1303 21.6377 5.70972 21.0153 5.70972 20.4726ZM7.54173 20.487C7.54173 20.0818 7.23521 19.7561 6.86453 19.7561C6.49385 19.7561 6.18732 20.089 6.19445 20.487C6.19445 20.8923 6.49385 21.218 6.86453 21.218C7.24233 21.218 7.54173 20.8923 7.54173 20.487Z" fill="#100F0D"/>
<path fill-rule="evenodd" clip-rule="evenodd" d="M19.0044 20.4726C19.0044 19.9443 19.3751 19.3147 20.0665 19.3147C20.4387 19.3147 20.7159 19.581 20.7798 19.6423C20.7881 19.6503 20.7928 19.6548 20.7936 19.6548V19.3798H21.2499V21.5726H20.7936V21.3482C20.7936 21.3482 20.4729 21.6377 20.0879 21.6377C19.425 21.6377 19.0044 21.0153 19.0044 20.4726ZM20.8293 20.487C20.8293 20.0818 20.5228 19.7561 20.1521 19.7561C19.7814 19.7561 19.482 20.089 19.482 20.487C19.482 20.8923 19.7814 21.218 20.1521 21.218C20.5299 21.218 20.8293 20.8923 20.8293 20.487Z" fill="#100F0D"/>
<path fill-rule="evenodd" clip-rule="evenodd" d="M23.374 20.4726C23.374 19.9443 23.7447 19.3147 24.4362 19.3147C24.8639 19.3147 25.1633 19.6548 25.1633 19.6548V18.5114H25.6195V21.5726H25.1633V21.3482C25.1633 21.3482 24.8425 21.6377 24.4575 21.6377C23.7946 21.6377 23.374 21.0153 23.374 20.4726ZM25.206 20.487C25.206 20.0818 24.8995 19.7561 24.5288 19.7561C24.1582 19.7561 23.8588 20.089 23.8588 20.487C23.8588 20.8923 24.151 21.218 24.5288 21.218C24.9066 21.218 25.206 20.8923 25.206 20.487Z" fill="#100F0D"/>
<path d="M9.34526 21.6455C8.87478 21.6455 8.43994 21.3488 8.43994 21.3488L8.63954 21.0376C8.63954 21.0376 9.05299 21.233 9.34526 21.233C9.53772 21.233 9.8585 21.1679 9.86563 20.9725C9.87276 20.7698 9.32387 20.7047 9.32387 20.7047C9.32387 20.7047 8.51123 20.6902 8.51123 20.01C8.51123 19.583 8.91755 19.308 9.43793 19.308C9.73732 19.308 10.3005 19.5758 10.3005 19.5758L10.0724 19.9376C10.0724 19.9376 9.63752 19.7639 9.40941 19.7567C9.21694 19.7495 8.9817 19.8435 8.9817 20.0172C8.9817 20.4804 10.3361 19.981 10.3361 20.9218C10.3361 21.5297 9.78009 21.6455 9.34526 21.6455Z" fill="#100F0D"/>
<path d="M11.0845 18.7431V19.3799H10.6782V19.8431H11.0845V20.9431C11.0845 20.9431 11.0489 21.6885 11.8402 21.6885C12.0611 21.6885 12.4889 21.522 12.4889 21.522L12.3035 21.0444C12.3035 21.0444 12.1324 21.1891 11.94 21.1891C11.5764 21.1819 11.5835 20.9431 11.5835 20.9431V19.8431H12.3392V19.3799H11.5835V18.7431H11.0845Z" fill="#100F0D"/>
<path fill-rule="evenodd" clip-rule="evenodd" d="M12.717 20.4952C12.717 19.9597 13.0877 19.3373 13.8291 19.3373C14.9411 19.3373 14.8271 20.6472 14.8271 20.6399H13.2445C13.2445 20.6399 13.2802 21.2261 13.8719 21.2261C14.1641 21.2261 14.4992 20.9873 14.4992 20.9873L14.713 21.3636C14.713 21.3636 14.2211 21.6748 13.8719 21.6748C13.0521 21.6748 12.717 21.0524 12.717 20.4952ZM13.8148 19.7715H13.7578C13.2702 19.7976 13.2445 20.2046 13.2391 20.2911C13.2385 20.3007 13.2381 20.3063 13.2374 20.307H14.3637C14.3637 20.307 14.3708 19.7715 13.8148 19.7715Z" fill="#100F0D"/>
<path d="M18.5267 20.9864L18.7406 21.4134C18.7406 21.4134 18.4056 21.6377 18.0278 21.6377C17.2508 21.6377 16.8159 21.0443 16.8159 20.4798C16.8159 19.5969 17.5074 19.3364 17.9707 19.3364C18.3913 19.3364 18.762 19.5824 18.762 19.5824L18.5267 20.0094C18.5267 20.0094 18.3842 19.7778 17.9636 19.7778C17.543 19.7778 17.322 20.1469 17.322 20.4943C17.322 20.8851 17.5787 21.218 17.9707 21.218C18.2701 21.218 18.5267 20.9864 18.5267 20.9864Z" fill="#100F0D"/>
<path fill-rule="evenodd" clip-rule="evenodd" d="M26.42 21.326C26.4641 21.2816 26.5156 21.2594 26.5819 21.2594C26.6481 21.2594 26.6996 21.2816 26.7438 21.326C26.7879 21.3703 26.81 21.4221 26.81 21.4886C26.81 21.5551 26.7879 21.6069 26.7438 21.6512C26.6996 21.6956 26.6481 21.7178 26.5819 21.7178C26.5156 21.7178 26.4641 21.6956 26.42 21.6512C26.3758 21.6069 26.3538 21.5551 26.3538 21.4886C26.3538 21.4221 26.3758 21.3703 26.42 21.326ZM26.5819 21.6586C26.5304 21.6586 26.4862 21.6438 26.4568 21.6069C26.4273 21.5773 26.4053 21.533 26.4053 21.4812C26.4053 21.4295 26.42 21.3925 26.4568 21.3555C26.4862 21.326 26.5304 21.3038 26.5819 21.3038C26.6334 21.3038 26.6702 21.3186 26.707 21.3555C26.7364 21.3851 26.7585 21.4295 26.7585 21.4812C26.7585 21.533 26.7438 21.5699 26.707 21.6069C26.6702 21.6438 26.6334 21.6586 26.5819 21.6586ZM26.5451 21.3777H26.5966C26.6076 21.3777 26.6187 21.3796 26.6297 21.3814L26.6297 21.3814C26.6377 21.3828 26.6458 21.3841 26.6538 21.3847C26.6446 21.376 26.6346 21.376 26.6164 21.376H26.5451V21.3777ZM26.5451 21.4738V21.3777H26.5009V21.5847H26.5451V21.5034H26.5672L26.6334 21.5847H26.6849L26.6187 21.5034C26.6407 21.5034 26.6555 21.496 26.6702 21.4812C26.6849 21.4664 26.6849 21.459 26.6849 21.4369C26.6849 21.4147 26.6775 21.3999 26.6628 21.3851C26.6598 21.3851 26.6568 21.385 26.6538 21.3847L26.6571 21.3883C26.6673 21.4005 26.6673 21.4127 26.6673 21.4249C26.6673 21.4372 26.6673 21.4494 26.6571 21.4616C26.6469 21.4738 26.6367 21.4738 26.6164 21.4738H26.5451Z" fill="#100F0D"/>
</svg>
