<svg width="52" height="67" viewBox="0 0 52 67" fill="none" xmlns="http://www.w3.org/2000/svg">
<path fill-rule="evenodd" clip-rule="evenodd" d="M48.7363 14.9553C48.7363 14.9553 52.5172 16.7209 51.9399 21.2241C50.2478 34.3213 45.7318 51.088 42.7704 63.1244C41.1678 69.6497 23.5167 64.5861 18.1399 63.9573C12.7623 63.3269 10.4414 62.3285 9.20166 58.1999L48.7363 14.9553Z" fill="black"/>
<path fill-rule="evenodd" clip-rule="evenodd" d="M15.5263 15.8507C17.2708 14.5037 18.5814 12.5517 19.2802 10.1827C19.968 7.8391 19.1511 5.42204 17.7965 3.47759C15.4639 0.146535 11.4467 -0.350549 7.33752 0.183668C5.04368 0.71451 2.84942 1.70952 1.43919 3.68098C-1.10615 7.24749 -0.182873 14.0649 3.47901 16.5942C5.80829 18.2002 8.70893 18.2103 11.3994 17.7006C11.6045 17.6626 11.813 17.6154 12.0147 17.5639C12.6797 18.5572 13.3928 19.5666 14.3423 20.294C14.5229 20.4358 14.7212 20.5574 14.933 20.6417C15.0942 20.7008 15.2504 20.7472 15.4158 20.7599C16.5323 20.8401 16.1762 19.2155 16.0825 18.5884C15.9913 17.9293 15.8479 17.2803 15.7103 16.6305C15.6546 16.368 15.593 16.1089 15.5263 15.8507Z" fill="#FDE3CD"/>
<path fill-rule="evenodd" clip-rule="evenodd" d="M47.9598 14.6286C48.6823 14.7383 49.3321 15.1307 49.7676 15.7207C50.1963 16.3114 50.3769 17.049 50.2638 17.7723C47.8898 32.7591 44.4254 47.3003 39.8909 61.3984C39.5179 62.5503 38.4359 63.3226 37.224 63.2998C29.5762 63.1074 20.8734 62.0575 11.2735 60.2742C10.552 60.1384 9.90888 59.7189 9.49957 59.1071C9.08519 58.4969 8.93835 57.7458 9.08773 57.0233C11.8938 43.2307 15.1793 29.6922 21.784 14.1923C22.233 13.1508 23.2702 12.49 24.4003 12.5263C32.5587 12.7998 40.4048 13.5137 47.9598 14.6286Z" fill="#904DF0"/>
<path fill-rule="evenodd" clip-rule="evenodd" d="M46.8603 16.5764C47.224 16.6254 47.5481 16.8195 47.7675 17.1123C47.981 17.4069 48.0679 17.7757 48.008 18.1352C45.5454 32.3725 42.3713 45.874 38.0883 59.9662C37.9068 60.5603 37.3431 60.9528 36.7211 60.9156C29.8244 60.4793 21.7056 59.4953 12.6914 58.1095C12.3269 58.053 12.0003 57.8487 11.7901 57.5432C11.5791 57.2385 11.5057 56.8605 11.5859 56.4976C14.5996 42.6003 18.2598 28.8659 23.6037 15.4337C23.8163 14.8987 24.3497 14.5594 24.9227 14.5906C34.7902 15.1139 41.1704 15.8135 46.8603 16.5764Z" fill="#EFC5FA"/>
<path fill-rule="evenodd" clip-rule="evenodd" d="M41.4587 15.0481C41.4587 15.0481 40.0941 17.6838 37.9361 17.8585C35.7781 18.0332 32.3323 17.3993 31.5331 17.0795C30.7339 16.7605 30.0756 14.5907 30.2157 13.7898L41.4587 15.0481Z" fill="#904DF0"/>
<path fill-rule="evenodd" clip-rule="evenodd" d="M33.018 41.056C32.6956 39.9859 31.7791 39.1411 30.5469 38.9293C29.3148 38.7174 28.0801 39.1917 27.2826 40.0686C26.8842 40.5058 26.2107 40.5707 25.7761 40.2138C25.3406 39.8568 25.3069 39.2112 25.7052 38.7748C27.0015 37.3418 29.0177 36.5688 31.0314 36.9156C33.0391 37.2608 34.538 38.639 35.0747 40.3868C35.2325 40.9193 34.9101 41.5033 34.3379 41.6873C33.7725 41.8721 33.1826 41.5894 33.018 41.056Z" fill="#904DF0"/>
<path fill-rule="evenodd" clip-rule="evenodd" d="M35.1599 38.1899C34.3185 36.9561 32.9682 36.0505 31.3082 35.7644C29.6473 35.4792 27.9856 35.8665 26.6302 36.7223C26.1238 37.0413 25.4757 36.9231 25.1685 36.4573C24.8621 35.9931 25.0157 35.3543 25.5221 35.0352C27.3349 33.8866 29.5646 33.3684 31.7926 33.7516C34.0206 34.1348 35.8334 35.3492 36.9711 37.0059C37.2791 37.4641 37.1356 38.1047 36.6385 38.4313C36.1406 38.7587 35.479 38.6507 35.1599 38.1899Z" fill="#904DF0"/>
<path fill-rule="evenodd" clip-rule="evenodd" d="M37.5137 35.6345C36.1997 34.0799 34.3228 32.9617 32.0804 32.576C29.822 32.1878 27.5771 32.5963 25.6487 33.593C25.1254 33.8672 24.4748 33.6858 24.2148 33.1921C23.9701 32.7001 24.1836 32.0764 24.7069 31.8013C27.0665 30.5868 29.822 30.0906 32.5648 30.5623C35.3077 31.0341 37.599 32.3988 39.2092 34.2968C39.5645 34.723 39.4877 35.3703 39.0202 35.7391C38.5526 36.1079 37.8842 36.0623 37.5137 35.6345Z" fill="#904DF0"/>
<path fill-rule="evenodd" clip-rule="evenodd" d="M7.02206 6.84074C6.88113 6.81373 6.75538 6.74621 6.65748 6.64747C5.54178 5.55119 7.3242 3.76962 8.03986 3.31642C9.65349 2.29693 11.9229 2.68262 12.8276 4.44646C13.0115 4.80429 13.1457 5.18154 13.2065 5.57988C13.3711 6.71161 12.9736 7.71169 12.0638 8.38431C11.4916 8.8046 10.7751 9.04174 10.4493 9.72365C9.9725 10.7263 10.8122 11.7618 9.76067 12.3331C9.26358 12.6023 8.77409 12.3804 8.49306 11.9238C8.14873 11.3668 8.09387 10.5963 8.22637 9.96755C8.36478 9.34472 8.67366 8.78856 9.16231 8.38347C9.97672 7.71337 11.3329 7.52602 11.419 6.25335C11.4342 6.06853 11.4089 5.87864 11.3692 5.69888C11.3085 5.46004 11.2224 5.2288 11.0924 5.01866C10.9363 4.77223 10.6966 4.59162 10.4156 4.51651C9.38089 4.24307 8.63062 5.09799 8.1884 5.90986C7.94618 6.35884 7.5681 6.94792 7.02206 6.84074Z" fill="#FF5757"/>
<path fill-rule="evenodd" clip-rule="evenodd" d="M8.9731 13.6943C9.06424 13.5981 9.1748 13.5272 9.29548 13.4876C9.70986 13.3542 10.0398 13.3171 10.4517 13.5745C11.1277 13.9939 10.877 15.0227 10.2584 15.3544C9.92675 15.5316 9.49043 15.5789 9.15623 15.3721C8.71907 15.0987 8.43213 14.275 8.9731 13.6943Z" fill="#FF5757"/>
<path d="M29.4795 43.3691C28.7023 43.235 28.2195 42.5168 28.401 41.7648C28.5824 41.012 29.3588 40.5107 30.1353 40.644C30.9117 40.7774 31.3944 41.4956 31.2138 42.2484C31.0324 43.0003 30.256 43.5025 29.4795 43.3691Z" fill="#FF5757"/>
<path fill-rule="evenodd" clip-rule="evenodd" d="M31.2971 30.5734C31.4406 29.9784 32.0221 29.5969 32.628 29.7007C32.9707 29.7598 33.2787 29.9607 33.4745 30.256C33.6711 30.5506 33.7319 30.9126 33.65 31.2544C33.1698 33.2487 32.271 36.9797 31.8322 38.8035C31.6887 39.3985 31.1072 39.78 30.5089 39.677C30.1595 39.6171 29.8514 39.4162 29.6556 39.1208C29.459 38.8263 29.3974 38.4642 29.4801 38.1208C29.9603 36.1282 30.8583 32.3971 31.2971 30.5734Z" fill="#FF5757"/>
</svg>
