<svg width="13" height="13" viewBox="0 0 13 13" fill="none" xmlns="http://www.w3.org/2000/svg">
<mask id="mask0_1913_3726" style="mask-type:luminance" maskUnits="userSpaceOnUse" x="0" y="0" width="13" height="13">
<path d="M0 0H12.9806V13H0V0Z" fill="white"/>
</mask>
<g mask="url(#mask0_1913_3726)">
<path fill-rule="evenodd" clip-rule="evenodd" d="M-0.0303955 3.44634C-0.0303955 1.5262 1.5263 -0.0302734 3.44643 -0.0302734H9.49299C11.4131 -0.0302734 12.9696 1.5262 12.9696 3.44634V9.4929C12.9696 11.413 11.4131 12.9697 9.49299 12.9697H6.16731C5.9169 12.9697 5.71387 12.7667 5.71387 12.5161C5.71387 12.2657 5.9169 12.0626 6.16731 12.0626H9.49299C10.9121 12.0626 12.0627 10.9122 12.0627 9.4929V3.44634C12.0627 2.02723 10.9121 0.876613 9.49299 0.876613H3.44643C2.02711 0.876613 0.876706 2.02723 0.876706 3.44634V9.4929C0.876706 10.9122 2.02711 12.0626 3.44643 12.0626H3.74873C3.99914 12.0626 4.20217 12.2657 4.20217 12.5161C4.20217 12.7667 3.99914 12.9697 3.74873 12.9697H3.44643C1.5263 12.9697 -0.0303955 11.413 -0.0303955 9.4929V3.44634Z" fill="#2F2F2F" fill-opacity="0.5"/>
</g>
<path fill-rule="evenodd" clip-rule="evenodd" d="M6.46968 1.78418C6.7203 1.78418 6.92334 1.98722 6.92334 2.23762V6.01653H10.7022C10.9529 6.01653 11.1559 6.21957 11.1559 6.47019C11.1559 6.7206 10.9529 6.92363 10.7022 6.92363H6.46968C6.21927 6.92363 6.01624 6.7206 6.01624 6.47019V2.23762C6.01624 1.98722 6.21927 1.78418 6.46968 1.78418Z" fill="#2F2F2F" fill-opacity="0.5"/>
</svg>
