<svg width="26" height="25" viewBox="0 0 26 25" fill="none" xmlns="http://www.w3.org/2000/svg">
<path d="M19.2173 6.78166H13.5652V3.86469C14.3814 3.61938 14.9779 2.87453 14.9779 1.97806C14.9779 0.88534 14.0926 0 12.9999 0C11.9072 0 11.0218 0.88534 11.0218 1.97806C11.0218 2.87119 11.6183 3.61937 12.4345 3.86469V6.78166H6.78242C4.91029 6.78166 3.3916 8.30032 3.3916 10.1725V20.9113C3.3916 22.7834 4.91026 24.3021 6.78242 24.3021H19.2162C21.0883 24.3021 22.607 22.7834 22.607 20.9113V10.1725C22.607 8.30035 21.0883 6.78166 19.2162 6.78166H19.2173ZM7.34789 13.2813C7.34789 12.1886 8.23323 11.3032 9.32594 11.3032C10.4187 11.3032 11.304 12.1886 11.304 13.2813C11.304 14.374 10.4187 15.2593 9.32594 15.2593C8.23323 15.2593 7.34789 14.374 7.34789 13.2813ZM16.6483 19.4698C15.5321 20.044 14.2711 20.3462 13 20.3462C11.73 20.3462 10.4678 20.044 9.35172 19.4698C9.07519 19.327 8.96368 18.9869 9.10641 18.7071C9.24914 18.4305 9.58922 18.319 9.8691 18.4618C11.8104 19.4608 14.193 19.4608 16.1344 18.4618C16.4109 18.319 16.7543 18.4305 16.897 18.7071C17.0398 18.9836 16.9316 19.327 16.6517 19.4698H16.6483ZM16.6739 15.2594C15.5812 15.2594 14.6959 14.3741 14.6959 13.2814C14.6959 12.1886 15.5812 11.3033 16.6739 11.3033C17.7667 11.3033 18.652 12.1886 18.652 13.2814C18.652 14.3741 17.7667 15.2594 16.6739 15.2594Z" fill="white"/>
<path d="M17.5211 13.2806C17.5211 14.4112 15.8252 14.4112 15.8252 13.2806C15.8252 12.15 17.5211 12.15 17.5211 13.2806Z" fill="white"/>
<path d="M10.1745 13.2806C10.1745 14.4112 8.47852 14.4112 8.47852 13.2806C8.47852 12.15 10.1745 12.15 10.1745 13.2806Z" fill="white"/>
<path d="M24.3046 11.8673H23.7393V19.2141H24.3046C25.2412 19.2141 26.0005 18.4548 26.0005 17.5182V13.5622C26.0005 12.6256 25.2412 11.8662 24.3046 11.8662V11.8673Z" fill="white"/>
<path d="M2.26128 11.8672H1.69595C0.759345 11.8672 0 12.6265 0 13.5631V17.5191C0 18.4557 0.759345 19.2151 1.69595 19.2151H2.26128V11.8672Z" fill="white"/>
</svg>
