<svg width="40" height="12" viewBox="0 0 40 12" fill="none" xmlns="http://www.w3.org/2000/svg">
<path fill-rule="evenodd" clip-rule="evenodd" d="M39.3257 10.0029C38.971 10.0029 38.6833 10.2692 38.6833 10.5979C38.6833 10.9262 38.971 11.1928 39.3257 11.1928C39.681 11.1928 39.968 10.9262 39.968 10.5979C39.968 10.2692 39.681 10.0029 39.3257 10.0029ZM39.8143 10.5979C39.8143 10.8473 39.5961 11.0496 39.3257 11.0496C39.0566 11.0496 38.838 10.8473 38.838 10.5979C38.838 10.3475 39.0566 10.1458 39.3257 10.1458C39.5961 10.1458 39.8143 10.3475 39.8143 10.5979ZM39.2392 10.8586H39.1078V10.3362H39.3461C39.3958 10.3362 39.4461 10.3368 39.4901 10.3624C39.5357 10.3921 39.5615 10.4413 39.5615 10.4931C39.5615 10.5527 39.5247 10.608 39.4643 10.6284L39.5675 10.8586H39.4213L39.3357 10.6517H39.2392V10.8586ZM39.3115 10.5623H39.2392V10.4293H39.309C39.3125 10.4293 39.3162 10.4293 39.32 10.4292C39.3436 10.4289 39.3733 10.4285 39.3933 10.4392C39.4118 10.4494 39.425 10.4727 39.425 10.4919C39.425 10.5152 39.4137 10.5396 39.392 10.5527C39.3715 10.563 39.347 10.5627 39.3231 10.5624C39.3192 10.5624 39.3154 10.5623 39.3115 10.5623Z" fill="#0161AB"/>
<path fill-rule="evenodd" clip-rule="evenodd" d="M34.8659 9.59987L35.2298 11.2301H38.0809L35.5952 0.25293H33.0993C31.9464 0.25293 31.6651 1.07059 31.6651 1.07059L27.0347 11.2301H30.271L30.9181 9.59987H34.8659ZM34.3627 7.34744H31.8131L33.4444 3.2386L34.3627 7.34744Z" fill="#0066B2"/>
<path d="M27.2768 2.89258L27.7202 0.535205C27.7202 0.535205 26.3524 0.0566406 24.9273 0.0566406C23.3862 0.0566406 19.7268 0.676536 19.7268 3.69066C19.7268 6.52706 24.0222 6.56251 24.0222 8.05091C24.0222 9.54025 20.1697 9.27438 18.8977 8.33497L18.4365 10.7992C18.4365 10.7992 19.8226 11.4195 21.9419 11.4195C24.0602 11.4195 27.258 10.4092 27.258 7.66144C27.258 4.80731 22.924 4.54097 22.924 3.30025C22.924 2.05906 25.9485 2.21858 27.2768 2.89258Z" fill="#0066B2"/>
<path d="M16.523 11.2301H13.418L15.3584 0.25293H18.4645L16.523 11.2301Z" fill="#0066B2"/>
<path d="M2.53012 0.25293H0.0831448L0.0258789 0.438572C0.0263857 0.438572 1.5229 0.724964 3.27483 1.69329L5.97191 11.2301H9.20718L14.1478 0.25293H10.8056L7.84547 7.80315L7.49478 6.17715V6.17762L6.4498 1.24131C6.4498 1.24131 6.32412 0.25293 4.9771 0.25293H2.53012H0.0831448L0.0258789 0.438572C0.0263857 0.438572 2.37885 0.887285 4.63503 2.56786C6.79238 4.1752 7.49478 6.17762 7.49478 6.17762L6.4498 1.24131C6.4498 1.24131 6.32412 0.25293 4.9771 0.25293H2.53012Z" fill="#0066B2"/>
<path d="M7.49478 6.17762L6.4498 1.24131C6.4498 1.24131 6.32412 0.25293 4.9771 0.25293H0.0831448L0.0258789 0.438572C0.0263857 0.438572 2.37885 0.887285 4.63503 2.56786C6.79238 4.1752 7.49478 6.17762 7.49478 6.17762Z" fill="#F9A533"/>
</svg>
